{"glyphs":{"0":{"ha":819,"x_min":83,"x_max":736,"o":"m 410 -14 q 168 108 253 -14 q 83 458 83 231 q 168 808 83 686 q 410 931 253 931 q 651 808 567 931 q 736 458 736 686 q 651 108 736 231 q 410 -14 567 -14 m 410 6 q 635 122 557 6 q 714 458 714 239 q 635 794 714 678 q 410 911 557 911 q 184 794 263 911 q 106 458 106 678 q 184 122 106 239 q 410 6 263 6 z "},"1":{"ha":439,"x_min":39,"x_max":311,"o":"m 311 917 l 311 0 l 289 0 l 289 719 l 289 875 q 184 764 249 810 q 46 694 119 718 l 39 713 q 188 794 119 742 q 289 917 256 847 l 311 917 z "},"2":{"ha":742,"x_min":65,"x_max":683,"o":"m 75 19 l 119 57 q 407 304 310 214 q 563 483 504 394 q 622 660 622 572 q 552 844 622 778 q 361 911 482 911 q 165 837 239 911 q 86 636 92 763 l 65 644 q 151 853 72 775 q 361 931 229 931 q 568 858 493 931 q 643 660 643 786 q 587 478 643 567 q 436 301 531 390 q 149 51 342 213 l 113 21 l 113 19 l 151 19 l 683 19 l 683 0 l 75 0 l 75 19 z "},"3":{"ha":724,"x_min":60,"x_max":642,"o":"m 356 931 q 549 867 479 931 q 618 692 618 804 q 572 540 618 603 q 440 463 525 476 l 440 461 q 585 392 529 454 q 642 236 642 329 q 604 105 642 161 q 503 17 567 49 q 363 -14 440 -14 q 160 42 239 -14 q 60 196 82 99 l 79 208 q 171 60 99 114 q 363 6 243 6 q 493 34 435 6 q 585 115 551 63 q 619 238 619 167 q 558 392 619 332 q 385 453 496 453 l 315 453 l 315 472 l 385 472 q 540 535 485 472 q 596 692 596 597 q 532 853 596 794 q 356 911 468 911 q 201 863 267 911 q 111 731 136 815 l 89 743 q 190 881 119 831 q 356 931 261 931 z "},"4":{"ha":764,"x_min":53,"x_max":732,"o":"m 732 285 l 539 285 l 539 0 l 517 0 l 517 285 l 53 285 l 53 304 l 508 917 l 539 917 l 539 304 l 732 304 l 732 285 m 78 304 l 517 304 l 517 893 l 515 893 l 456 811 l 78 304 z "},"5":{"ha":743,"x_min":69,"x_max":675,"o":"m 389 556 q 538 519 472 556 q 639 419 603 483 q 675 272 675 354 q 638 124 675 189 q 533 22 600 58 q 382 -14 467 -14 q 69 207 113 -14 l 89 215 q 182 57 106 108 q 382 6 258 6 q 523 40 461 6 q 619 134 585 74 q 653 272 653 194 q 619 409 653 349 q 526 503 586 469 q 389 536 465 536 q 119 418 208 536 l 100 418 l 142 917 l 640 917 l 640 897 l 160 897 l 124 468 l 121 442 l 122 442 q 389 556 204 556 z "},"6":{"ha":750,"x_min":76,"x_max":682,"o":"m 421 931 q 576 885 517 931 q 661 764 635 840 l 640 754 q 564 868 619 825 q 421 911 508 911 q 175 775 253 911 q 97 440 97 639 q 111 269 97 360 l 114 269 q 151 415 111 351 q 258 514 190 479 q 399 549 325 549 q 606 472 531 549 q 682 267 682 394 q 603 63 682 139 q 393 -14 525 -14 q 156 106 236 -14 q 76 458 76 225 q 121 719 76 613 q 243 878 165 825 q 421 931 321 931 m 399 529 q 260 491 321 529 q 166 393 200 453 q 132 269 132 333 q 165 135 132 194 q 257 40 197 75 q 392 6 317 6 q 588 78 515 6 q 660 269 660 150 q 588 457 660 385 q 399 529 517 529 z "},"7":{"ha":686,"x_min":31,"x_max":674,"o":"m 674 917 l 674 897 q 415 497 506 717 q 301 0 324 276 l 278 0 q 389 493 300 271 q 649 897 478 715 l 31 897 l 31 917 l 674 917 z "},"8":{"ha":781,"x_min":76,"x_max":704,"o":"m 390 931 q 590 869 515 931 q 665 706 665 808 q 613 560 665 618 q 467 483 560 503 l 467 482 q 640 397 575 464 q 704 235 704 329 q 665 106 704 163 q 553 18 625 50 q 390 -14 482 -14 q 227 18 299 -14 q 116 106 156 50 q 76 235 76 163 q 142 397 76 329 q 314 482 207 464 l 314 483 q 168 560 221 503 q 115 706 115 618 q 190 869 115 808 q 390 931 264 931 m 390 911 q 206 855 275 911 q 138 706 138 799 q 207 551 138 610 q 390 493 276 493 q 574 551 504 493 q 643 706 643 610 q 574 855 643 799 q 390 911 506 911 m 390 6 q 542 35 475 6 q 645 116 608 64 q 682 235 682 168 q 645 356 682 303 q 542 440 608 410 q 390 471 475 471 q 239 440 306 471 q 135 356 172 410 q 99 235 99 303 q 135 116 99 168 q 239 35 172 64 q 390 6 306 6 z "},"9":{"ha":786,"x_min":79,"x_max":703,"o":"m 376 931 q 619 808 535 931 q 703 458 703 685 q 661 198 703 304 q 547 39 619 92 q 378 -14 474 -14 q 186 40 265 -14 q 88 181 107 93 l 111 193 q 196 56 126 107 q 378 6 265 6 q 610 138 538 6 q 682 464 682 271 q 665 653 682 553 l 663 653 q 625 503 667 568 q 515 403 583 438 q 372 368 446 368 q 158 444 238 368 q 79 650 79 521 q 160 854 79 778 q 376 931 240 931 m 378 911 q 176 839 251 911 q 101 647 101 767 q 176 459 101 531 q 372 388 250 388 q 512 426 449 388 q 611 524 575 464 q 647 647 647 585 q 613 782 647 722 q 517 876 579 842 q 378 911 456 911 z "}," ":{"ha":390,"x_min":0,"x_max":0,"o":""},"A":{"ha":814,"x_min":17,"x_max":797,"o":"m 639 325 l 175 325 l 40 0 l 17 0 l 394 917 l 419 917 l 797 0 l 774 0 l 639 325 m 631 344 l 431 828 l 407 892 l 383 829 l 183 344 l 631 344 z "},"Á":{"ha":814,"x_min":17,"x_max":797,"o":"m 426 1032 l 406 1032 l 510 1238 l 535 1238 l 426 1032 m 639 325 l 175 325 l 40 0 l 17 0 l 394 917 l 419 917 l 797 0 l 774 0 l 639 325 m 631 344 l 431 828 l 407 892 l 383 829 l 183 344 l 631 344 z "},"Ă":{"ha":814,"x_min":17,"x_max":797,"o":"m 639 325 l 175 325 l 40 0 l 17 0 l 394 917 l 419 917 l 797 0 l 774 0 l 639 325 m 631 344 l 431 828 l 407 892 l 383 829 l 183 344 l 631 344 m 575 1197 q 531 1074 575 1118 q 407 1029 486 1029 q 283 1074 328 1029 q 239 1197 239 1118 l 258 1197 q 299 1089 258 1129 q 407 1049 339 1049 q 515 1089 475 1049 q 556 1197 556 1129 l 575 1197 z "},"Â":{"ha":814,"x_min":17,"x_max":797,"o":"m 265 1032 l 242 1032 l 393 1229 l 421 1229 l 572 1032 l 549 1032 l 407 1211 l 265 1032 m 639 325 l 175 325 l 40 0 l 17 0 l 394 917 l 419 917 l 797 0 l 774 0 l 639 325 m 631 344 l 431 828 l 407 892 l 383 829 l 183 344 l 631 344 z "},"Ä":{"ha":814,"x_min":17,"x_max":797,"o":"m 639 325 l 175 325 l 40 0 l 17 0 l 394 917 l 419 917 l 797 0 l 774 0 l 639 325 m 631 344 l 431 828 l 407 892 l 383 829 l 183 344 l 631 344 m 278 1114 q 300 1106 292 1114 q 308 1083 308 1097 q 300 1061 308 1069 q 278 1053 292 1053 q 256 1061 264 1053 q 247 1083 247 1069 q 256 1106 247 1097 q 278 1114 264 1114 m 533 1114 q 556 1106 547 1114 q 564 1083 564 1097 q 556 1061 564 1069 q 533 1053 547 1053 q 511 1061 519 1053 q 503 1083 503 1069 q 511 1106 503 1097 q 533 1114 519 1114 z "},"À":{"ha":814,"x_min":17,"x_max":797,"o":"m 383 1032 l 275 1238 l 300 1238 l 404 1032 l 383 1032 m 639 325 l 175 325 l 40 0 l 17 0 l 394 917 l 419 917 l 797 0 l 774 0 l 639 325 m 631 344 l 431 828 l 407 892 l 383 829 l 183 344 l 631 344 z "},"Ā":{"ha":814,"x_min":17,"x_max":797,"o":"m 639 325 l 175 325 l 40 0 l 17 0 l 394 917 l 419 917 l 797 0 l 774 0 l 639 325 m 631 344 l 431 828 l 407 892 l 383 829 l 183 344 l 631 344 m 607 1063 l 207 1063 l 207 1082 l 607 1082 l 607 1063 z "},"Ą":{"ha":814,"x_min":17,"x_max":815,"o":"m 815 -251 q 715 -281 772 -281 q 628 -252 663 -281 q 593 -172 593 -224 q 633 -74 593 -117 q 771 7 674 -32 l 639 325 l 175 325 l 40 0 l 17 0 l 394 917 l 419 917 l 797 0 q 656 -79 697 -39 q 614 -172 614 -119 q 642 -238 614 -215 q 715 -261 671 -261 q 807 -233 772 -261 l 815 -251 m 631 344 l 431 828 l 407 892 l 383 829 l 183 344 l 631 344 z "},"Å":{"ha":814,"x_min":17,"x_max":797,"o":"m 639 325 l 175 325 l 40 0 l 17 0 l 388 899 q 329 931 351 906 q 307 994 307 956 q 335 1065 307 1038 q 407 1092 363 1092 q 479 1065 451 1092 q 507 994 507 1038 q 485 931 507 956 q 426 899 463 906 l 797 0 l 774 0 l 639 325 m 329 994 q 351 938 329 960 q 407 917 372 917 q 464 938 443 917 q 485 994 485 960 q 464 1051 485 1031 q 407 1072 443 1072 q 351 1051 372 1072 q 329 994 329 1031 m 631 344 l 431 828 l 407 892 l 383 829 l 183 344 l 631 344 z "},"Ã":{"ha":814,"x_min":17,"x_max":797,"o":"m 639 325 l 175 325 l 40 0 l 17 0 l 394 917 l 419 917 l 797 0 l 774 0 l 639 325 m 631 344 l 431 828 l 407 892 l 383 829 l 183 344 l 631 344 m 628 1171 q 589 1082 617 1110 q 510 1054 561 1054 q 449 1067 472 1054 q 400 1104 426 1079 q 356 1139 375 1128 q 306 1150 336 1150 q 241 1127 261 1150 q 210 1053 221 1104 l 189 1053 q 228 1142 200 1114 q 307 1169 256 1169 q 367 1157 344 1169 q 417 1119 390 1144 q 459 1085 439 1097 q 510 1074 479 1074 q 575 1097 554 1074 q 607 1171 596 1119 l 628 1171 z "},"Æ":{"ha":1229,"x_min":-11,"x_max":1188,"o":"m 1188 19 l 1188 0 l 608 0 l 608 353 l 242 353 l 21 0 l -11 0 l 572 917 l 1165 917 l 1165 897 l 631 897 l 631 475 l 1058 475 l 1058 456 l 631 456 l 631 19 l 1188 19 m 608 372 l 608 897 l 583 897 l 254 372 l 608 372 z "},"B":{"ha":846,"x_min":138,"x_max":767,"o":"m 138 917 l 460 917 q 669 858 599 917 q 740 685 740 799 q 557 464 740 503 l 557 463 q 712 390 657 449 q 767 235 767 332 q 689 60 767 119 q 460 0 611 0 l 138 0 l 138 917 m 460 472 q 653 525 588 472 q 718 683 718 578 q 652 843 718 789 q 460 897 586 897 l 160 897 l 160 472 l 460 472 m 460 19 q 672 74 600 19 q 744 236 744 129 q 673 399 744 344 q 460 453 601 453 l 160 453 l 160 19 l 460 19 z "},"C":{"ha":901,"x_min":78,"x_max":847,"o":"m 847 229 q 718 50 813 114 q 485 -14 624 -14 q 272 44 364 -14 q 128 208 179 101 q 78 458 78 315 q 128 708 78 601 q 271 873 179 815 q 485 931 363 931 q 840 689 772 931 l 819 679 q 702 853 785 796 q 485 911 619 911 q 283 856 369 911 q 148 698 196 800 q 100 458 100 596 q 148 219 100 321 q 283 61 196 117 q 485 6 371 6 q 705 66 615 6 q 826 238 794 126 l 847 229 z "},"Ć":{"ha":901,"x_min":78,"x_max":847,"o":"m 599 1238 l 490 1032 l 469 1032 l 574 1238 l 599 1238 m 847 229 q 718 50 813 114 q 485 -14 624 -14 q 272 44 364 -14 q 128 208 179 101 q 78 458 78 315 q 128 708 78 601 q 271 873 179 815 q 485 931 363 931 q 840 689 772 931 l 819 679 q 702 853 785 796 q 485 911 619 911 q 283 856 369 911 q 148 698 196 800 q 100 458 100 596 q 148 219 100 321 q 283 61 196 117 q 485 6 371 6 q 705 66 615 6 q 826 238 794 126 l 847 229 z "},"Č":{"ha":901,"x_min":78,"x_max":847,"o":"m 485 1032 l 457 1032 l 306 1229 l 329 1229 l 471 1050 l 613 1229 l 636 1229 l 485 1032 m 847 229 q 718 50 813 114 q 485 -14 624 -14 q 272 44 364 -14 q 128 208 179 101 q 78 458 78 315 q 128 708 78 601 q 271 873 179 815 q 485 931 363 931 q 840 689 772 931 l 819 679 q 702 853 785 796 q 485 911 619 911 q 283 856 369 911 q 148 698 196 800 q 100 458 100 596 q 148 219 100 321 q 283 61 196 117 q 485 6 371 6 q 705 66 615 6 q 826 238 794 126 l 847 229 z "},"Ç":{"ha":901,"x_min":78,"x_max":847,"o":"m 847 229 q 721 51 814 115 q 493 -14 628 -12 q 581 -83 556 -49 q 606 -164 606 -118 q 572 -248 606 -215 q 483 -281 538 -281 q 408 -267 439 -281 q 353 -222 376 -254 l 364 -206 q 417 -250 389 -237 q 483 -262 446 -262 q 556 -235 528 -262 q 585 -165 585 -208 q 558 -89 585 -124 q 461 -14 532 -54 q 259 51 346 -8 q 125 215 172 111 q 78 458 78 319 q 128 708 78 601 q 271 873 179 815 q 485 931 363 931 q 840 689 772 931 l 819 679 q 702 853 785 796 q 485 911 619 911 q 283 856 369 911 q 148 698 196 800 q 100 458 100 596 q 148 219 100 321 q 283 61 196 117 q 485 6 371 6 q 705 66 615 6 q 826 238 794 126 l 847 229 z "},"D":{"ha":950,"x_min":138,"x_max":871,"o":"m 419 917 q 756 804 642 917 q 871 472 871 692 q 756 120 871 240 q 419 0 642 0 l 138 0 l 138 917 l 419 917 m 419 19 q 740 134 631 19 q 849 472 849 249 q 740 790 849 682 q 419 897 631 897 l 160 897 l 160 19 l 419 19 z "},"Ð":{"ha":960,"x_min":7,"x_max":882,"o":"m 431 917 q 767 804 653 917 q 882 472 882 692 q 767 120 882 240 q 431 0 653 0 l 149 0 l 149 454 l 7 454 l 7 474 l 149 474 l 149 917 l 431 917 m 431 19 q 751 134 642 19 q 860 472 860 249 q 751 790 860 682 q 431 897 642 897 l 171 897 l 171 474 l 458 474 l 458 454 l 171 454 l 171 19 l 431 19 z "},"Ď":{"ha":950,"x_min":138,"x_max":871,"o":"m 415 1032 l 264 1229 l 288 1229 l 429 1050 l 571 1229 l 594 1229 l 443 1032 l 415 1032 m 419 917 q 756 804 642 917 q 871 472 871 692 q 756 120 871 240 q 419 0 642 0 l 138 0 l 138 917 l 419 917 m 419 19 q 740 134 631 19 q 849 472 849 249 q 740 790 849 682 q 419 897 631 897 l 160 897 l 160 19 l 419 19 z "},"Đ":{"ha":960,"x_min":7,"x_max":882,"o":"m 431 917 q 767 804 653 917 q 882 472 882 692 q 767 120 882 240 q 431 0 653 0 l 149 0 l 149 454 l 7 454 l 7 474 l 149 474 l 149 917 l 431 917 m 431 19 q 751 134 642 19 q 860 472 860 249 q 751 790 860 682 q 431 897 642 897 l 171 897 l 171 474 l 458 474 l 458 454 l 171 454 l 171 19 l 431 19 z "},"E":{"ha":810,"x_min":138,"x_max":768,"o":"m 768 19 l 768 0 l 138 0 l 138 917 l 744 917 l 744 897 l 160 897 l 160 478 l 629 478 l 629 458 l 160 458 l 160 19 l 768 19 z "},"É":{"ha":810,"x_min":138,"x_max":768,"o":"m 446 1032 l 425 1032 l 529 1238 l 554 1238 l 446 1032 m 768 19 l 768 0 l 138 0 l 138 917 l 744 917 l 744 897 l 160 897 l 160 478 l 629 478 l 629 458 l 160 458 l 160 19 l 768 19 z "},"Ě":{"ha":810,"x_min":138,"x_max":768,"o":"m 426 1032 l 275 1229 l 299 1229 l 440 1050 l 582 1229 l 606 1229 l 454 1032 l 426 1032 m 768 19 l 768 0 l 138 0 l 138 917 l 744 917 l 744 897 l 160 897 l 160 478 l 629 478 l 629 458 l 160 458 l 160 19 l 768 19 z "},"Ê":{"ha":810,"x_min":138,"x_max":768,"o":"m 299 1032 l 275 1032 l 426 1229 l 454 1229 l 606 1032 l 582 1032 l 440 1211 l 299 1032 m 768 19 l 768 0 l 138 0 l 138 917 l 744 917 l 744 897 l 160 897 l 160 478 l 629 478 l 629 458 l 160 458 l 160 19 l 768 19 z "},"Ë":{"ha":810,"x_min":138,"x_max":768,"o":"m 768 19 l 768 0 l 138 0 l 138 917 l 744 917 l 744 897 l 160 897 l 160 478 l 629 478 l 629 458 l 160 458 l 160 19 l 768 19 m 311 1114 q 333 1106 325 1114 q 342 1083 342 1097 q 333 1061 342 1069 q 311 1053 325 1053 q 289 1061 297 1053 q 281 1083 281 1069 q 289 1106 281 1097 q 311 1114 297 1114 m 567 1114 q 589 1106 581 1114 q 597 1083 597 1097 q 589 1061 597 1069 q 567 1053 581 1053 q 544 1061 553 1053 q 536 1083 536 1069 q 544 1106 536 1097 q 567 1114 553 1114 z "},"Ė":{"ha":810,"x_min":138,"x_max":768,"o":"m 768 19 l 768 0 l 138 0 l 138 917 l 744 917 l 744 897 l 160 897 l 160 478 l 629 478 l 629 458 l 160 458 l 160 19 l 768 19 m 440 1114 q 463 1106 454 1114 q 471 1083 471 1097 q 463 1061 471 1069 q 440 1053 454 1053 q 418 1061 426 1053 q 410 1083 410 1069 q 418 1106 410 1097 q 440 1114 426 1114 z "},"È":{"ha":810,"x_min":138,"x_max":768,"o":"m 444 1032 l 336 1238 l 361 1238 l 465 1032 l 444 1032 m 768 19 l 768 0 l 138 0 l 138 917 l 744 917 l 744 897 l 160 897 l 160 478 l 629 478 l 629 458 l 160 458 l 160 19 l 768 19 z "},"Ē":{"ha":810,"x_min":138,"x_max":768,"o":"m 768 19 l 768 0 l 138 0 l 138 917 l 744 917 l 744 897 l 160 897 l 160 478 l 629 478 l 629 458 l 160 458 l 160 19 l 768 19 m 640 1063 l 240 1063 l 240 1082 l 640 1082 l 640 1063 z "},"Ę":{"ha":810,"x_min":138,"x_max":786,"o":"m 786 -251 q 743 -273 765 -265 q 686 -281 721 -281 q 599 -252 633 -281 q 564 -172 564 -224 q 601 -78 564 -119 q 726 0 638 -36 l 138 0 l 138 917 l 744 917 l 744 897 l 160 897 l 160 478 l 629 478 l 629 458 l 160 458 l 160 19 l 768 19 l 768 0 q 626 -79 668 -39 q 585 -172 585 -119 q 613 -238 585 -215 q 686 -261 642 -261 q 778 -233 743 -261 l 786 -251 z "},"F":{"ha":769,"x_min":138,"x_max":743,"o":"m 160 897 l 160 478 l 629 478 l 629 458 l 160 458 l 160 0 l 138 0 l 138 917 l 743 917 l 743 897 l 160 897 z "},"G":{"ha":939,"x_min":78,"x_max":847,"o":"m 847 432 l 847 0 l 825 0 l 825 221 q 708 49 797 111 q 479 -14 619 -14 q 267 44 358 -14 q 127 208 176 101 q 78 458 78 315 q 128 708 78 601 q 271 873 179 815 q 485 931 363 931 q 840 689 772 931 l 821 679 q 703 853 786 796 q 485 911 619 911 q 283 856 369 911 q 148 698 196 800 q 100 458 100 596 q 147 219 100 321 q 280 61 194 117 q 479 6 365 6 q 685 60 607 6 q 794 190 763 114 q 825 339 825 267 l 825 413 l 490 413 l 490 432 l 847 432 z "},"Ğ":{"ha":939,"x_min":78,"x_max":847,"o":"m 847 432 l 847 0 l 825 0 l 825 221 q 708 49 797 111 q 479 -14 619 -14 q 267 44 358 -14 q 127 208 176 101 q 78 458 78 315 q 128 708 78 601 q 271 873 179 815 q 485 931 363 931 q 840 689 772 931 l 821 679 q 703 853 786 796 q 485 911 619 911 q 283 856 369 911 q 148 698 196 800 q 100 458 100 596 q 147 219 100 321 q 280 61 194 117 q 479 6 365 6 q 685 60 607 6 q 794 190 763 114 q 825 339 825 267 l 825 413 l 490 413 l 490 432 l 847 432 m 644 1197 q 600 1074 644 1118 q 476 1029 556 1029 q 353 1074 397 1029 q 308 1197 308 1118 l 328 1197 q 368 1089 328 1129 q 476 1049 408 1049 q 585 1089 544 1049 q 625 1197 625 1129 l 644 1197 z "},"H":{"ha":967,"x_min":138,"x_max":829,"o":"m 829 917 l 829 0 l 807 0 l 807 458 l 160 458 l 160 0 l 138 0 l 138 917 l 160 917 l 160 478 l 807 478 l 807 917 l 829 917 z "},"I":{"ha":297,"x_min":138,"x_max":160,"o":"m 160 0 l 138 0 l 138 917 l 160 917 l 160 0 z "},"Ĳ":{"ha":989,"x_min":138,"x_max":861,"o":"m 160 0 l 138 0 l 138 917 l 160 917 l 160 0 m 861 290 q 792 67 861 149 q 592 -14 722 -14 q 404 50 471 -14 q 338 224 338 114 q 342 278 338 249 l 364 289 q 360 229 360 258 q 420 63 360 121 q 592 6 481 6 q 776 81 713 6 q 839 290 839 157 l 839 917 l 861 917 l 861 290 z "},"Í":{"ha":297,"x_min":138,"x_max":276,"o":"m 276 1238 l 168 1032 l 147 1032 l 251 1238 l 276 1238 m 160 0 l 138 0 l 138 917 l 160 917 l 160 0 z "},"Î":{"ha":297,"x_min":-17,"x_max":314,"o":"m 290 1032 l 149 1211 l 7 1032 l -17 1032 l 135 1229 l 163 1229 l 314 1032 l 290 1032 m 160 0 l 138 0 l 138 917 l 160 917 l 160 0 z "},"Ï":{"ha":297,"x_min":36,"x_max":261,"o":"m 67 1114 q 89 1106 81 1114 q 97 1083 97 1097 q 89 1061 97 1069 q 67 1053 81 1053 q 44 1061 53 1053 q 36 1083 36 1069 q 44 1106 36 1097 q 67 1114 53 1114 m 231 1114 q 253 1106 244 1114 q 261 1083 261 1097 q 253 1061 261 1069 q 231 1053 244 1053 q 208 1061 217 1053 q 200 1083 200 1069 q 208 1106 200 1097 q 231 1114 217 1114 m 160 0 l 138 0 l 138 917 l 160 917 l 160 0 z "},"İ":{"ha":297,"x_min":118,"x_max":179,"o":"m 160 0 l 138 0 l 138 917 l 160 917 l 160 0 m 149 1114 q 171 1106 163 1114 q 179 1083 179 1097 q 171 1061 179 1069 q 149 1053 163 1053 q 126 1061 135 1053 q 118 1083 118 1069 q 126 1106 118 1097 q 149 1114 135 1114 z "},"Ì":{"ha":297,"x_min":17,"x_max":160,"o":"m 146 1032 l 125 1032 l 17 1238 l 42 1238 l 146 1032 m 160 0 l 138 0 l 138 917 l 160 917 l 160 0 z "},"Ī":{"ha":297,"x_min":-3,"x_max":300,"o":"m 300 1063 l -3 1063 l -3 1082 l 300 1082 l 300 1063 m 160 0 l 138 0 l 138 917 l 160 917 l 160 0 z "},"Į":{"ha":297,"x_min":3,"x_max":210,"o":"m 210 -250 q 167 -274 186 -267 q 121 -281 147 -281 q 38 -249 72 -281 q 3 -167 3 -218 q 33 -83 3 -121 q 138 6 63 -46 l 138 917 l 160 917 l 160 0 q 53 -89 82 -54 q 24 -167 24 -124 q 52 -235 24 -210 q 121 -261 81 -261 q 165 -255 147 -261 q 201 -232 182 -249 l 210 -250 z "},"J":{"ha":692,"x_min":40,"x_max":564,"o":"m 564 290 q 494 67 564 149 q 294 -14 425 -14 q 107 50 174 -14 q 40 224 40 114 q 44 278 40 249 l 67 289 q 63 229 63 258 q 123 63 63 121 q 294 6 183 6 q 478 81 415 6 q 542 290 542 157 l 542 917 l 564 917 l 564 290 z "},"K":{"ha":774,"x_min":138,"x_max":756,"o":"m 365 533 l 160 325 l 160 0 l 138 0 l 138 917 l 160 917 l 160 357 l 710 917 l 742 917 l 382 550 l 756 0 l 726 0 l 365 533 z "},"L":{"ha":754,"x_min":138,"x_max":738,"o":"m 738 19 l 738 0 l 138 0 l 138 917 l 160 917 l 160 19 l 738 19 z "},"Ĺ":{"ha":754,"x_min":138,"x_max":738,"o":"m 168 1032 l 147 1032 l 251 1238 l 276 1238 l 168 1032 m 738 19 l 738 0 l 138 0 l 138 917 l 160 917 l 160 19 l 738 19 z "},"Ľ":{"ha":754,"x_min":138,"x_max":738,"o":"m 346 699 l 326 699 l 363 972 l 386 972 l 346 699 m 738 19 l 738 0 l 138 0 l 138 917 l 160 917 l 160 19 l 738 19 z "},"Ŀ":{"ha":782,"x_min":138,"x_max":738,"o":"m 738 19 l 738 0 l 138 0 l 138 917 l 160 917 l 160 19 l 738 19 m 676 496 q 699 488 690 496 q 707 465 707 479 q 699 443 707 451 q 676 435 690 435 q 654 443 663 435 q 646 465 646 451 q 654 488 646 479 q 676 496 663 496 z "},"Ł":{"ha":769,"x_min":13,"x_max":753,"o":"m 753 19 l 753 0 l 153 0 l 153 383 l 13 294 l 13 322 l 153 411 l 153 917 l 175 917 l 175 426 l 464 610 l 464 582 l 175 399 l 175 19 l 753 19 z "},"M":{"ha":1092,"x_min":138,"x_max":954,"o":"m 954 0 l 932 0 l 932 806 l 933 885 l 560 0 l 532 0 l 158 885 l 160 806 l 160 0 l 138 0 l 138 917 l 167 917 l 529 67 l 546 26 l 563 65 l 925 917 l 954 917 l 954 0 z "},"N":{"ha":964,"x_min":138,"x_max":826,"o":"m 826 0 l 796 0 l 194 840 l 158 894 l 160 815 l 160 0 l 138 0 l 138 917 l 168 917 l 769 76 l 806 22 l 804 101 l 804 917 l 826 917 l 826 0 z "},"Ń":{"ha":964,"x_min":138,"x_max":826,"o":"m 618 1238 l 510 1032 l 489 1032 l 593 1238 l 618 1238 m 826 0 l 796 0 l 194 840 l 158 894 l 160 815 l 160 0 l 138 0 l 138 917 l 168 917 l 769 76 l 806 22 l 804 101 l 804 917 l 826 917 l 826 0 z "},"Ň":{"ha":964,"x_min":138,"x_max":826,"o":"m 504 1032 l 476 1032 l 325 1229 l 349 1229 l 490 1050 l 632 1229 l 656 1229 l 504 1032 m 826 0 l 796 0 l 194 840 l 158 894 l 160 815 l 160 0 l 138 0 l 138 917 l 168 917 l 769 76 l 806 22 l 804 101 l 804 917 l 826 917 l 826 0 z "},"Ñ":{"ha":964,"x_min":138,"x_max":826,"o":"m 826 0 l 796 0 l 194 840 l 158 894 l 160 815 l 160 0 l 138 0 l 138 917 l 168 917 l 769 76 l 806 22 l 804 101 l 804 917 l 826 917 l 826 0 m 711 1171 q 672 1082 700 1110 q 593 1054 644 1054 q 533 1067 556 1054 q 483 1104 510 1079 q 439 1139 458 1128 q 389 1150 419 1150 q 324 1127 344 1150 q 293 1053 304 1104 l 272 1053 q 311 1142 283 1114 q 390 1169 339 1169 q 451 1157 428 1169 q 500 1119 474 1144 q 542 1085 522 1097 q 593 1074 563 1074 q 658 1097 638 1074 q 690 1171 679 1119 l 711 1171 z "},"O":{"ha":992,"x_min":78,"x_max":914,"o":"m 496 931 q 718 873 624 931 q 863 709 813 815 q 914 458 914 603 q 863 208 914 314 q 718 44 813 101 q 496 -14 624 -14 q 274 44 368 -14 q 128 208 179 101 q 78 458 78 314 q 128 709 78 603 q 274 873 179 815 q 496 931 368 931 m 496 911 q 285 856 375 911 q 148 698 196 800 q 100 458 100 596 q 148 219 100 321 q 285 61 196 117 q 496 6 375 6 q 706 61 617 6 q 844 219 796 117 q 892 458 892 321 q 844 698 892 596 q 706 856 796 800 q 496 911 617 911 z "},"Ó":{"ha":992,"x_min":78,"x_max":914,"o":"m 624 1238 l 515 1032 l 494 1032 l 599 1238 l 624 1238 m 496 931 q 718 873 624 931 q 863 709 813 815 q 914 458 914 603 q 863 208 914 314 q 718 44 813 101 q 496 -14 624 -14 q 274 44 368 -14 q 128 208 179 101 q 78 458 78 314 q 128 709 78 603 q 274 873 179 815 q 496 931 368 931 m 496 911 q 285 856 375 911 q 148 698 196 800 q 100 458 100 596 q 148 219 100 321 q 285 61 196 117 q 496 6 375 6 q 706 61 617 6 q 844 219 796 117 q 892 458 892 321 q 844 698 892 596 q 706 856 796 800 q 496 911 617 911 z "},"Ô":{"ha":992,"x_min":78,"x_max":914,"o":"m 638 1032 l 496 1211 l 354 1032 l 331 1032 l 482 1229 l 510 1229 l 661 1032 l 638 1032 m 496 931 q 718 873 624 931 q 863 709 813 815 q 914 458 914 603 q 863 208 914 314 q 718 44 813 101 q 496 -14 624 -14 q 274 44 368 -14 q 128 208 179 101 q 78 458 78 314 q 128 709 78 603 q 274 873 179 815 q 496 931 368 931 m 496 911 q 285 856 375 911 q 148 698 196 800 q 100 458 100 596 q 148 219 100 321 q 285 61 196 117 q 496 6 375 6 q 706 61 617 6 q 844 219 796 117 q 892 458 892 321 q 844 698 892 596 q 706 856 796 800 q 496 911 617 911 z "},"Ö":{"ha":992,"x_min":78,"x_max":914,"o":"m 496 931 q 718 873 624 931 q 863 709 813 815 q 914 458 914 603 q 863 208 914 314 q 718 44 813 101 q 496 -14 624 -14 q 274 44 368 -14 q 128 208 179 101 q 78 458 78 314 q 128 709 78 603 q 274 873 179 815 q 496 931 368 931 m 496 911 q 285 856 375 911 q 148 698 196 800 q 100 458 100 596 q 148 219 100 321 q 285 61 196 117 q 496 6 375 6 q 706 61 617 6 q 844 219 796 117 q 892 458 892 321 q 844 698 892 596 q 706 856 796 800 q 496 911 617 911 m 367 1114 q 389 1106 381 1114 q 397 1083 397 1097 q 389 1061 397 1069 q 367 1053 381 1053 q 344 1061 353 1053 q 336 1083 336 1069 q 344 1106 336 1097 q 367 1114 353 1114 m 622 1114 q 644 1106 636 1114 q 653 1083 653 1097 q 644 1061 653 1069 q 622 1053 636 1053 q 600 1061 608 1053 q 592 1083 592 1069 q 600 1106 592 1097 q 622 1114 608 1114 z "},"Ò":{"ha":992,"x_min":78,"x_max":914,"o":"m 493 1032 l 472 1032 l 364 1238 l 389 1238 l 493 1032 m 496 931 q 718 873 624 931 q 863 709 813 815 q 914 458 914 603 q 863 208 914 314 q 718 44 813 101 q 496 -14 624 -14 q 274 44 368 -14 q 128 208 179 101 q 78 458 78 314 q 128 709 78 603 q 274 873 179 815 q 496 931 368 931 m 496 911 q 285 856 375 911 q 148 698 196 800 q 100 458 100 596 q 148 219 100 321 q 285 61 196 117 q 496 6 375 6 q 706 61 617 6 q 844 219 796 117 q 892 458 892 321 q 844 698 892 596 q 706 856 796 800 q 496 911 617 911 z "},"Ő":{"ha":992,"x_min":78,"x_max":914,"o":"m 525 1238 l 417 1032 l 396 1032 l 500 1238 l 525 1238 m 689 1238 l 581 1032 l 560 1032 l 664 1238 l 689 1238 m 496 931 q 718 873 624 931 q 863 709 813 815 q 914 458 914 603 q 863 208 914 314 q 718 44 813 101 q 496 -14 624 -14 q 274 44 368 -14 q 128 208 179 101 q 78 458 78 314 q 128 709 78 603 q 274 873 179 815 q 496 931 368 931 m 496 911 q 285 856 375 911 q 148 698 196 800 q 100 458 100 596 q 148 219 100 321 q 285 61 196 117 q 496 6 375 6 q 706 61 617 6 q 844 219 796 117 q 892 458 892 321 q 844 698 892 596 q 706 856 796 800 q 496 911 617 911 z "},"Ō":{"ha":992,"x_min":78,"x_max":914,"o":"m 496 931 q 718 873 624 931 q 863 709 813 815 q 914 458 914 603 q 863 208 914 314 q 718 44 813 101 q 496 -14 624 -14 q 274 44 368 -14 q 128 208 179 101 q 78 458 78 314 q 128 709 78 603 q 274 873 179 815 q 496 931 368 931 m 496 911 q 285 856 375 911 q 148 698 196 800 q 100 458 100 596 q 148 219 100 321 q 285 61 196 117 q 496 6 375 6 q 706 61 617 6 q 844 219 796 117 q 892 458 892 321 q 844 698 892 596 q 706 856 796 800 q 496 911 617 911 m 696 1063 l 296 1063 l 296 1082 l 696 1082 l 696 1063 z "},"Ø":{"ha":992,"x_min":78,"x_max":914,"o":"m 778 828 q 879 672 844 765 q 914 458 914 578 q 863 208 914 314 q 718 44 813 101 q 496 -14 624 -14 q 231 75 336 -14 l 147 -42 l 119 -42 l 215 89 q 113 245 149 151 q 78 458 78 339 q 128 709 78 603 q 274 873 179 815 q 496 931 368 931 q 761 843 654 931 l 844 958 l 872 958 l 778 828 m 100 458 q 133 255 100 344 q 228 106 165 165 l 749 825 q 496 911 646 911 q 285 856 375 911 q 148 698 196 800 q 100 458 100 596 m 496 6 q 706 61 617 6 q 844 219 796 117 q 892 458 892 321 q 859 662 892 572 q 764 811 826 751 l 243 92 q 496 6 344 6 z "},"Õ":{"ha":992,"x_min":78,"x_max":914,"o":"m 496 931 q 718 873 624 931 q 863 709 813 815 q 914 458 914 603 q 863 208 914 314 q 718 44 813 101 q 496 -14 624 -14 q 274 44 368 -14 q 128 208 179 101 q 78 458 78 314 q 128 709 78 603 q 274 873 179 815 q 496 931 368 931 m 496 911 q 285 856 375 911 q 148 698 196 800 q 100 458 100 596 q 148 219 100 321 q 285 61 196 117 q 496 6 375 6 q 706 61 617 6 q 844 219 796 117 q 892 458 892 321 q 844 698 892 596 q 706 856 796 800 q 496 911 617 911 m 717 1171 q 678 1082 706 1110 q 599 1054 650 1054 q 538 1067 561 1054 q 489 1104 515 1079 q 444 1139 464 1128 q 394 1150 425 1150 q 330 1127 350 1150 q 299 1053 310 1104 l 278 1053 q 317 1142 289 1114 q 396 1169 344 1169 q 456 1157 433 1169 q 506 1119 479 1144 q 548 1085 528 1097 q 599 1074 568 1074 q 664 1097 643 1074 q 696 1171 685 1119 l 717 1171 z "},"Œ":{"ha":1458,"x_min":78,"x_max":1417,"o":"m 1417 19 l 1417 0 l 822 0 l 822 260 q 703 54 790 122 q 468 -14 617 -14 q 263 44 351 -14 q 126 208 174 101 q 78 458 78 315 q 126 708 78 601 q 263 873 174 815 q 468 931 351 931 q 703 863 617 931 q 822 657 790 794 l 822 917 l 1393 917 l 1393 897 l 844 897 l 844 478 l 1293 478 l 1293 458 l 844 458 l 844 19 l 1417 19 m 468 6 q 738 116 654 6 q 822 458 822 226 q 738 801 822 690 q 468 911 654 911 q 275 856 358 911 q 146 698 192 800 q 100 458 100 596 q 146 219 100 321 q 275 61 192 117 q 468 6 358 6 z "},"P":{"ha":779,"x_min":138,"x_max":733,"o":"m 421 917 q 651 849 568 917 q 733 660 733 781 q 651 472 733 539 q 421 404 568 404 l 160 404 l 160 0 l 138 0 l 138 917 l 421 917 m 421 424 q 634 486 557 424 q 711 660 711 549 q 634 834 711 771 q 421 897 557 897 l 160 897 l 160 424 l 421 424 z "},"Þ":{"ha":788,"x_min":138,"x_max":732,"o":"m 408 729 q 650 665 568 729 q 732 472 732 600 q 650 280 732 344 q 408 215 568 215 l 160 215 l 160 0 l 138 0 l 138 917 l 160 917 l 160 729 l 408 729 m 421 235 q 637 294 564 235 q 710 472 710 354 q 637 650 710 590 q 421 710 564 710 l 160 710 l 160 235 l 421 235 z "},"Q":{"ha":992,"x_min":78,"x_max":914,"o":"m 744 -251 q 889 -200 839 -251 l 900 -218 q 744 -271 844 -271 q 570 -203 639 -271 q 494 -14 501 -135 q 274 44 368 -14 q 128 208 179 101 q 78 458 78 314 q 128 709 78 603 q 274 873 179 815 q 496 931 368 931 q 718 873 624 931 q 863 709 813 815 q 914 458 914 603 q 865 213 914 318 q 726 49 817 107 q 514 -14 636 -10 q 583 -190 521 -128 q 744 -251 646 -251 m 100 458 q 148 219 100 321 q 285 61 196 117 q 496 6 375 6 q 706 61 617 6 q 844 219 796 117 q 892 458 892 321 q 844 698 892 596 q 706 856 796 800 q 496 911 617 911 q 285 856 375 911 q 148 698 196 800 q 100 458 100 596 z "},"R":{"ha":849,"x_min":138,"x_max":800,"o":"m 775 0 l 497 418 q 469 417 489 417 l 160 417 l 160 0 l 138 0 l 138 917 l 469 917 q 682 850 604 917 q 760 667 760 783 q 697 498 760 563 q 524 419 635 433 l 800 0 l 775 0 m 469 436 q 667 497 596 436 q 738 667 738 558 q 667 836 738 775 q 469 897 596 897 l 160 897 l 160 436 l 469 436 z "},"Ŕ":{"ha":849,"x_min":138,"x_max":800,"o":"m 426 1032 l 406 1032 l 510 1238 l 535 1238 l 426 1032 m 775 0 l 497 418 q 469 417 489 417 l 160 417 l 160 0 l 138 0 l 138 917 l 469 917 q 682 850 604 917 q 760 667 760 783 q 697 498 760 563 q 524 419 635 433 l 800 0 l 775 0 m 469 436 q 667 497 596 436 q 738 667 738 558 q 667 836 738 775 q 469 897 596 897 l 160 897 l 160 436 l 469 436 z "},"Ř":{"ha":849,"x_min":138,"x_max":800,"o":"m 393 1032 l 242 1229 l 265 1229 l 407 1050 l 549 1229 l 572 1229 l 421 1032 l 393 1032 m 775 0 l 497 418 q 469 417 489 417 l 160 417 l 160 0 l 138 0 l 138 917 l 469 917 q 682 850 604 917 q 760 667 760 783 q 697 498 760 563 q 524 419 635 433 l 800 0 l 775 0 m 469 436 q 667 497 596 436 q 738 667 738 558 q 667 836 738 775 q 469 897 596 897 l 160 897 l 160 436 l 469 436 z "},"S":{"ha":825,"x_min":58,"x_max":761,"o":"m 410 931 q 744 718 682 931 l 726 704 q 410 911 672 911 q 250 881 319 911 q 143 799 181 851 q 106 683 106 747 q 136 581 106 622 q 239 511 167 540 q 439 460 311 482 q 628 409 557 439 q 730 334 699 379 q 761 222 761 289 q 719 100 761 154 q 601 16 676 46 q 429 -14 526 -14 q 180 47 279 -14 q 58 231 81 108 l 79 242 q 192 65 97 125 q 429 6 288 6 q 651 63 563 6 q 739 222 739 121 q 670 360 739 310 q 435 438 601 410 q 225 491 301 460 q 116 568 149 522 q 83 683 83 614 q 123 806 83 750 q 237 897 163 863 q 410 931 311 931 z "},"Ś":{"ha":825,"x_min":58,"x_max":761,"o":"m 531 1238 l 422 1032 l 401 1032 l 506 1238 l 531 1238 m 410 931 q 744 718 682 931 l 726 704 q 410 911 672 911 q 250 881 319 911 q 143 799 181 851 q 106 683 106 747 q 136 581 106 622 q 239 511 167 540 q 439 460 311 482 q 628 409 557 439 q 730 334 699 379 q 761 222 761 289 q 719 100 761 154 q 601 16 676 46 q 429 -14 526 -14 q 180 47 279 -14 q 58 231 81 108 l 79 242 q 192 65 97 125 q 429 6 288 6 q 651 63 563 6 q 739 222 739 121 q 670 360 739 310 q 435 438 601 410 q 225 491 301 460 q 116 568 149 522 q 83 683 83 614 q 123 806 83 750 q 237 897 163 863 q 410 931 311 931 z "},"Š":{"ha":825,"x_min":58,"x_max":761,"o":"m 417 1032 l 389 1032 l 238 1229 l 261 1229 l 403 1050 l 544 1229 l 568 1229 l 417 1032 m 410 931 q 744 718 682 931 l 726 704 q 410 911 672 911 q 250 881 319 911 q 143 799 181 851 q 106 683 106 747 q 136 581 106 622 q 239 511 167 540 q 439 460 311 482 q 628 409 557 439 q 730 334 699 379 q 761 222 761 289 q 719 100 761 154 q 601 16 676 46 q 429 -14 526 -14 q 180 47 279 -14 q 58 231 81 108 l 79 242 q 192 65 97 125 q 429 6 288 6 q 651 63 563 6 q 739 222 739 121 q 670 360 739 310 q 435 438 601 410 q 225 491 301 460 q 116 568 149 522 q 83 683 83 614 q 123 806 83 750 q 237 897 163 863 q 410 931 311 931 z "},"ẞ":{"ha":888,"x_min":138,"x_max":826,"o":"m 543 478 q 757 423 688 478 q 826 250 826 368 q 755 64 826 135 q 564 -7 683 -7 q 433 17 490 -7 q 356 76 376 42 l 371 93 q 442 34 393 57 q 564 11 492 11 q 738 78 671 11 q 804 250 804 144 q 741 408 804 358 q 543 458 678 458 l 415 458 l 415 478 l 753 897 l 432 897 q 233 819 307 897 q 160 614 160 742 l 160 0 l 138 0 l 138 615 q 216 835 138 753 q 432 917 294 917 l 778 917 l 778 896 l 440 478 l 543 478 z "},"T":{"ha":756,"x_min":15,"x_max":740,"o":"m 740 897 l 389 897 l 389 0 l 367 0 l 367 897 l 15 897 l 15 917 l 740 917 l 740 897 z "},"Ť":{"ha":756,"x_min":15,"x_max":740,"o":"m 364 1032 l 213 1229 l 236 1229 l 378 1050 l 519 1229 l 543 1229 l 392 1032 l 364 1032 m 740 897 l 389 897 l 389 0 l 367 0 l 367 897 l 15 897 l 15 917 l 740 917 l 740 897 z "},"U":{"ha":944,"x_min":126,"x_max":818,"o":"m 818 326 q 727 75 818 164 q 472 -14 636 -14 q 217 75 308 -14 q 126 326 126 164 l 126 917 l 149 917 l 149 326 q 234 90 149 174 q 472 6 319 6 q 710 90 625 6 q 796 326 796 174 l 796 917 l 818 917 l 818 326 z "},"Ú":{"ha":944,"x_min":126,"x_max":818,"o":"m 600 1238 l 492 1032 l 471 1032 l 575 1238 l 600 1238 m 818 326 q 727 75 818 164 q 472 -14 636 -14 q 217 75 308 -14 q 126 326 126 164 l 126 917 l 149 917 l 149 326 q 234 90 149 174 q 472 6 319 6 q 710 90 625 6 q 796 326 796 174 l 796 917 l 818 917 l 818 326 z "},"Û":{"ha":944,"x_min":126,"x_max":818,"o":"m 614 1032 l 472 1211 l 331 1032 l 307 1032 l 458 1229 l 486 1229 l 638 1032 l 614 1032 m 818 326 q 727 75 818 164 q 472 -14 636 -14 q 217 75 308 -14 q 126 326 126 164 l 126 917 l 149 917 l 149 326 q 234 90 149 174 q 472 6 319 6 q 710 90 625 6 q 796 326 796 174 l 796 917 l 818 917 l 818 326 z "},"Ü":{"ha":944,"x_min":126,"x_max":818,"o":"m 818 326 q 727 75 818 164 q 472 -14 636 -14 q 217 75 308 -14 q 126 326 126 164 l 126 917 l 149 917 l 149 326 q 234 90 149 174 q 472 6 319 6 q 710 90 625 6 q 796 326 796 174 l 796 917 l 818 917 l 818 326 m 343 1114 q 365 1106 357 1114 q 374 1083 374 1097 q 365 1061 374 1069 q 343 1053 357 1053 q 321 1061 329 1053 q 313 1083 313 1069 q 321 1106 313 1097 q 343 1114 329 1114 m 599 1114 q 621 1106 613 1114 q 629 1083 629 1097 q 621 1061 629 1069 q 599 1053 613 1053 q 576 1061 585 1053 q 568 1083 568 1069 q 576 1106 568 1097 q 599 1114 585 1114 z "},"Ù":{"ha":944,"x_min":126,"x_max":818,"o":"m 497 1032 l 476 1032 l 368 1238 l 393 1238 l 497 1032 m 818 326 q 727 75 818 164 q 472 -14 636 -14 q 217 75 308 -14 q 126 326 126 164 l 126 917 l 149 917 l 149 326 q 234 90 149 174 q 472 6 319 6 q 710 90 625 6 q 796 326 796 174 l 796 917 l 818 917 l 818 326 z "},"Ű":{"ha":944,"x_min":126,"x_max":818,"o":"m 511 1238 l 403 1032 l 382 1032 l 486 1238 l 511 1238 m 675 1238 l 567 1032 l 546 1032 l 650 1238 l 675 1238 m 818 326 q 727 75 818 164 q 472 -14 636 -14 q 217 75 308 -14 q 126 326 126 164 l 126 917 l 149 917 l 149 326 q 234 90 149 174 q 472 6 319 6 q 710 90 625 6 q 796 326 796 174 l 796 917 l 818 917 l 818 326 z "},"Ū":{"ha":944,"x_min":126,"x_max":818,"o":"m 818 326 q 727 75 818 164 q 472 -14 636 -14 q 217 75 308 -14 q 126 326 126 164 l 126 917 l 149 917 l 149 326 q 234 90 149 174 q 472 6 319 6 q 710 90 625 6 q 796 326 796 174 l 796 917 l 818 917 l 818 326 m 672 1063 l 272 1063 l 272 1082 l 672 1082 l 672 1063 z "},"Ų":{"ha":944,"x_min":126,"x_max":818,"o":"m 818 917 l 818 326 q 753 105 818 190 q 571 -4 689 19 q 446 -85 482 -46 q 410 -172 410 -124 q 438 -238 410 -215 q 511 -261 467 -261 q 610 -233 575 -261 l 618 -251 q 574 -273 599 -265 q 511 -281 550 -281 q 424 -252 458 -281 q 389 -172 389 -224 q 419 -85 389 -124 q 522 -11 450 -47 q 472 -14 489 -14 q 217 75 308 -14 q 126 326 126 164 l 126 917 l 149 917 l 149 326 q 234 90 149 174 q 472 6 319 6 q 710 90 625 6 q 796 326 796 174 l 796 917 l 818 917 z "},"Ů":{"ha":944,"x_min":126,"x_max":818,"o":"m 818 326 q 727 75 818 164 q 472 -14 636 -14 q 217 75 308 -14 q 126 326 126 164 l 126 917 l 149 917 l 149 326 q 234 90 149 174 q 472 6 319 6 q 710 90 625 6 q 796 326 796 174 l 796 917 l 818 917 l 818 326 m 472 1119 q 553 1088 521 1119 q 586 1008 586 1056 q 553 929 586 961 q 472 897 521 897 q 391 929 424 897 q 358 1008 358 961 q 391 1088 358 1056 q 472 1119 424 1119 m 472 1100 q 407 1074 433 1100 q 381 1008 381 1047 q 407 943 381 969 q 472 917 433 917 q 538 943 511 917 q 564 1008 564 969 q 538 1074 564 1047 q 472 1100 511 1100 z "},"V":{"ha":800,"x_min":24,"x_max":776,"o":"m 415 0 l 385 0 l 24 917 l 47 917 l 363 121 l 400 25 l 438 121 l 753 917 l 776 917 l 415 0 z "},"W":{"ha":1263,"x_min":32,"x_max":1231,"o":"m 364 0 l 335 0 l 32 917 l 56 917 l 350 22 l 617 917 l 646 917 l 913 22 l 1207 917 l 1231 917 l 928 0 l 899 0 l 632 886 l 631 886 l 575 697 l 364 0 z "},"X":{"ha":731,"x_min":17,"x_max":707,"o":"m 679 0 l 365 453 l 46 0 l 17 0 l 351 475 l 46 917 l 74 917 l 365 494 l 664 917 l 694 917 l 381 472 l 707 0 l 679 0 z "},"Y":{"ha":711,"x_min":22,"x_max":689,"o":"m 367 356 l 367 0 l 344 0 l 344 356 l 22 917 l 49 917 l 356 379 l 663 917 l 689 917 l 367 356 z "},"Ý":{"ha":711,"x_min":22,"x_max":689,"o":"m 483 1238 l 375 1032 l 354 1032 l 458 1238 l 483 1238 m 367 356 l 367 0 l 344 0 l 344 356 l 22 917 l 49 917 l 356 379 l 663 917 l 689 917 l 367 356 z "},"Ÿ":{"ha":711,"x_min":22,"x_max":689,"o":"m 367 356 l 367 0 l 344 0 l 344 356 l 22 917 l 49 917 l 356 379 l 663 917 l 689 917 l 367 356 m 226 1114 q 249 1106 240 1114 q 257 1083 257 1097 q 249 1061 257 1069 q 226 1053 240 1053 q 204 1061 213 1053 q 196 1083 196 1069 q 204 1106 196 1097 q 226 1114 213 1114 m 482 1114 q 504 1106 496 1114 q 513 1083 513 1097 q 504 1061 513 1069 q 482 1053 496 1053 q 460 1061 468 1053 q 451 1083 451 1069 q 460 1106 451 1097 q 482 1114 468 1114 z "},"Z":{"ha":767,"x_min":40,"x_max":733,"o":"m 733 19 l 733 0 l 40 0 l 40 19 l 681 897 l 50 897 l 50 917 l 706 917 l 706 897 l 65 19 l 733 19 z "},"Ź":{"ha":767,"x_min":40,"x_max":733,"o":"m 404 1032 l 383 1032 l 488 1238 l 513 1238 l 404 1032 m 733 19 l 733 0 l 40 0 l 40 19 l 681 897 l 50 897 l 50 917 l 706 917 l 706 897 l 65 19 l 733 19 z "},"Ž":{"ha":767,"x_min":40,"x_max":733,"o":"m 371 1032 l 219 1229 l 243 1229 l 385 1050 l 526 1229 l 550 1229 l 399 1032 l 371 1032 m 733 19 l 733 0 l 40 0 l 40 19 l 681 897 l 50 897 l 50 917 l 706 917 l 706 897 l 65 19 l 733 19 z "},"Ż":{"ha":767,"x_min":40,"x_max":733,"o":"m 733 19 l 733 0 l 40 0 l 40 19 l 681 897 l 50 897 l 50 917 l 706 917 l 706 897 l 65 19 l 733 19 m 385 1114 q 407 1106 399 1114 q 415 1083 415 1097 q 407 1061 415 1069 q 385 1053 399 1053 q 363 1061 371 1053 q 354 1083 354 1069 q 363 1106 354 1097 q 385 1114 371 1114 z "},"Ģ":{"ha":939,"x_min":78,"x_max":847,"o":"m 847 432 l 847 0 l 825 0 l 825 221 q 708 49 797 111 q 479 -14 619 -14 q 267 44 358 -14 q 127 208 176 101 q 78 458 78 315 q 128 708 78 601 q 271 873 179 815 q 485 931 363 931 q 840 689 772 931 l 821 679 q 703 853 786 796 q 485 911 619 911 q 283 856 369 911 q 148 698 196 800 q 100 458 100 596 q 147 219 100 321 q 280 61 194 117 q 479 6 365 6 q 685 60 607 6 q 794 190 763 114 q 825 339 825 267 l 825 413 l 490 413 l 490 432 l 847 432 m 421 -318 l 403 -318 l 472 -94 l 497 -94 l 421 -318 z "},"Ķ":{"ha":774,"x_min":138,"x_max":756,"o":"m 365 533 l 160 325 l 160 0 l 138 0 l 138 917 l 160 917 l 160 357 l 710 917 l 742 917 l 382 550 l 756 0 l 726 0 l 365 533 m 376 -318 l 358 -318 l 428 -94 l 453 -94 l 376 -318 z "},"Ļ":{"ha":754,"x_min":138,"x_max":738,"o":"m 738 19 l 738 0 l 138 0 l 138 917 l 160 917 l 160 19 l 738 19 m 393 -318 l 375 -318 l 444 -94 l 469 -94 l 393 -318 z "},"Ņ":{"ha":964,"x_min":138,"x_max":826,"o":"m 826 0 l 796 0 l 194 840 l 158 894 l 160 815 l 160 0 l 138 0 l 138 917 l 168 917 l 769 76 l 806 22 l 804 101 l 804 917 l 826 917 l 826 0 m 415 -318 l 397 -318 l 467 -94 l 492 -94 l 415 -318 z "},"Ŗ":{"ha":849,"x_min":138,"x_max":800,"o":"m 775 0 l 497 418 q 469 417 489 417 l 160 417 l 160 0 l 138 0 l 138 917 l 469 917 q 682 850 604 917 q 760 667 760 783 q 697 498 760 563 q 524 419 635 433 l 800 0 l 775 0 m 469 436 q 667 497 596 436 q 738 667 738 558 q 667 836 738 775 q 469 897 596 897 l 160 897 l 160 436 l 469 436 m 414 -318 l 396 -318 l 465 -94 l 490 -94 l 414 -318 z "},"Ş":{"ha":825,"x_min":58,"x_max":761,"o":"m 761 222 q 719 100 761 154 q 601 16 676 46 q 429 -14 526 -14 l 414 -14 q 501 -83 476 -49 q 526 -164 526 -118 q 492 -248 526 -215 q 404 -281 458 -281 q 328 -267 360 -281 q 274 -222 297 -254 l 285 -206 q 338 -250 310 -237 q 404 -262 367 -262 q 477 -235 449 -262 q 506 -165 506 -208 q 478 -88 506 -124 q 379 -12 451 -53 q 164 58 249 -3 q 58 231 79 119 l 79 242 q 192 65 97 125 q 429 6 288 6 q 651 63 563 6 q 739 222 739 121 q 670 360 739 310 q 435 438 601 410 q 225 491 301 460 q 116 568 149 522 q 83 683 83 614 q 123 806 83 750 q 237 897 163 863 q 410 931 311 931 q 744 718 682 931 l 726 704 q 410 911 672 911 q 250 881 319 911 q 143 799 181 851 q 106 683 106 747 q 136 581 106 622 q 239 511 167 540 q 439 460 311 482 q 628 409 557 439 q 730 334 699 379 q 761 222 761 289 z "},"Ţ":{"ha":756,"x_min":15,"x_max":740,"o":"m 389 897 l 389 3 q 476 -72 449 -33 q 504 -162 504 -110 q 470 -248 504 -215 q 381 -281 436 -281 q 304 -265 335 -281 q 251 -219 274 -249 l 264 -206 q 314 -249 288 -235 q 381 -262 340 -262 q 456 -235 428 -262 q 483 -162 483 -207 q 456 -76 483 -112 q 367 0 428 -39 l 367 897 l 15 897 l 15 917 l 740 917 l 740 897 l 389 897 z "},"Ș":{"ha":825,"x_min":58,"x_max":761,"o":"m 410 931 q 744 718 682 931 l 726 704 q 410 911 672 911 q 250 881 319 911 q 143 799 181 851 q 106 683 106 747 q 136 581 106 622 q 239 511 167 540 q 439 460 311 482 q 628 409 557 439 q 730 334 699 379 q 761 222 761 289 q 719 100 761 154 q 601 16 676 46 q 429 -14 526 -14 q 180 47 279 -14 q 58 231 81 108 l 79 242 q 192 65 97 125 q 429 6 288 6 q 651 63 563 6 q 739 222 739 121 q 670 360 739 310 q 435 438 601 410 q 225 491 301 460 q 116 568 149 522 q 83 683 83 614 q 123 806 83 750 q 237 897 163 863 q 410 931 311 931 m 365 -318 l 347 -318 l 417 -94 l 442 -94 l 365 -318 z "},"Ț":{"ha":756,"x_min":15,"x_max":740,"o":"m 740 897 l 389 897 l 389 0 l 367 0 l 367 897 l 15 897 l 15 917 l 740 917 l 740 897 m 317 -318 l 299 -318 l 368 -94 l 393 -94 l 317 -318 z "},"a":{"ha":718,"x_min":64,"x_max":717,"o":"m 664 6 q 717 18 700 6 l 715 -1 q 665 -14 697 -14 q 594 14 624 -14 q 565 114 565 42 l 565 133 q 456 24 538 63 q 281 -14 375 -14 q 122 29 179 -14 q 64 150 64 72 q 124 279 64 232 q 319 351 183 326 l 565 397 l 565 483 q 508 635 565 581 q 344 689 451 689 q 188 650 249 689 q 96 525 126 611 l 78 539 q 175 667 110 625 q 344 708 240 708 q 525 651 463 708 q 588 483 588 593 l 588 106 q 608 31 588 56 q 664 6 628 6 m 288 6 q 412 28 347 6 q 521 97 476 50 q 565 210 565 143 l 565 378 l 335 335 q 144 265 201 310 q 86 150 86 221 q 140 44 86 82 q 288 6 193 6 z "},"á":{"ha":718,"x_min":64,"x_max":717,"o":"m 664 6 q 717 18 700 6 l 715 -1 q 665 -14 697 -14 q 594 14 624 -14 q 565 114 565 42 l 565 133 q 456 24 538 63 q 281 -14 375 -14 q 122 29 179 -14 q 64 150 64 72 q 124 279 64 232 q 319 351 183 326 l 565 397 l 565 483 q 508 635 565 581 q 344 689 451 689 q 188 650 249 689 q 96 525 126 611 l 78 539 q 175 667 110 625 q 344 708 240 708 q 525 651 463 708 q 588 483 588 593 l 588 106 q 608 31 588 56 q 664 6 628 6 m 288 6 q 412 28 347 6 q 521 97 476 50 q 565 210 565 143 l 565 378 l 335 335 q 144 265 201 310 q 86 150 86 221 q 140 44 86 82 q 288 6 193 6 m 469 1014 l 347 810 l 326 810 l 444 1014 l 469 1014 z "},"ă":{"ha":718,"x_min":64,"x_max":717,"o":"m 664 6 q 717 18 700 6 l 715 -1 q 665 -14 697 -14 q 594 14 624 -14 q 565 114 565 42 l 565 133 q 456 24 538 63 q 281 -14 375 -14 q 122 29 179 -14 q 64 150 64 72 q 124 279 64 232 q 319 351 183 326 l 565 397 l 565 483 q 508 635 565 581 q 344 689 451 689 q 188 650 249 689 q 96 525 126 611 l 78 539 q 175 667 110 625 q 344 708 240 708 q 525 651 463 708 q 588 483 588 593 l 588 106 q 608 31 588 56 q 664 6 628 6 m 288 6 q 412 28 347 6 q 521 97 476 50 q 565 210 565 143 l 565 378 l 335 335 q 144 265 201 310 q 86 150 86 221 q 140 44 86 82 q 288 6 193 6 m 504 975 q 460 851 504 896 q 336 807 415 807 q 213 851 257 807 q 168 975 168 896 l 188 975 q 228 867 188 907 q 336 826 268 826 q 444 867 404 826 q 485 975 485 907 l 504 975 z "},"â":{"ha":718,"x_min":64,"x_max":717,"o":"m 664 6 q 717 18 700 6 l 715 -1 q 665 -14 697 -14 q 594 14 624 -14 q 565 114 565 42 l 565 133 q 456 24 538 63 q 281 -14 375 -14 q 122 29 179 -14 q 64 150 64 72 q 124 279 64 232 q 319 351 183 326 l 565 397 l 565 483 q 508 635 565 581 q 344 689 451 689 q 188 650 249 689 q 96 525 126 611 l 78 539 q 175 667 110 625 q 344 708 240 708 q 525 651 463 708 q 588 483 588 593 l 588 106 q 608 31 588 56 q 664 6 628 6 m 288 6 q 412 28 347 6 q 521 97 476 50 q 565 210 565 143 l 565 378 l 335 335 q 144 265 201 310 q 86 150 86 221 q 140 44 86 82 q 288 6 193 6 m 475 810 l 336 989 l 197 810 l 174 810 l 324 1007 l 349 1007 l 499 810 l 475 810 z "},"ä":{"ha":718,"x_min":64,"x_max":717,"o":"m 664 6 q 717 18 700 6 l 715 -1 q 665 -14 697 -14 q 594 14 624 -14 q 565 114 565 42 l 565 133 q 456 24 538 63 q 281 -14 375 -14 q 122 29 179 -14 q 64 150 64 72 q 124 279 64 232 q 319 351 183 326 l 565 397 l 565 483 q 508 635 565 581 q 344 689 451 689 q 188 650 249 689 q 96 525 126 611 l 78 539 q 175 667 110 625 q 344 708 240 708 q 525 651 463 708 q 588 483 588 593 l 588 106 q 608 31 588 56 q 664 6 628 6 m 288 6 q 412 28 347 6 q 521 97 476 50 q 565 210 565 143 l 565 378 l 335 335 q 144 265 201 310 q 86 150 86 221 q 140 44 86 82 q 288 6 193 6 m 207 892 q 229 883 221 892 q 238 861 238 875 q 229 839 238 847 q 207 831 221 831 q 185 839 193 831 q 176 861 176 847 q 185 883 176 875 q 207 892 193 892 m 463 892 q 485 883 476 892 q 493 861 493 875 q 485 839 493 847 q 463 831 476 831 q 440 839 449 831 q 432 861 432 847 q 440 883 432 875 q 463 892 449 892 z "},"à":{"ha":718,"x_min":64,"x_max":717,"o":"m 664 6 q 717 18 700 6 l 715 -1 q 665 -14 697 -14 q 594 14 624 -14 q 565 114 565 42 l 565 133 q 456 24 538 63 q 281 -14 375 -14 q 122 29 179 -14 q 64 150 64 72 q 124 279 64 232 q 319 351 183 326 l 565 397 l 565 483 q 508 635 565 581 q 344 689 451 689 q 188 650 249 689 q 96 525 126 611 l 78 539 q 175 667 110 625 q 344 708 240 708 q 525 651 463 708 q 588 483 588 593 l 588 106 q 608 31 588 56 q 664 6 628 6 m 288 6 q 412 28 347 6 q 521 97 476 50 q 565 210 565 143 l 565 378 l 335 335 q 144 265 201 310 q 86 150 86 221 q 140 44 86 82 q 288 6 193 6 m 351 810 l 331 810 l 208 1014 l 233 1014 l 351 810 z "},"ā":{"ha":718,"x_min":64,"x_max":717,"o":"m 664 6 q 717 18 700 6 l 715 -1 q 665 -14 697 -14 q 594 14 624 -14 q 565 114 565 42 l 565 133 q 456 24 538 63 q 281 -14 375 -14 q 122 29 179 -14 q 64 150 64 72 q 124 279 64 232 q 319 351 183 326 l 565 397 l 565 483 q 508 635 565 581 q 344 689 451 689 q 188 650 249 689 q 96 525 126 611 l 78 539 q 175 667 110 625 q 344 708 240 708 q 525 651 463 708 q 588 483 588 593 l 588 106 q 608 31 588 56 q 664 6 628 6 m 288 6 q 412 28 347 6 q 521 97 476 50 q 565 210 565 143 l 565 378 l 335 335 q 144 265 201 310 q 86 150 86 221 q 140 44 86 82 q 288 6 193 6 m 536 840 l 136 840 l 136 860 l 536 860 l 536 840 z "},"ą":{"ha":718,"x_min":64,"x_max":717,"o":"m 715 -1 q 563 -85 607 -47 q 518 -175 518 -122 q 547 -237 518 -214 q 619 -261 576 -261 q 673 -256 654 -261 q 707 -239 692 -251 l 715 -257 q 676 -275 697 -269 q 619 -281 656 -281 q 533 -252 568 -281 q 497 -175 497 -224 q 534 -85 497 -124 q 653 -14 571 -47 q 565 114 565 -4 l 565 133 q 456 24 538 63 q 281 -14 375 -14 q 122 29 179 -14 q 64 150 64 72 q 124 279 64 232 q 319 351 183 326 l 565 397 l 565 483 q 508 635 565 581 q 344 689 451 689 q 189 649 250 689 q 96 525 128 610 l 78 539 q 175 667 110 625 q 344 708 240 708 q 525 651 463 708 q 588 483 588 593 l 588 106 q 608 31 588 56 q 664 6 628 6 q 717 18 700 6 l 715 -1 m 288 6 q 412 28 347 6 q 521 97 476 50 q 565 210 565 143 l 565 378 l 335 335 q 144 265 201 310 q 86 150 86 221 q 140 44 86 82 q 288 6 193 6 z "},"å":{"ha":718,"x_min":64,"x_max":717,"o":"m 664 6 q 717 18 700 6 l 715 -1 q 665 -14 697 -14 q 594 14 624 -14 q 565 114 565 42 l 565 133 q 456 24 538 63 q 281 -14 375 -14 q 122 29 179 -14 q 64 150 64 72 q 124 279 64 232 q 319 351 183 326 l 565 397 l 565 483 q 508 635 565 581 q 344 689 451 689 q 188 650 249 689 q 96 525 126 611 l 78 539 q 175 667 110 625 q 344 708 240 708 q 525 651 463 708 q 588 483 588 593 l 588 106 q 608 31 588 56 q 664 6 628 6 m 288 6 q 412 28 347 6 q 521 97 476 50 q 565 210 565 143 l 565 378 l 335 335 q 144 265 201 310 q 86 150 86 221 q 140 44 86 82 q 288 6 193 6 m 333 1021 q 415 989 382 1021 q 447 910 447 957 q 415 831 447 863 q 333 799 382 799 q 252 831 285 799 q 219 910 219 863 q 252 989 219 957 q 333 1021 285 1021 m 333 1001 q 268 975 294 1001 q 242 910 242 949 q 268 844 242 871 q 333 818 294 818 q 399 844 372 818 q 425 910 425 871 q 399 975 425 949 q 333 1001 372 1001 z "},"ã":{"ha":718,"x_min":64,"x_max":717,"o":"m 664 6 q 717 18 700 6 l 715 -1 q 665 -14 697 -14 q 594 14 624 -14 q 565 114 565 42 l 565 133 q 456 24 538 63 q 281 -14 375 -14 q 122 29 179 -14 q 64 150 64 72 q 124 279 64 232 q 319 351 183 326 l 565 397 l 565 483 q 508 635 565 581 q 344 689 451 689 q 188 650 249 689 q 96 525 126 611 l 78 539 q 175 667 110 625 q 344 708 240 708 q 525 651 463 708 q 588 483 588 593 l 588 106 q 608 31 588 56 q 664 6 628 6 m 288 6 q 412 28 347 6 q 521 97 476 50 q 565 210 565 143 l 565 378 l 335 335 q 144 265 201 310 q 86 150 86 221 q 140 44 86 82 q 288 6 193 6 m 557 949 q 518 860 546 888 q 439 832 490 832 q 378 844 401 832 q 329 882 356 857 q 285 917 304 906 q 235 928 265 928 q 170 905 190 928 q 139 831 150 882 l 118 831 q 157 919 129 892 q 236 947 185 947 q 297 935 274 947 q 346 897 319 922 q 388 863 368 875 q 439 851 408 851 q 504 874 483 851 q 536 949 525 897 l 557 949 z "},"æ":{"ha":1203,"x_min":64,"x_max":1136,"o":"m 588 357 l 588 306 q 668 85 597 164 q 856 6 739 6 q 1106 161 1042 6 l 1124 151 q 856 -14 1054 -14 q 678 47 750 -14 q 579 219 606 108 q 481 42 568 99 q 281 -14 393 -14 q 123 28 182 -14 q 64 150 64 71 q 319 351 64 326 l 565 376 l 565 479 q 508 634 565 579 q 344 689 451 689 q 189 649 250 689 q 96 525 128 610 l 78 539 q 175 667 110 625 q 344 708 240 708 q 519 656 457 708 q 588 504 582 603 q 687 656 618 603 q 854 708 756 708 q 1065 623 993 708 q 1136 367 1136 538 l 1136 357 l 588 357 m 854 689 q 668 610 739 689 q 588 389 597 531 l 588 378 l 1117 378 q 1049 612 1114 535 q 854 689 983 689 m 288 6 q 414 30 350 6 q 522 111 478 54 q 565 261 565 168 l 565 356 l 335 335 q 145 274 204 322 q 86 150 86 225 q 142 42 86 79 q 288 6 199 6 z "},"b":{"ha":813,"x_min":118,"x_max":742,"o":"m 424 708 q 658 613 574 708 q 742 347 742 517 q 658 82 742 178 q 424 -14 574 -14 q 240 44 314 -14 q 140 208 167 103 l 140 0 l 118 0 l 118 1014 l 140 1014 l 140 489 q 241 651 167 594 q 424 708 315 708 m 419 6 q 640 96 561 6 q 719 347 719 186 q 640 599 719 508 q 419 689 561 689 q 216 599 292 689 q 140 351 140 508 l 140 342 q 216 96 140 186 q 419 6 292 6 z "},"c":{"ha":728,"x_min":71,"x_max":669,"o":"m 390 708 q 567 658 494 708 q 664 518 639 608 l 644 508 q 556 642 622 594 q 390 689 489 689 q 172 598 250 689 q 93 347 93 507 q 169 96 93 186 q 386 6 246 6 q 561 58 486 6 q 650 197 636 111 l 669 190 q 572 42 651 99 q 386 -14 493 -14 q 153 82 236 -14 q 71 347 71 178 q 156 613 71 517 q 390 708 240 708 z "},"ć":{"ha":728,"x_min":71,"x_max":669,"o":"m 390 708 q 567 658 494 708 q 664 518 639 608 l 644 508 q 556 642 622 594 q 390 689 489 689 q 172 598 250 689 q 93 347 93 507 q 169 96 93 186 q 386 6 246 6 q 561 58 486 6 q 650 197 636 111 l 669 190 q 572 42 651 99 q 386 -14 493 -14 q 153 82 236 -14 q 71 347 71 178 q 156 613 71 517 q 390 708 240 708 m 515 1014 l 393 810 l 372 810 l 490 1014 l 515 1014 z "},"č":{"ha":728,"x_min":71,"x_max":669,"o":"m 390 708 q 567 658 494 708 q 664 518 639 608 l 644 508 q 556 642 622 594 q 390 689 489 689 q 172 598 250 689 q 93 347 93 507 q 169 96 93 186 q 386 6 246 6 q 561 58 486 6 q 650 197 636 111 l 669 190 q 572 42 651 99 q 386 -14 493 -14 q 153 82 236 -14 q 71 347 71 178 q 156 613 71 517 q 390 708 240 708 m 394 810 l 369 810 l 219 1007 l 243 1007 l 382 828 l 521 1007 l 544 1007 l 394 810 z "},"ç":{"ha":728,"x_min":71,"x_max":669,"o":"m 669 190 q 572 42 651 99 q 386 -14 493 -14 l 385 -14 q 472 -83 447 -49 q 497 -164 497 -118 q 463 -248 497 -215 q 375 -281 429 -281 q 299 -267 331 -281 q 244 -222 268 -254 l 256 -206 q 309 -250 281 -237 q 375 -262 338 -262 q 448 -235 419 -262 q 476 -165 476 -208 q 450 -89 476 -124 q 351 -12 424 -54 q 144 93 217 -1 q 71 347 71 188 q 156 613 71 517 q 390 708 240 708 q 567 658 494 708 q 664 518 639 608 l 644 508 q 556 642 622 594 q 390 689 489 689 q 172 598 250 689 q 93 347 93 507 q 169 96 93 186 q 386 6 246 6 q 561 58 486 6 q 650 197 636 111 l 669 190 z "},"d":{"ha":813,"x_min":71,"x_max":694,"o":"m 694 1014 l 694 0 l 672 0 l 672 208 q 572 44 646 103 q 389 -14 499 -14 q 155 82 239 -14 q 71 347 71 178 q 155 613 71 517 q 389 708 239 708 q 572 651 497 708 q 672 489 646 594 l 672 1014 l 694 1014 m 393 6 q 597 96 521 6 q 672 342 672 186 l 672 351 q 597 599 672 508 q 393 689 521 689 q 172 599 251 689 q 93 347 93 508 q 172 96 93 186 q 393 6 251 6 z "},"ð":{"ha":801,"x_min":71,"x_max":736,"o":"m 581 853 q 710 393 710 685 q 628 89 710 192 q 399 -14 546 -14 q 224 28 299 -14 q 110 149 150 71 q 71 329 71 226 q 110 511 71 433 q 222 631 150 589 q 388 674 293 674 q 584 618 506 674 q 689 464 663 563 q 557 847 675 694 l 317 797 l 311 815 l 543 864 q 332 1014 460 964 l 375 1014 q 568 869 492 961 l 731 904 l 736 886 l 581 853 m 399 6 q 610 97 533 6 q 692 357 686 189 l 692 378 q 650 515 686 451 q 547 616 614 578 q 388 654 481 654 q 233 614 300 654 q 130 500 167 574 q 93 329 93 426 q 175 93 93 181 q 399 6 257 6 z "},"ď":{"ha":829,"x_min":71,"x_max":872,"o":"m 672 1014 l 694 1014 l 694 0 l 672 0 l 672 208 q 572 44 646 103 q 389 -14 499 -14 q 155 82 239 -14 q 71 347 71 178 q 155 613 71 517 q 389 708 239 708 q 572 651 497 708 q 672 489 646 594 l 672 1014 m 872 1014 l 832 740 l 813 740 l 849 1014 l 872 1014 m 393 6 q 597 96 521 6 q 672 342 672 186 l 672 351 q 597 599 672 508 q 393 689 521 689 q 172 599 251 689 q 93 347 93 508 q 172 96 93 186 q 393 6 251 6 z "},"đ":{"ha":813,"x_min":71,"x_max":829,"o":"m 829 825 l 694 825 l 694 0 l 672 0 l 672 208 q 572 44 646 103 q 389 -14 499 -14 q 155 82 239 -14 q 71 347 71 178 q 155 613 71 517 q 389 708 239 708 q 572 651 497 708 q 672 489 646 594 l 672 825 l 419 825 l 419 842 l 672 842 l 672 1014 l 694 1014 l 694 842 l 829 842 l 829 825 m 393 6 q 597 96 521 6 q 672 342 672 186 l 672 351 q 597 599 672 508 q 393 689 521 689 q 172 599 251 689 q 93 347 93 508 q 172 96 93 186 q 393 6 251 6 z "},"e":{"ha":742,"x_min":71,"x_max":675,"o":"m 675 332 l 93 332 q 175 92 97 178 q 389 6 253 6 q 547 47 476 6 q 651 161 617 89 l 669 151 q 558 30 633 74 q 389 -14 483 -14 q 155 82 239 -14 q 71 347 71 178 q 153 613 71 517 q 382 708 236 708 q 597 611 519 708 q 675 342 675 514 l 675 332 m 382 689 q 171 600 247 689 q 93 353 94 511 l 656 353 q 582 600 653 511 q 382 689 511 689 z "},"é":{"ha":742,"x_min":71,"x_max":675,"o":"m 675 332 l 93 332 q 175 92 97 178 q 389 6 253 6 q 547 47 476 6 q 651 161 617 89 l 669 151 q 558 30 633 74 q 389 -14 483 -14 q 155 82 239 -14 q 71 347 71 178 q 153 613 71 517 q 382 708 236 708 q 597 611 519 708 q 675 342 675 514 l 675 332 m 382 689 q 171 600 247 689 q 93 353 94 511 l 656 353 q 582 600 653 511 q 382 689 511 689 m 510 1014 l 388 810 l 367 810 l 485 1014 l 510 1014 z "},"ě":{"ha":742,"x_min":71,"x_max":675,"o":"m 675 332 l 93 332 q 175 92 97 178 q 389 6 253 6 q 547 47 476 6 q 651 161 617 89 l 669 151 q 558 30 633 74 q 389 -14 483 -14 q 155 82 239 -14 q 71 347 71 178 q 153 613 71 517 q 382 708 236 708 q 597 611 519 708 q 675 342 675 514 l 675 332 m 382 689 q 171 600 247 689 q 93 353 94 511 l 656 353 q 582 600 653 511 q 382 689 511 689 m 389 810 l 364 810 l 214 1007 l 238 1007 l 376 828 l 515 1007 l 539 1007 l 389 810 z "},"ê":{"ha":742,"x_min":71,"x_max":675,"o":"m 675 332 l 93 332 q 175 92 97 178 q 389 6 253 6 q 547 47 476 6 q 651 161 617 89 l 669 151 q 558 30 633 74 q 389 -14 483 -14 q 155 82 239 -14 q 71 347 71 178 q 153 613 71 517 q 382 708 236 708 q 597 611 519 708 q 675 342 675 514 l 675 332 m 382 689 q 171 600 247 689 q 93 353 94 511 l 656 353 q 582 600 653 511 q 382 689 511 689 m 515 810 l 376 989 l 238 810 l 214 810 l 364 1007 l 389 1007 l 539 810 l 515 810 z "},"ë":{"ha":742,"x_min":71,"x_max":675,"o":"m 675 332 l 93 332 q 175 92 97 178 q 389 6 253 6 q 547 47 476 6 q 651 161 617 89 l 669 151 q 558 30 633 74 q 389 -14 483 -14 q 155 82 239 -14 q 71 347 71 178 q 153 613 71 517 q 382 708 236 708 q 597 611 519 708 q 675 342 675 514 l 675 332 m 382 689 q 171 600 247 689 q 93 353 94 511 l 656 353 q 582 600 653 511 q 382 689 511 689 m 247 892 q 269 883 261 892 q 278 861 278 875 q 269 839 278 847 q 247 831 261 831 q 225 839 233 831 q 217 861 217 847 q 225 883 217 875 q 247 892 233 892 m 503 892 q 525 883 517 892 q 533 861 533 875 q 525 839 533 847 q 503 831 517 831 q 481 839 489 831 q 472 861 472 847 q 481 883 472 875 q 503 892 489 892 z "},"ė":{"ha":742,"x_min":71,"x_max":675,"o":"m 675 332 l 93 332 q 175 92 97 178 q 389 6 253 6 q 547 47 476 6 q 651 161 617 89 l 669 151 q 558 30 633 74 q 389 -14 483 -14 q 155 82 239 -14 q 71 347 71 178 q 153 613 71 517 q 382 708 236 708 q 597 611 519 708 q 675 342 675 514 l 675 332 m 382 689 q 171 600 247 689 q 93 353 94 511 l 656 353 q 582 600 653 511 q 382 689 511 689 m 376 892 q 399 883 390 892 q 407 861 407 875 q 399 839 407 847 q 376 831 390 831 q 354 839 363 831 q 346 861 346 847 q 354 883 346 875 q 376 892 363 892 z "},"è":{"ha":742,"x_min":71,"x_max":675,"o":"m 675 332 l 93 332 q 175 92 97 178 q 389 6 253 6 q 547 47 476 6 q 651 161 617 89 l 669 151 q 558 30 633 74 q 389 -14 483 -14 q 155 82 239 -14 q 71 347 71 178 q 153 613 71 517 q 382 708 236 708 q 597 611 519 708 q 675 342 675 514 l 675 332 m 382 689 q 171 600 247 689 q 93 353 94 511 l 656 353 q 582 600 653 511 q 382 689 511 689 m 392 810 l 371 810 l 249 1014 l 274 1014 l 392 810 z "},"ē":{"ha":742,"x_min":71,"x_max":675,"o":"m 675 332 l 93 332 q 175 92 97 178 q 389 6 253 6 q 547 47 476 6 q 651 161 617 89 l 669 151 q 558 30 633 74 q 389 -14 483 -14 q 155 82 239 -14 q 71 347 71 178 q 153 613 71 517 q 382 708 236 708 q 597 611 519 708 q 675 342 675 514 l 675 332 m 382 689 q 171 600 247 689 q 93 353 94 511 l 656 353 q 582 600 653 511 q 382 689 511 689 m 576 840 l 176 840 l 176 860 l 576 860 l 576 840 z "},"ę":{"ha":742,"x_min":71,"x_max":675,"o":"m 675 332 l 93 332 q 175 92 97 178 q 389 6 253 6 q 547 47 476 6 q 651 161 617 89 l 669 151 q 603 63 646 100 q 507 6 561 25 q 372 -83 410 -42 q 335 -172 335 -124 q 363 -238 335 -215 q 436 -261 392 -261 q 528 -233 493 -261 l 536 -251 q 436 -281 493 -281 q 349 -252 383 -281 q 314 -172 314 -224 q 342 -88 314 -126 q 440 -10 371 -50 q 389 -14 415 -14 q 155 82 239 -14 q 71 347 71 178 q 153 613 71 517 q 382 708 236 708 q 597 611 519 708 q 675 342 675 514 l 675 332 m 382 689 q 171 600 247 689 q 93 353 94 511 l 656 353 q 582 600 653 511 q 382 689 511 689 z "},"f":{"ha":444,"x_min":17,"x_max":447,"o":"m 340 1001 q 221 951 264 1001 q 178 810 178 900 l 178 694 l 436 694 l 436 675 l 178 675 l 178 0 l 156 0 l 156 675 l 17 675 l 17 694 l 156 694 l 156 810 q 205 965 156 908 q 340 1021 254 1021 q 447 978 408 1021 l 438 961 q 397 992 419 983 q 340 1001 374 1001 z "},"g":{"ha":689,"x_min":47,"x_max":689,"o":"m 453 51 q 621 10 558 51 q 683 -101 683 -32 q 644 -204 683 -160 q 532 -274 604 -249 q 367 -299 460 -299 q 133 -248 219 -299 q 47 -112 47 -197 q 90 -13 47 -54 q 203 40 132 28 q 120 85 150 54 q 90 158 90 117 q 131 247 90 211 q 235 292 171 282 q 123 367 163 315 q 83 490 83 419 q 159 649 83 589 q 358 708 235 708 q 526 668 458 708 q 572 781 531 739 q 682 822 614 822 l 689 803 q 585 764 624 803 q 544 657 547 725 q 608 585 586 628 q 631 490 631 543 q 556 332 631 392 q 358 272 482 272 q 278 279 319 272 q 159 242 206 275 q 113 161 113 208 q 157 82 113 113 q 282 51 201 51 l 453 51 m 106 490 q 175 346 106 400 q 358 292 244 292 q 540 346 472 292 q 608 490 608 400 q 540 635 608 581 q 358 689 472 689 q 175 635 244 689 q 106 490 106 581 m 369 -279 q 518 -257 451 -279 q 623 -195 585 -235 q 661 -104 661 -156 q 604 -6 661 -43 q 451 32 547 32 l 274 32 q 126 -8 183 32 q 69 -110 69 -47 q 151 -233 69 -186 q 369 -279 232 -279 z "},"ğ":{"ha":689,"x_min":47,"x_max":689,"o":"m 363 807 q 239 851 283 807 q 194 975 194 896 l 214 975 q 254 867 214 907 q 363 826 294 826 q 471 867 431 826 q 511 975 511 907 l 531 975 q 486 851 531 896 q 363 807 442 807 m 453 51 q 621 10 558 51 q 683 -101 683 -32 q 644 -204 683 -160 q 532 -274 604 -249 q 367 -299 460 -299 q 133 -248 219 -299 q 47 -112 47 -197 q 90 -13 47 -54 q 203 40 132 28 q 120 85 150 54 q 90 158 90 117 q 131 247 90 211 q 235 292 171 282 q 123 367 163 315 q 83 490 83 419 q 159 649 83 589 q 358 708 235 708 q 526 668 458 708 q 572 781 531 739 q 682 822 614 822 l 689 803 q 585 764 624 803 q 544 657 547 725 q 608 585 586 628 q 631 490 631 543 q 556 332 631 392 q 358 272 482 272 q 278 279 319 272 q 159 242 206 275 q 113 161 113 208 q 157 82 113 113 q 282 51 201 51 l 453 51 m 106 490 q 175 346 106 400 q 358 292 244 292 q 540 346 472 292 q 608 490 608 400 q 540 635 608 581 q 358 689 472 689 q 175 635 244 689 q 106 490 106 581 m 369 -279 q 518 -257 451 -279 q 623 -195 585 -235 q 661 -104 661 -156 q 604 -6 661 -43 q 451 32 547 32 l 274 32 q 126 -8 183 32 q 69 -110 69 -47 q 151 -233 69 -186 q 369 -279 232 -279 z "},"h":{"ha":797,"x_min":118,"x_max":688,"o":"m 429 710 q 619 644 550 710 q 688 458 688 578 l 688 1 l 665 1 l 665 456 q 601 628 665 567 q 425 690 536 690 q 281 653 346 690 q 178 553 215 615 q 140 419 140 492 l 140 0 l 118 0 l 118 1014 l 140 1014 l 140 511 q 244 654 165 599 q 429 710 322 710 z "},"i":{"ha":258,"x_min":99,"x_max":160,"o":"m 129 831 q 107 839 115 831 q 99 861 99 847 q 107 883 99 875 q 129 892 115 892 q 151 883 143 892 q 160 861 160 875 q 151 839 160 847 q 129 831 143 831 m 140 0 l 118 0 l 118 694 l 140 694 l 140 0 z "},"ı":{"ha":258,"x_min":118,"x_max":140,"o":"m 140 0 l 118 0 l 118 694 l 140 694 l 140 0 z "},"í":{"ha":258,"x_min":118,"x_max":263,"o":"m 140 0 l 118 0 l 118 694 l 140 694 l 140 0 m 263 1014 l 140 810 l 119 810 l 238 1014 l 263 1014 z "},"î":{"ha":258,"x_min":-33,"x_max":292,"o":"m 140 0 l 118 0 l 118 694 l 140 694 l 140 0 m 268 810 l 129 989 l -10 810 l -33 810 l 117 1007 l 142 1007 l 292 810 l 268 810 z "},"ï":{"ha":258,"x_min":29,"x_max":229,"o":"m 60 831 q 38 839 46 831 q 29 861 29 847 q 38 883 29 875 q 60 892 46 892 q 82 883 74 892 q 90 861 90 875 q 82 839 90 847 q 60 831 74 831 m 199 831 q 176 839 185 831 q 168 861 168 847 q 176 883 168 875 q 199 892 185 892 q 221 883 213 892 q 229 861 229 875 q 221 839 229 847 q 199 831 213 831 m 140 0 l 118 0 l 118 694 l 140 694 l 140 0 z "},"ì":{"ha":258,"x_min":1,"x_max":144,"o":"m 140 0 l 118 0 l 118 694 l 140 694 l 140 0 m 144 810 l 124 810 l 1 1014 l 26 1014 l 144 810 z "},"ĳ":{"ha":517,"x_min":99,"x_max":418,"o":"m 129 831 q 107 839 115 831 q 99 861 99 847 q 107 883 99 875 q 129 892 115 892 q 151 883 143 892 q 160 861 160 875 q 151 839 160 847 q 129 831 143 831 m 140 0 l 118 0 l 118 694 l 140 694 l 140 0 m 388 892 q 410 883 401 892 q 418 861 418 875 q 410 839 418 847 q 388 831 401 831 q 365 839 374 831 q 357 861 357 847 q 365 883 357 875 q 388 892 374 892 m 399 -89 q 349 -242 399 -185 q 215 -299 299 -299 q 160 -290 186 -299 q 117 -268 133 -282 l 124 -249 q 165 -272 140 -264 q 215 -279 189 -279 q 333 -227 289 -279 q 376 -89 376 -175 l 376 694 l 399 694 l 399 -89 z "},"ī":{"ha":258,"x_min":25,"x_max":233,"o":"m 233 840 l 25 840 l 25 860 l 233 860 l 233 840 m 140 0 l 118 0 l 118 694 l 140 694 l 140 0 z "},"į":{"ha":258,"x_min":3,"x_max":210,"o":"m 129 831 q 107 839 115 831 q 99 861 99 847 q 107 883 99 875 q 129 892 115 892 q 151 883 143 892 q 160 861 160 875 q 151 839 160 847 q 129 831 143 831 m 210 -250 q 172 -274 192 -268 q 121 -281 153 -281 q 38 -249 72 -281 q 3 -167 3 -218 q 28 -87 3 -122 q 118 3 54 -51 l 118 694 l 140 694 l 140 0 q 49 -91 74 -57 q 24 -167 24 -125 q 52 -235 24 -210 q 121 -261 81 -261 q 167 -255 150 -261 q 201 -232 183 -249 l 210 -250 z "},"j":{"ha":258,"x_min":-142,"x_max":160,"o":"m 129 892 q 151 883 143 892 q 160 861 160 875 q 151 839 160 847 q 129 831 143 831 q 107 839 115 831 q 99 861 99 847 q 107 883 99 875 q 129 892 115 892 m 140 -89 q 90 -242 140 -185 q -43 -299 40 -299 q -99 -290 -72 -299 q -142 -268 -125 -282 l -135 -249 q -94 -272 -118 -264 q -43 -279 -69 -279 q 74 -227 31 -279 q 118 -89 118 -175 l 118 694 l 140 694 l 140 -89 z "},"k":{"ha":669,"x_min":118,"x_max":653,"o":"m 324 396 l 140 225 l 140 0 l 118 0 l 118 1014 l 140 1014 l 140 256 l 613 694 l 646 694 l 340 411 l 653 0 l 625 0 l 324 396 z "},"l":{"ha":329,"x_min":113,"x_max":317,"o":"m 135 149 q 160 40 135 74 q 236 6 185 6 q 282 10 265 6 q 317 22 299 14 l 317 3 q 236 -14 286 -14 q 143 25 174 -14 q 113 149 113 64 l 113 1014 l 135 1014 l 135 149 z "},"ĺ":{"ha":329,"x_min":113,"x_max":317,"o":"m 199 1292 l 136 1101 l 117 1101 l 174 1292 l 199 1292 m 135 149 q 160 40 135 74 q 236 6 185 6 q 282 10 265 6 q 317 22 299 14 l 317 3 q 236 -14 286 -14 q 143 25 174 -14 q 113 149 113 64 l 113 1014 l 135 1014 l 135 149 z "},"ľ":{"ha":329,"x_min":113,"x_max":317,"o":"m 135 149 q 160 40 135 74 q 236 6 185 6 q 282 10 265 6 q 317 22 299 14 l 317 3 q 236 -14 286 -14 q 143 25 174 -14 q 113 149 113 64 l 113 1014 l 135 1014 l 135 149 m 276 740 l 257 740 l 293 1014 l 317 1014 l 276 740 z "},"ŀ":{"ha":408,"x_min":113,"x_max":361,"o":"m 135 149 q 160 40 135 74 q 236 6 185 6 q 282 10 265 6 q 317 22 299 14 l 317 3 q 236 -14 286 -14 q 143 25 174 -14 q 113 149 113 64 l 113 1014 l 135 1014 l 135 149 m 331 531 q 353 522 344 531 q 361 500 361 514 q 353 478 361 486 q 331 469 344 469 q 308 478 317 469 q 300 500 300 486 q 308 522 300 514 q 331 531 317 531 z "},"ł":{"ha":386,"x_min":19,"x_max":358,"o":"m 278 6 q 324 10 307 6 q 358 22 340 14 l 358 3 q 278 -14 328 -14 q 185 25 215 -14 q 154 149 154 64 l 154 468 l 19 371 l 19 394 l 154 492 l 154 1014 l 176 1014 l 176 507 l 350 632 l 350 608 l 176 483 l 176 149 q 201 40 176 74 q 278 6 226 6 z "},"m":{"ha":1344,"x_min":118,"x_max":1235,"o":"m 976 711 q 1166 645 1097 711 q 1235 460 1235 579 l 1235 3 l 1213 3 l 1213 457 q 1148 630 1213 568 q 972 692 1083 692 q 828 654 893 692 q 725 555 763 617 q 688 421 688 493 l 688 0 l 665 0 l 665 454 q 601 627 665 565 q 425 689 536 689 q 281 651 346 689 q 178 552 215 614 q 140 418 140 490 l 140 0 l 118 0 l 118 694 l 140 694 l 140 510 q 244 653 165 597 q 429 708 322 708 q 605 654 538 708 q 685 501 672 600 q 785 652 706 593 q 976 711 865 711 z "},"n":{"ha":797,"x_min":118,"x_max":688,"o":"m 429 708 q 619 642 550 708 q 688 457 688 576 l 688 0 l 665 0 l 665 454 q 601 627 665 565 q 425 689 536 689 q 281 651 346 689 q 178 552 215 614 q 140 418 140 490 l 140 0 l 118 0 l 118 694 l 140 694 l 140 510 q 244 653 165 597 q 429 708 322 708 z "},"ń":{"ha":797,"x_min":118,"x_max":688,"o":"m 429 708 q 619 642 550 708 q 688 457 688 576 l 688 0 l 665 0 l 665 454 q 601 627 665 565 q 425 689 536 689 q 281 651 346 689 q 178 552 215 614 q 140 418 140 490 l 140 0 l 118 0 l 118 694 l 140 694 l 140 510 q 244 653 165 597 q 429 708 322 708 m 540 1014 l 418 810 l 397 810 l 515 1014 l 540 1014 z "},"ň":{"ha":797,"x_min":118,"x_max":688,"o":"m 429 708 q 619 642 550 708 q 688 457 688 576 l 688 0 l 665 0 l 665 454 q 601 627 665 565 q 425 689 536 689 q 281 651 346 689 q 178 552 215 614 q 140 418 140 490 l 140 0 l 118 0 l 118 694 l 140 694 l 140 510 q 244 653 165 597 q 429 708 322 708 m 419 810 l 394 810 l 244 1007 l 268 1007 l 407 828 l 546 1007 l 569 1007 l 419 810 z "},"ñ":{"ha":797,"x_min":118,"x_max":688,"o":"m 429 708 q 619 642 550 708 q 688 457 688 576 l 688 0 l 665 0 l 665 454 q 601 627 665 565 q 425 689 536 689 q 281 651 346 689 q 178 552 215 614 q 140 418 140 490 l 140 0 l 118 0 l 118 694 l 140 694 l 140 510 q 244 653 165 597 q 429 708 322 708 m 628 949 q 589 860 617 888 q 510 832 561 832 q 449 844 472 832 q 400 882 426 857 q 356 917 375 906 q 306 928 336 928 q 241 905 261 928 q 210 831 221 882 l 189 831 q 228 919 200 892 q 307 947 256 947 q 367 935 344 947 q 417 897 390 922 q 459 863 439 875 q 510 851 479 851 q 575 874 554 851 q 607 949 596 897 l 628 949 z "},"o":{"ha":790,"x_min":71,"x_max":719,"o":"m 396 708 q 633 612 547 708 q 719 347 719 515 q 633 83 719 179 q 396 -14 547 -14 q 158 83 244 -14 q 71 347 71 179 q 158 612 71 515 q 396 708 244 708 m 396 689 q 174 598 256 689 q 93 347 93 507 q 174 97 93 188 q 396 6 256 6 q 617 97 536 6 q 697 347 697 188 q 617 598 697 507 q 396 689 536 689 z "},"ó":{"ha":790,"x_min":71,"x_max":719,"o":"m 396 708 q 633 612 547 708 q 719 347 719 515 q 633 83 719 179 q 396 -14 547 -14 q 158 83 244 -14 q 71 347 71 179 q 158 612 71 515 q 396 708 244 708 m 396 689 q 174 598 256 689 q 93 347 93 507 q 174 97 93 188 q 396 6 256 6 q 617 97 536 6 q 697 347 697 188 q 617 598 697 507 q 396 689 536 689 m 529 1014 l 407 810 l 386 810 l 504 1014 l 529 1014 z "},"ô":{"ha":790,"x_min":71,"x_max":719,"o":"m 396 708 q 633 612 547 708 q 719 347 719 515 q 633 83 719 179 q 396 -14 547 -14 q 158 83 244 -14 q 71 347 71 179 q 158 612 71 515 q 396 708 244 708 m 396 689 q 174 598 256 689 q 93 347 93 507 q 174 97 93 188 q 396 6 256 6 q 617 97 536 6 q 697 347 697 188 q 617 598 697 507 q 396 689 536 689 m 535 810 l 396 989 l 257 810 l 233 810 l 383 1007 l 408 1007 l 558 810 l 535 810 z "},"ö":{"ha":790,"x_min":71,"x_max":719,"o":"m 396 708 q 633 612 547 708 q 719 347 719 515 q 633 83 719 179 q 396 -14 547 -14 q 158 83 244 -14 q 71 347 71 179 q 158 612 71 515 q 396 708 244 708 m 396 689 q 174 598 256 689 q 93 347 93 507 q 174 97 93 188 q 396 6 256 6 q 617 97 536 6 q 697 347 697 188 q 617 598 697 507 q 396 689 536 689 m 267 892 q 289 883 281 892 q 297 861 297 875 q 289 839 297 847 q 267 831 281 831 q 244 839 253 831 q 236 861 236 847 q 244 883 236 875 q 267 892 253 892 m 522 892 q 544 883 536 892 q 553 861 553 875 q 544 839 553 847 q 522 831 536 831 q 500 839 508 831 q 492 861 492 847 q 500 883 492 875 q 522 892 508 892 z "},"ò":{"ha":790,"x_min":71,"x_max":719,"o":"m 396 708 q 633 612 547 708 q 719 347 719 515 q 633 83 719 179 q 396 -14 547 -14 q 158 83 244 -14 q 71 347 71 179 q 158 612 71 515 q 396 708 244 708 m 396 689 q 174 598 256 689 q 93 347 93 507 q 174 97 93 188 q 396 6 256 6 q 617 97 536 6 q 697 347 697 188 q 617 598 697 507 q 396 689 536 689 m 411 810 l 390 810 l 268 1014 l 293 1014 l 411 810 z "},"ő":{"ha":790,"x_min":71,"x_max":719,"o":"m 396 708 q 633 612 547 708 q 719 347 719 515 q 633 83 719 179 q 396 -14 547 -14 q 158 83 244 -14 q 71 347 71 179 q 158 612 71 515 q 396 708 244 708 m 396 689 q 174 598 256 689 q 93 347 93 507 q 174 97 93 188 q 396 6 256 6 q 617 97 536 6 q 697 347 697 188 q 617 598 697 507 q 396 689 536 689 m 301 810 l 281 810 l 399 1014 l 424 1014 l 301 810 m 483 810 l 463 810 l 581 1014 l 606 1014 l 483 810 z "},"ō":{"ha":790,"x_min":71,"x_max":719,"o":"m 396 708 q 633 612 547 708 q 719 347 719 515 q 633 83 719 179 q 396 -14 547 -14 q 158 83 244 -14 q 71 347 71 179 q 158 612 71 515 q 396 708 244 708 m 396 689 q 174 598 256 689 q 93 347 93 507 q 174 97 93 188 q 396 6 256 6 q 617 97 536 6 q 697 347 697 188 q 617 598 697 507 q 396 689 536 689 m 596 840 l 196 840 l 196 860 l 596 860 l 596 840 z "},"ø":{"ha":792,"x_min":71,"x_max":721,"o":"m 396 708 q 611 633 528 708 l 692 736 l 721 736 l 628 618 q 719 347 719 522 q 633 83 719 179 q 396 -14 547 -14 q 183 57 267 -14 l 106 -42 l 76 -42 l 167 72 q 96 190 121 119 q 71 347 71 260 q 158 612 71 515 q 396 708 244 708 m 182 90 l 217 136 l 599 617 q 396 689 519 689 q 174 598 256 689 q 93 347 93 507 q 181 90 93 181 l 182 90 m 396 6 q 617 97 536 6 q 697 347 697 188 q 614 601 697 510 l 613 601 l 588 568 l 197 74 q 396 6 274 6 z "},"õ":{"ha":790,"x_min":71,"x_max":719,"o":"m 396 708 q 633 612 547 708 q 719 347 719 515 q 633 83 719 179 q 396 -14 547 -14 q 158 83 244 -14 q 71 347 71 179 q 158 612 71 515 q 396 708 244 708 m 396 689 q 174 598 256 689 q 93 347 93 507 q 174 97 93 188 q 396 6 256 6 q 617 97 536 6 q 697 347 697 188 q 617 598 697 507 q 396 689 536 689 m 617 949 q 578 860 606 888 q 499 832 550 832 q 438 844 461 832 q 389 882 415 857 q 344 917 364 906 q 294 928 325 928 q 230 905 250 928 q 199 831 210 882 l 178 831 q 217 919 189 892 q 296 947 244 947 q 356 935 333 947 q 406 897 379 922 q 448 863 428 875 q 499 851 468 851 q 564 874 543 851 q 596 949 585 897 l 617 949 z "},"œ":{"ha":1369,"x_min":71,"x_max":1303,"o":"m 1303 332 l 721 332 q 803 92 725 178 q 1017 6 881 6 q 1174 47 1104 6 q 1279 161 1244 89 l 1297 151 q 1186 30 1261 74 q 1017 -14 1111 -14 q 813 52 893 -14 q 708 239 733 118 q 602 52 683 118 q 396 -14 521 -14 q 158 83 244 -14 q 71 347 71 179 q 158 612 71 515 q 396 708 244 708 q 602 642 521 708 q 708 456 683 576 q 812 642 733 576 q 1010 708 890 708 q 1225 611 1147 708 q 1303 342 1303 514 l 1303 332 m 396 6 q 617 97 536 6 q 697 347 697 188 q 617 598 697 507 q 396 689 536 689 q 174 598 256 689 q 93 347 93 507 q 174 97 93 188 q 396 6 256 6 m 1010 689 q 799 600 875 689 q 721 353 722 511 l 1283 353 q 1210 600 1281 511 q 1010 689 1139 689 z "},"p":{"ha":813,"x_min":118,"x_max":742,"o":"m 424 708 q 658 613 574 708 q 742 347 742 517 q 658 82 742 178 q 424 -14 574 -14 q 241 43 315 -14 q 140 206 167 100 l 140 -292 l 118 -292 l 118 694 l 140 694 l 140 486 q 240 650 167 592 q 424 708 314 708 m 419 6 q 640 96 561 6 q 719 347 719 186 q 640 599 719 508 q 419 689 561 689 q 216 599 292 689 q 140 353 140 508 l 140 343 q 216 96 140 186 q 419 6 292 6 z "},"þ":{"ha":813,"x_min":118,"x_max":742,"o":"m 424 708 q 658 613 574 708 q 742 347 742 517 q 658 82 742 178 q 424 -14 574 -14 q 240 44 314 -14 q 140 208 167 103 l 140 -292 l 118 -292 l 118 1014 l 140 1014 l 140 489 q 241 651 167 594 q 424 708 315 708 m 419 6 q 640 96 561 6 q 719 347 719 186 q 640 599 719 508 q 419 689 561 689 q 216 599 292 689 q 140 351 140 508 l 140 342 q 216 96 140 186 q 419 6 292 6 z "},"q":{"ha":814,"x_min":72,"x_max":696,"o":"m 696 694 l 696 -292 l 674 -292 l 674 206 q 573 43 647 100 q 390 -14 499 -14 q 156 82 240 -14 q 72 347 72 178 q 156 613 72 517 q 390 708 240 708 q 574 650 500 708 q 674 486 647 592 l 674 694 l 696 694 m 394 6 q 598 96 522 6 q 674 343 674 186 l 674 353 q 598 599 674 508 q 394 689 522 689 q 174 599 253 689 q 94 347 94 508 q 174 96 94 186 q 394 6 253 6 z "},"r":{"ha":476,"x_min":118,"x_max":467,"o":"m 368 708 q 467 675 433 708 l 454 658 q 420 681 439 674 q 365 689 401 689 q 251 649 303 689 q 170 542 200 608 q 140 404 140 476 l 140 0 l 118 0 l 118 694 l 140 694 l 140 514 q 225 653 164 599 q 368 708 286 708 z "},"ŕ":{"ha":476,"x_min":118,"x_max":467,"o":"m 368 708 q 467 675 433 708 l 454 658 q 420 681 439 674 q 365 689 401 689 q 251 649 303 689 q 170 542 200 608 q 140 404 140 476 l 140 0 l 118 0 l 118 694 l 140 694 l 140 514 q 225 653 164 599 q 368 708 286 708 m 404 1014 l 282 810 l 261 810 l 379 1014 l 404 1014 z "},"ř":{"ha":476,"x_min":108,"x_max":467,"o":"m 368 708 q 467 675 433 708 l 454 658 q 420 681 439 674 q 365 689 401 689 q 251 649 303 689 q 170 542 200 608 q 140 404 140 476 l 140 0 l 118 0 l 118 694 l 140 694 l 140 514 q 225 653 164 599 q 368 708 286 708 m 283 810 l 258 810 l 108 1007 l 132 1007 l 271 828 l 410 1007 l 433 1007 l 283 810 z "},"s":{"ha":665,"x_min":51,"x_max":600,"o":"m 333 -14 q 147 29 222 -14 q 51 154 71 72 l 72 164 q 160 47 90 88 q 338 6 231 6 q 513 51 447 6 q 578 172 578 96 q 526 274 578 236 q 342 333 474 311 q 140 401 199 358 q 82 519 82 443 q 115 615 82 572 q 207 683 149 658 q 339 708 265 708 q 596 535 558 708 l 576 524 q 339 689 542 689 q 219 667 272 689 q 135 608 165 646 q 104 525 104 571 q 158 416 104 456 q 349 353 213 376 q 544 288 488 329 q 600 172 600 246 q 528 36 600 86 q 333 -14 457 -14 z "},"ś":{"ha":665,"x_min":51,"x_max":600,"o":"m 333 -14 q 147 29 222 -14 q 51 154 71 72 l 72 164 q 160 47 90 88 q 338 6 231 6 q 513 51 447 6 q 578 172 578 96 q 526 274 578 236 q 342 333 474 311 q 140 401 199 358 q 82 519 82 443 q 115 615 82 572 q 207 683 149 658 q 339 708 265 708 q 596 535 558 708 l 576 524 q 339 689 542 689 q 219 667 272 689 q 135 608 165 646 q 104 525 104 571 q 158 416 104 456 q 349 353 213 376 q 544 288 488 329 q 600 172 600 246 q 528 36 600 86 q 333 -14 457 -14 m 465 1014 l 343 810 l 322 810 l 440 1014 l 465 1014 z "},"š":{"ha":665,"x_min":51,"x_max":600,"o":"m 333 -14 q 147 29 222 -14 q 51 154 71 72 l 72 164 q 160 47 90 88 q 338 6 231 6 q 513 51 447 6 q 578 172 578 96 q 526 274 578 236 q 342 333 474 311 q 140 401 199 358 q 82 519 82 443 q 115 615 82 572 q 207 683 149 658 q 339 708 265 708 q 596 535 558 708 l 576 524 q 339 689 542 689 q 219 667 272 689 q 135 608 165 646 q 104 525 104 571 q 158 416 104 456 q 349 353 213 376 q 544 288 488 329 q 600 172 600 246 q 528 36 600 86 q 333 -14 457 -14 m 344 810 l 319 810 l 169 1007 l 193 1007 l 332 828 l 471 1007 l 494 1007 l 344 810 z "},"ß":{"ha":771,"x_min":118,"x_max":703,"o":"m 449 524 q 636 447 569 518 q 703 253 703 375 q 632 59 703 132 q 444 -14 561 -14 q 360 2 399 -14 q 299 47 322 18 l 311 61 q 369 17 338 31 q 444 4 401 4 q 616 72 551 4 q 681 253 681 140 q 606 448 681 382 q 406 514 532 514 l 344 514 l 344 533 l 406 533 q 575 599 510 533 q 640 782 640 665 q 578 943 640 885 q 407 1001 515 1001 q 207 925 275 1001 q 139 701 139 849 l 139 0 l 118 0 l 118 717 q 192 944 118 867 q 407 1021 265 1021 q 594 957 526 1021 q 663 779 663 893 q 634 649 663 706 q 557 560 606 593 q 449 525 508 528 l 449 524 z "},"ſ":{"ha":290,"x_min":113,"x_max":354,"o":"m 113 822 q 152 970 113 919 q 264 1021 192 1021 q 315 1013 297 1021 q 354 986 333 1004 l 346 969 q 311 994 328 988 q 264 1001 294 1001 q 135 822 135 1001 l 135 0 l 113 0 l 113 822 z "},"t":{"ha":457,"x_min":15,"x_max":454,"o":"m 454 39 q 397 1 432 15 q 321 -14 361 -14 q 154 175 154 -14 l 154 675 l 15 675 l 15 694 l 154 694 l 154 875 l 176 882 l 176 694 l 444 694 l 444 675 l 176 675 l 176 175 q 212 48 176 90 q 321 6 247 6 q 443 57 396 6 l 454 39 z "},"ť":{"ha":457,"x_min":15,"x_max":454,"o":"m 326 792 l 307 792 l 343 1065 l 367 1065 l 326 792 m 454 39 q 397 1 432 15 q 321 -14 361 -14 q 154 175 154 -14 l 154 675 l 15 675 l 15 694 l 154 694 l 154 875 l 176 882 l 176 694 l 444 694 l 444 675 l 176 675 l 176 175 q 212 48 176 90 q 321 6 247 6 q 443 57 396 6 l 454 39 z "},"u":{"ha":783,"x_min":110,"x_max":665,"o":"m 665 694 l 665 0 l 643 0 l 643 185 q 540 42 618 97 q 353 -14 461 -14 q 174 50 238 -14 q 110 232 110 114 l 110 694 l 132 694 l 132 235 q 191 65 132 125 q 357 6 250 6 q 515 49 450 6 q 611 153 579 92 q 643 272 643 215 l 643 694 l 665 694 z "},"ú":{"ha":783,"x_min":110,"x_max":665,"o":"m 665 694 l 665 0 l 643 0 l 643 185 q 540 42 618 97 q 353 -14 461 -14 q 174 50 238 -14 q 110 232 110 114 l 110 694 l 132 694 l 132 235 q 191 65 132 125 q 357 6 250 6 q 515 49 450 6 q 611 153 579 92 q 643 272 643 215 l 643 694 l 665 694 m 522 1014 l 400 810 l 379 810 l 497 1014 l 522 1014 z "},"û":{"ha":783,"x_min":110,"x_max":665,"o":"m 665 694 l 665 0 l 643 0 l 643 185 q 540 42 618 97 q 353 -14 461 -14 q 174 50 238 -14 q 110 232 110 114 l 110 694 l 132 694 l 132 235 q 191 65 132 125 q 357 6 250 6 q 515 49 450 6 q 611 153 579 92 q 643 272 643 215 l 643 694 l 665 694 m 528 810 l 389 989 l 250 810 l 226 810 l 376 1007 l 401 1007 l 551 810 l 528 810 z "},"ü":{"ha":783,"x_min":110,"x_max":665,"o":"m 665 694 l 665 0 l 643 0 l 643 185 q 540 42 618 97 q 353 -14 461 -14 q 174 50 238 -14 q 110 232 110 114 l 110 694 l 132 694 l 132 235 q 191 65 132 125 q 357 6 250 6 q 515 49 450 6 q 611 153 579 92 q 643 272 643 215 l 643 694 l 665 694 m 260 892 q 282 883 274 892 q 290 861 290 875 q 282 839 290 847 q 260 831 274 831 q 238 839 246 831 q 229 861 229 847 q 238 883 229 875 q 260 892 246 892 m 515 892 q 538 883 529 892 q 546 861 546 875 q 538 839 546 847 q 515 831 529 831 q 493 839 501 831 q 485 861 485 847 q 493 883 485 875 q 515 892 501 892 z "},"ù":{"ha":783,"x_min":110,"x_max":665,"o":"m 665 694 l 665 0 l 643 0 l 643 185 q 540 42 618 97 q 353 -14 461 -14 q 174 50 238 -14 q 110 232 110 114 l 110 694 l 132 694 l 132 235 q 191 65 132 125 q 357 6 250 6 q 515 49 450 6 q 611 153 579 92 q 643 272 643 215 l 643 694 l 665 694 m 404 810 l 383 810 l 261 1014 l 286 1014 l 404 810 z "},"ű":{"ha":783,"x_min":110,"x_max":665,"o":"m 665 694 l 665 0 l 643 0 l 643 185 q 540 42 618 97 q 353 -14 461 -14 q 174 50 238 -14 q 110 232 110 114 l 110 694 l 132 694 l 132 235 q 191 65 132 125 q 357 6 250 6 q 515 49 450 6 q 611 153 579 92 q 643 272 643 215 l 643 694 l 665 694 m 294 810 l 274 810 l 392 1014 l 417 1014 l 294 810 m 476 810 l 456 810 l 574 1014 l 599 1014 l 476 810 z "},"ū":{"ha":783,"x_min":110,"x_max":665,"o":"m 665 694 l 665 0 l 643 0 l 643 185 q 540 42 618 97 q 353 -14 461 -14 q 174 50 238 -14 q 110 232 110 114 l 110 694 l 132 694 l 132 235 q 191 65 132 125 q 357 6 250 6 q 515 49 450 6 q 611 153 579 92 q 643 272 643 215 l 643 694 l 665 694 m 589 840 l 189 840 l 189 860 l 589 860 l 589 840 z "},"ģ":{"ha":689,"x_min":47,"x_max":689,"o":"m 378 815 l 353 815 l 436 1081 l 454 1081 l 378 815 m 453 51 q 621 10 558 51 q 683 -101 683 -32 q 644 -204 683 -160 q 532 -274 604 -249 q 367 -299 460 -299 q 133 -248 219 -299 q 47 -112 47 -197 q 90 -13 47 -54 q 203 40 132 28 q 120 85 150 54 q 90 158 90 117 q 131 247 90 211 q 235 292 171 282 q 123 367 163 315 q 83 490 83 419 q 159 649 83 589 q 358 708 235 708 q 526 668 458 708 q 572 781 531 739 q 682 822 614 822 l 689 803 q 585 764 624 803 q 544 657 547 725 q 608 585 586 628 q 631 490 631 543 q 556 332 631 392 q 358 272 482 272 q 278 279 319 272 q 159 242 206 275 q 113 161 113 208 q 157 82 113 113 q 282 51 201 51 l 453 51 m 106 490 q 175 346 106 400 q 358 292 244 292 q 540 346 472 292 q 608 490 608 400 q 540 635 608 581 q 358 689 472 689 q 175 635 244 689 q 106 490 106 581 m 369 -279 q 518 -257 451 -279 q 623 -195 585 -235 q 661 -104 661 -156 q 604 -6 661 -43 q 451 32 547 32 l 274 32 q 126 -8 183 32 q 69 -110 69 -47 q 151 -233 69 -186 q 369 -279 232 -279 z "},"ķ":{"ha":669,"x_min":118,"x_max":653,"o":"m 324 396 l 140 225 l 140 0 l 118 0 l 118 1014 l 140 1014 l 140 256 l 613 694 l 646 694 l 340 411 l 653 0 l 625 0 l 324 396 m 364 -318 l 346 -318 l 415 -94 l 440 -94 l 364 -318 z "},"ļ":{"ha":329,"x_min":113,"x_max":317,"o":"m 135 149 q 160 40 135 74 q 236 6 185 6 q 282 10 265 6 q 317 22 299 14 l 317 3 q 236 -14 286 -14 q 143 25 174 -14 q 113 149 113 64 l 113 1014 l 135 1014 l 135 149 m 182 -318 l 164 -318 l 233 -94 l 258 -94 l 182 -318 z "},"ņ":{"ha":797,"x_min":118,"x_max":688,"o":"m 429 708 q 619 642 550 708 q 688 457 688 576 l 688 0 l 665 0 l 665 454 q 601 627 665 565 q 425 689 536 689 q 281 651 346 689 q 178 552 215 614 q 140 418 140 490 l 140 0 l 118 0 l 118 694 l 140 694 l 140 510 q 244 653 165 597 q 429 708 322 708 m 382 -318 l 364 -318 l 433 -94 l 458 -94 l 382 -318 z "},"ŗ":{"ha":476,"x_min":47,"x_max":467,"o":"m 368 708 q 467 675 433 708 l 454 658 q 420 681 439 674 q 365 689 401 689 q 251 649 303 689 q 170 542 200 608 q 140 404 140 476 l 140 0 l 118 0 l 118 694 l 140 694 l 140 514 q 225 653 164 599 q 368 708 286 708 m 65 -318 l 47 -318 l 117 -94 l 142 -94 l 65 -318 z "},"ş":{"ha":665,"x_min":51,"x_max":600,"o":"m 600 172 q 533 39 600 89 q 349 -14 465 -11 q 436 -83 411 -49 q 461 -164 461 -118 q 427 -248 461 -215 q 339 -281 393 -281 q 263 -267 294 -281 q 208 -222 232 -254 l 219 -206 q 273 -250 244 -237 q 339 -262 301 -262 q 412 -235 383 -262 q 440 -165 440 -208 q 414 -89 440 -124 q 317 -14 388 -54 q 140 33 211 -11 q 51 154 69 76 l 72 164 q 160 47 90 88 q 338 6 231 6 q 513 51 447 6 q 578 172 578 96 q 526 274 578 236 q 342 333 474 311 q 140 401 199 358 q 82 519 82 443 q 115 615 82 572 q 207 683 149 658 q 339 708 265 708 q 596 535 558 708 l 576 524 q 339 689 542 689 q 219 667 272 689 q 135 608 165 646 q 104 525 104 571 q 158 416 104 456 q 349 353 213 376 q 544 288 488 329 q 600 172 600 246 z "},"ţ":{"ha":457,"x_min":15,"x_max":454,"o":"m 454 39 q 397 1 432 15 q 321 -14 361 -14 q 290 -12 300 -14 q 377 -85 351 -49 q 403 -164 403 -121 q 370 -249 403 -217 q 283 -281 338 -281 q 206 -267 236 -281 q 150 -222 175 -254 l 161 -206 q 215 -250 188 -237 q 283 -262 242 -262 q 355 -236 328 -262 q 382 -165 382 -210 q 353 -86 382 -122 q 249 -3 325 -50 q 154 175 154 35 l 154 675 l 15 675 l 15 694 l 154 694 l 154 875 l 176 882 l 176 694 l 444 694 l 444 675 l 176 675 l 176 175 q 212 48 176 90 q 321 6 247 6 q 443 57 396 6 l 454 39 z "},"ș":{"ha":665,"x_min":51,"x_max":600,"o":"m 333 -14 q 147 29 222 -14 q 51 154 71 72 l 72 164 q 160 47 90 88 q 338 6 231 6 q 513 51 447 6 q 578 172 578 96 q 526 274 578 236 q 342 333 474 311 q 140 401 199 358 q 82 519 82 443 q 115 615 82 572 q 207 683 149 658 q 339 708 265 708 q 596 535 558 708 l 576 524 q 339 689 542 689 q 219 667 272 689 q 135 608 165 646 q 104 525 104 571 q 158 416 104 456 q 349 353 213 376 q 544 288 488 329 q 600 172 600 246 q 528 36 600 86 q 333 -14 457 -14 m 283 -318 l 265 -318 l 335 -94 l 360 -94 l 283 -318 z "},"ț":{"ha":457,"x_min":15,"x_max":454,"o":"m 454 39 q 397 1 432 15 q 321 -14 361 -14 q 154 175 154 -14 l 154 675 l 15 675 l 15 694 l 154 694 l 154 875 l 176 882 l 176 694 l 444 694 l 444 675 l 176 675 l 176 175 q 212 48 176 90 q 321 6 247 6 q 443 57 396 6 l 454 39 m 239 -318 l 221 -318 l 290 -94 l 315 -94 l 239 -318 z "},"ų":{"ha":783,"x_min":110,"x_max":699,"o":"m 699 -247 q 597 -281 657 -281 q 509 -253 543 -281 q 475 -178 475 -226 q 512 -85 475 -125 q 643 10 549 -46 l 643 185 q 540 42 618 97 q 353 -14 461 -14 q 174 50 238 -14 q 110 232 110 114 l 110 694 l 132 694 l 132 235 q 191 65 132 125 q 357 6 250 6 q 515 49 450 6 q 611 153 579 92 q 643 272 643 215 l 643 694 l 665 694 l 665 0 q 531 -93 567 -58 q 496 -178 496 -128 q 524 -239 496 -217 q 597 -261 551 -261 q 651 -254 631 -261 q 688 -233 672 -247 l 699 -247 z "},"ů":{"ha":783,"x_min":110,"x_max":665,"o":"m 665 694 l 665 0 l 643 0 l 643 185 q 540 42 618 97 q 353 -14 461 -14 q 174 50 238 -14 q 110 232 110 114 l 110 694 l 132 694 l 132 235 q 191 65 132 125 q 357 6 250 6 q 515 49 450 6 q 611 153 579 92 q 643 272 643 215 l 643 694 l 665 694 m 386 1021 q 467 989 435 1021 q 500 910 500 957 q 467 831 500 863 q 386 799 435 799 q 305 831 338 799 q 272 910 272 863 q 305 989 272 957 q 386 1021 338 1021 m 386 1001 q 321 975 347 1001 q 294 910 294 949 q 321 844 294 871 q 386 818 347 818 q 451 844 425 818 q 478 910 478 871 q 451 975 478 949 q 386 1001 425 1001 z "},"v":{"ha":668,"x_min":31,"x_max":638,"o":"m 638 694 l 346 0 l 322 0 l 31 694 l 56 694 l 335 28 l 613 694 l 638 694 z "},"w":{"ha":1082,"x_min":40,"x_max":1042,"o":"m 1042 694 l 811 0 l 789 0 l 542 663 l 293 0 l 271 0 l 40 694 l 64 694 l 282 32 l 529 694 l 553 694 l 800 32 l 1018 694 l 1042 694 z "},"x":{"ha":656,"x_min":26,"x_max":642,"o":"m 608 0 l 325 343 l 57 0 l 26 0 l 310 361 l 36 694 l 69 694 l 326 382 l 571 694 l 601 694 l 342 364 l 642 0 l 608 0 z "},"y":{"ha":668,"x_min":-6,"x_max":638,"o":"m 292 -140 q 213 -264 256 -229 q 103 -299 169 -299 q 37 -287 65 -299 q -6 -254 8 -276 l 7 -236 q 104 -279 35 -279 q 199 -248 161 -279 q 271 -136 238 -217 l 326 -1 l 31 694 l 56 694 l 313 83 l 338 25 l 361 85 l 613 694 l 638 694 l 292 -140 z "},"ý":{"ha":668,"x_min":-6,"x_max":638,"o":"m 292 -140 q 213 -264 256 -229 q 103 -299 169 -299 q 37 -287 65 -299 q -6 -254 8 -276 l 7 -236 q 104 -279 35 -279 q 199 -248 161 -279 q 271 -136 238 -217 l 326 -1 l 31 694 l 56 694 l 313 83 l 338 25 l 361 85 l 613 694 l 638 694 l 292 -140 m 472 1014 l 350 810 l 329 810 l 447 1014 l 472 1014 z "},"ÿ":{"ha":668,"x_min":-6,"x_max":638,"o":"m 292 -140 q 213 -264 256 -229 q 103 -299 169 -299 q 37 -287 65 -299 q -6 -254 8 -276 l 7 -236 q 104 -279 35 -279 q 199 -248 161 -279 q 271 -136 238 -217 l 326 -1 l 31 694 l 56 694 l 313 83 l 338 25 l 361 85 l 613 694 l 638 694 l 292 -140 m 210 892 q 232 883 224 892 q 240 861 240 875 q 232 839 240 847 q 210 831 224 831 q 188 839 196 831 q 179 861 179 847 q 188 883 179 875 q 210 892 196 892 m 465 892 q 488 883 479 892 q 496 861 496 875 q 488 839 496 847 q 465 831 479 831 q 443 839 451 831 q 435 861 435 847 q 443 883 435 875 q 465 892 451 892 z "},"z":{"ha":656,"x_min":43,"x_max":618,"o":"m 54 19 l 514 607 l 569 675 l 43 675 l 43 694 l 596 694 l 596 675 l 163 115 l 83 19 l 618 19 l 618 0 l 54 0 l 54 19 z "},"ź":{"ha":656,"x_min":43,"x_max":618,"o":"m 54 19 l 514 607 l 569 675 l 43 675 l 43 694 l 596 694 l 596 675 l 163 115 l 83 19 l 618 19 l 618 0 l 54 0 l 54 19 m 463 1014 l 340 810 l 319 810 l 438 1014 l 463 1014 z "},"ž":{"ha":656,"x_min":43,"x_max":618,"o":"m 54 19 l 514 607 l 569 675 l 43 675 l 43 694 l 596 694 l 596 675 l 163 115 l 83 19 l 618 19 l 618 0 l 54 0 l 54 19 m 342 810 l 317 810 l 167 1007 l 190 1007 l 329 828 l 468 1007 l 492 1007 l 342 810 z "},"ż":{"ha":656,"x_min":43,"x_max":618,"o":"m 54 19 l 514 607 l 569 675 l 43 675 l 43 694 l 596 694 l 596 675 l 163 115 l 83 19 l 618 19 l 618 0 l 54 0 l 54 19 m 329 892 q 351 883 343 892 q 360 861 360 875 q 351 839 360 847 q 329 831 343 831 q 307 839 315 831 q 299 861 299 847 q 307 883 299 875 q 329 892 315 892 z "},"ﬁ":{"ha":703,"x_min":17,"x_max":604,"o":"m 340 1001 q 221 951 264 1001 q 178 810 178 900 l 178 694 l 436 694 l 436 675 l 178 675 l 178 0 l 156 0 l 156 675 l 17 675 l 17 694 l 156 694 l 156 810 q 205 965 156 908 q 340 1021 254 1021 q 447 978 408 1021 l 438 961 q 397 992 419 983 q 340 1001 374 1001 m 574 831 q 551 839 560 831 q 543 861 543 847 q 551 883 543 875 q 574 892 560 892 q 596 883 588 892 q 604 861 604 875 q 596 839 604 847 q 574 831 588 831 m 585 0 l 563 0 l 563 694 l 585 694 l 585 0 z "},"ﬂ":{"ha":774,"x_min":17,"x_max":761,"o":"m 340 1001 q 221 951 264 1001 q 178 810 178 900 l 178 694 l 436 694 l 436 675 l 178 675 l 178 0 l 156 0 l 156 675 l 17 675 l 17 694 l 156 694 l 156 810 q 205 965 156 908 q 340 1021 254 1021 q 447 978 408 1021 l 438 961 q 397 992 419 983 q 340 1001 374 1001 m 579 149 q 604 40 579 74 q 681 6 629 6 q 726 10 710 6 q 761 22 743 14 l 761 3 q 681 -14 731 -14 q 588 25 618 -14 q 557 149 557 64 l 557 1014 l 579 1014 l 579 149 z "},"ª":{"ha":489,"x_min":47,"x_max":482,"o":"m 446 472 q 482 481 469 472 l 482 461 q 444 453 468 453 q 379 535 379 453 l 379 547 q 308 478 361 503 q 196 453 256 453 q 88 483 128 453 q 47 565 47 513 q 90 651 47 618 q 221 700 132 685 l 379 728 l 379 772 q 342 869 379 835 q 235 904 304 904 q 132 880 171 904 q 74 804 93 856 l 56 811 q 119 894 74 865 q 235 924 165 924 q 357 885 313 924 q 401 775 401 847 l 401 532 q 446 472 401 472 m 196 472 q 278 488 236 472 q 350 533 321 503 q 379 604 379 563 l 379 708 l 231 682 q 106 638 144 667 q 68 564 68 608 q 102 497 68 521 q 196 472 136 472 m 53 329 l 465 329 l 465 310 l 53 310 l 53 329 z "},"º":{"ha":492,"x_min":53,"x_max":439,"o":"m 246 454 q 99 510 146 454 q 53 689 53 567 q 99 867 53 811 q 246 924 146 924 q 392 867 346 924 q 439 689 439 811 q 392 510 439 567 q 246 454 346 454 m 246 474 q 376 526 335 474 q 417 689 417 578 q 376 852 417 800 q 246 904 335 904 q 116 852 157 904 q 75 689 75 800 q 116 526 75 578 q 246 474 157 474 m 61 329 l 431 329 l 431 310 l 61 310 l 61 329 z "},"π":{"ha":942,"x_min":8,"x_max":922,"o":"m 690 675 l 690 131 q 846 19 690 19 l 842 0 q 716 31 764 0 q 668 131 668 61 l 668 675 l 261 675 l 261 0 l 239 0 l 239 675 l 8 675 l 8 694 l 922 694 l 922 675 l 690 675 z "},"⁄":{"ha":281,"x_min":-196,"x_max":476,"o":"m 450 917 l 476 917 l -169 0 l -196 0 l 450 917 z "},"½":{"ha":1007,"x_min":15,"x_max":964,"o":"m 189 924 l 189 372 l 167 372 l 167 803 q 169 893 167 832 q 15 789 125 832 l 15 807 q 104 853 57 821 q 171 924 151 886 l 189 924 m 719 917 l 746 917 l 100 0 l 74 0 l 719 917 m 601 15 l 760 150 q 876 271 833 213 q 919 389 919 329 q 879 494 919 454 q 771 533 839 533 q 658 492 700 533 q 613 378 617 450 l 592 382 q 646 506 599 458 q 771 553 693 553 q 896 508 850 553 q 942 388 942 464 q 772 133 942 276 l 632 15 l 632 14 l 668 14 l 964 14 l 964 -6 l 601 -6 l 601 15 z "},"¼":{"ha":882,"x_min":15,"x_max":856,"o":"m 189 924 l 189 372 l 167 372 l 167 803 q 169 893 167 832 q 15 789 125 832 l 15 807 q 104 853 57 821 q 171 924 151 886 l 189 924 m 719 917 l 746 917 l 100 0 l 74 0 l 719 917 m 856 161 l 743 161 l 743 -6 l 721 -6 l 721 161 l 446 161 l 446 181 l 713 546 l 743 546 l 743 181 l 856 181 l 856 161 m 721 181 l 721 465 l 721 524 l 719 524 l 675 461 l 469 181 l 721 181 z "},"¾":{"ha":1038,"x_min":19,"x_max":1011,"o":"m 197 931 q 314 890 271 931 q 357 785 357 849 q 331 700 357 735 q 256 651 306 665 l 256 649 q 340 606 308 643 q 371 518 371 569 q 322 406 371 447 q 197 364 272 364 q 81 397 126 364 q 19 490 36 431 l 38 501 q 90 415 50 446 q 200 383 131 383 q 308 419 267 383 q 349 517 349 454 q 313 608 349 575 q 207 640 276 640 l 172 640 l 172 660 l 207 660 q 301 696 267 660 q 335 785 335 732 q 299 877 335 843 q 199 911 263 911 q 104 884 142 911 q 56 810 67 857 l 36 819 q 94 900 51 869 q 197 931 138 931 m 875 917 l 901 917 l 256 0 l 229 0 l 875 917 m 1011 161 l 899 161 l 899 -6 l 876 -6 l 876 161 l 601 161 l 601 181 l 868 546 l 899 546 l 899 181 l 1011 181 l 1011 161 m 876 181 l 876 465 l 876 524 l 875 524 l 831 461 l 625 181 l 876 181 z "},"➀":{"ha":1264,"x_min":126,"x_max":1138,"o":"m 632 -56 q 371 10 486 -56 q 191 194 256 76 q 126 458 126 311 q 191 723 126 606 q 371 906 256 840 q 632 972 486 972 q 893 906 778 972 q 1073 723 1008 840 q 1138 458 1138 606 q 1073 194 1138 311 q 893 10 1008 76 q 632 -56 778 -56 m 632 -36 q 881 28 771 -36 q 1053 204 990 92 q 1115 458 1115 317 q 1053 713 1115 600 q 881 889 990 825 q 632 953 771 953 q 383 889 493 953 q 211 713 274 825 q 149 458 149 600 q 211 204 149 317 q 383 28 274 92 q 632 -36 493 -36 m 663 740 l 663 189 l 640 189 l 640 619 q 643 710 640 649 q 489 606 599 649 l 489 624 q 578 670 531 638 q 644 740 625 703 l 663 740 z "},"➁":{"ha":1264,"x_min":126,"x_max":1138,"o":"m 632 -56 q 371 10 486 -56 q 191 194 256 76 q 126 458 126 311 q 191 723 126 606 q 371 906 256 840 q 632 972 486 972 q 893 906 778 972 q 1073 723 1008 840 q 1138 458 1138 606 q 1073 194 1138 311 q 893 10 1008 76 q 632 -56 778 -56 m 632 -36 q 881 28 771 -36 q 1053 204 990 92 q 1115 458 1115 317 q 1053 713 1115 600 q 881 889 990 825 q 632 953 771 953 q 383 889 493 953 q 211 713 274 825 q 149 458 149 600 q 211 204 149 317 q 383 28 274 92 q 632 -36 493 -36 m 460 224 l 618 358 q 735 479 692 421 q 778 597 778 538 q 738 702 778 663 q 629 742 697 742 q 517 700 558 742 q 471 586 475 658 l 450 590 q 504 714 457 667 q 629 761 551 761 q 754 717 708 761 q 800 596 800 672 q 631 342 800 485 l 490 224 l 490 222 l 526 222 l 822 222 l 822 203 l 460 203 l 460 224 z "},"➂":{"ha":1264,"x_min":126,"x_max":1138,"o":"m 632 -56 q 371 10 486 -56 q 191 194 256 76 q 126 458 126 311 q 191 723 126 606 q 371 906 256 840 q 632 972 486 972 q 893 906 778 972 q 1073 723 1008 840 q 1138 458 1138 606 q 1073 194 1138 311 q 893 10 1008 76 q 632 -56 778 -56 m 632 -36 q 881 28 771 -36 q 1053 204 990 92 q 1115 458 1115 317 q 1053 713 1115 600 q 881 889 990 825 q 632 953 771 953 q 383 889 493 953 q 211 713 274 825 q 149 458 149 600 q 211 204 149 317 q 383 28 274 92 q 632 -36 493 -36 m 633 743 q 750 702 707 743 q 793 597 793 661 q 767 513 793 547 q 692 464 742 478 l 692 461 q 776 419 744 456 q 807 331 807 382 q 758 218 807 260 q 633 176 708 176 q 517 210 563 176 q 456 303 472 243 l 474 314 q 526 227 486 258 q 636 196 567 196 q 744 231 703 196 q 785 329 785 267 q 749 420 785 388 q 643 453 713 453 l 608 453 l 608 472 l 643 472 q 737 508 703 472 q 771 597 771 544 q 735 690 771 656 q 635 724 699 724 q 540 697 578 724 q 492 622 503 669 l 472 632 q 531 713 488 682 q 633 743 574 743 z "},"➃":{"ha":1264,"x_min":126,"x_max":1138,"o":"m 632 -56 q 371 10 486 -56 q 191 194 256 76 q 126 458 126 311 q 191 723 126 606 q 371 906 256 840 q 632 972 486 972 q 893 906 778 972 q 1073 723 1008 840 q 1138 458 1138 606 q 1073 194 1138 311 q 893 10 1008 76 q 632 -56 778 -56 m 632 -36 q 881 28 771 -36 q 1053 204 990 92 q 1115 458 1115 317 q 1053 713 1115 600 q 881 889 990 825 q 632 953 771 953 q 383 889 493 953 q 211 713 274 825 q 149 458 149 600 q 211 204 149 317 q 383 28 274 92 q 632 -36 493 -36 m 808 356 l 696 356 l 696 189 l 674 189 l 674 356 l 399 356 l 399 375 l 665 740 l 696 740 l 696 375 l 808 375 l 808 356 m 674 375 l 674 660 l 674 718 l 672 718 l 628 656 l 422 375 l 674 375 z "},"➄":{"ha":1264,"x_min":126,"x_max":1138,"o":"m 632 -56 q 371 10 486 -56 q 191 194 256 76 q 126 458 126 311 q 191 723 126 606 q 371 906 256 840 q 632 972 486 972 q 893 906 778 972 q 1073 723 1008 840 q 1138 458 1138 606 q 1073 194 1138 311 q 893 10 1008 76 q 632 -56 778 -56 m 632 -36 q 881 28 771 -36 q 1053 204 990 92 q 1115 458 1115 317 q 1053 713 1115 600 q 881 889 990 825 q 632 953 771 953 q 383 889 493 953 q 211 713 274 825 q 149 458 149 600 q 211 204 149 317 q 383 28 274 92 q 632 -36 493 -36 m 638 521 q 762 472 714 521 q 810 347 810 424 q 761 222 810 269 q 632 174 713 174 q 511 207 558 174 q 449 308 464 240 l 468 315 q 521 224 479 256 q 632 193 563 193 q 744 236 700 193 q 788 347 788 279 q 746 459 788 417 q 636 501 704 501 q 542 485 578 501 q 483 435 507 468 l 461 435 l 489 732 l 788 732 l 788 713 l 507 713 l 488 501 l 482 463 l 483 463 q 638 521 531 521 z "},"➅":{"ha":1264,"x_min":126,"x_max":1138,"o":"m 632 -56 q 371 10 486 -56 q 191 194 256 76 q 126 458 126 311 q 191 723 126 606 q 371 906 256 840 q 632 972 486 972 q 893 906 778 972 q 1073 723 1008 840 q 1138 458 1138 606 q 1073 194 1138 311 q 893 10 1008 76 q 632 -56 778 -56 m 632 -36 q 881 28 771 -36 q 1053 204 990 92 q 1115 458 1115 317 q 1053 713 1115 600 q 881 889 990 825 q 632 953 771 953 q 383 889 493 953 q 211 713 274 825 q 149 458 149 600 q 211 204 149 317 q 383 28 274 92 q 632 -36 493 -36 m 631 176 q 485 249 535 176 q 436 460 436 322 q 492 669 436 596 q 640 743 549 743 q 792 639 753 743 l 774 632 q 724 699 758 674 q 639 724 690 724 q 500 642 544 724 q 456 444 456 561 q 460 375 456 408 l 461 375 q 515 481 467 440 q 632 521 564 521 q 758 474 713 521 q 804 349 804 428 q 758 223 804 269 q 631 176 713 176 m 631 196 q 742 237 701 196 q 782 349 782 278 q 741 460 782 418 q 633 501 700 501 q 550 479 586 501 q 494 422 514 457 q 474 350 474 388 q 519 240 474 285 q 631 196 564 196 z "},"➆":{"ha":1264,"x_min":126,"x_max":1138,"o":"m 632 -56 q 371 10 486 -56 q 191 194 256 76 q 126 458 126 311 q 191 723 126 606 q 371 906 256 840 q 632 972 486 972 q 893 906 778 972 q 1073 723 1008 840 q 1138 458 1138 606 q 1073 194 1138 311 q 893 10 1008 76 q 632 -56 778 -56 m 632 -36 q 881 28 771 -36 q 1053 204 990 92 q 1115 458 1115 317 q 1053 713 1115 600 q 881 889 990 825 q 632 953 771 953 q 383 889 493 953 q 211 713 274 825 q 149 458 149 600 q 211 204 149 317 q 383 28 274 92 q 632 -36 493 -36 m 826 718 l 826 699 q 608 167 608 463 l 588 167 q 642 449 588 314 q 799 699 696 583 l 440 699 l 440 718 l 826 718 z "},"➇":{"ha":1264,"x_min":126,"x_max":1138,"o":"m 632 -56 q 371 10 486 -56 q 191 194 256 76 q 126 458 126 311 q 191 723 126 606 q 371 906 256 840 q 632 972 486 972 q 893 906 778 972 q 1073 723 1008 840 q 1138 458 1138 606 q 1073 194 1138 311 q 893 10 1008 76 q 632 -56 778 -56 m 632 -36 q 881 28 771 -36 q 1053 204 990 92 q 1115 458 1115 317 q 1053 713 1115 600 q 881 889 990 825 q 632 953 771 953 q 383 889 493 953 q 211 713 274 825 q 149 458 149 600 q 211 204 149 317 q 383 28 274 92 q 632 -36 493 -36 m 632 743 q 751 706 706 743 q 796 606 796 668 q 768 522 796 557 q 692 475 740 488 l 692 474 q 786 421 751 460 q 821 328 821 382 q 768 218 821 260 q 632 176 715 176 q 494 218 547 176 q 442 328 442 260 q 478 422 442 382 q 572 474 514 461 l 572 475 q 495 522 524 488 q 467 606 467 557 q 511 706 467 668 q 632 743 556 743 m 632 724 q 528 690 568 724 q 489 604 489 657 q 528 517 489 551 q 632 483 568 483 q 735 517 696 483 q 774 604 774 551 q 735 690 774 657 q 632 724 696 724 m 632 196 q 752 233 706 196 q 799 329 799 271 q 752 426 799 389 q 632 464 706 464 q 511 426 558 464 q 464 329 464 389 q 510 233 464 271 q 632 196 557 196 z "},"➈":{"ha":1264,"x_min":126,"x_max":1138,"o":"m 632 -56 q 371 10 486 -56 q 191 194 256 76 q 126 458 126 311 q 191 723 126 606 q 371 906 256 840 q 632 972 486 972 q 893 906 778 972 q 1073 723 1008 840 q 1138 458 1138 606 q 1073 194 1138 311 q 893 10 1008 76 q 632 -56 778 -56 m 632 -36 q 881 28 771 -36 q 1053 204 990 92 q 1115 458 1115 317 q 1053 713 1115 600 q 881 889 990 825 q 632 953 771 953 q 383 889 493 953 q 211 713 274 825 q 149 458 149 600 q 211 204 149 317 q 383 28 274 92 q 632 -36 493 -36 m 629 743 q 778 668 726 743 q 829 460 829 593 q 776 251 829 325 q 631 176 722 176 q 515 208 561 176 q 453 296 468 240 l 472 306 q 523 225 483 254 q 631 196 563 196 q 765 274 721 196 q 810 464 810 353 q 800 565 810 510 l 799 565 q 775 478 800 515 q 710 420 750 440 q 629 400 669 400 q 498 447 546 400 q 450 574 450 494 q 499 697 450 651 q 629 743 547 743 m 631 724 q 515 682 558 724 q 472 572 472 640 q 515 463 472 506 q 628 419 558 419 q 708 441 672 419 q 765 498 744 463 q 785 571 785 533 q 741 680 785 636 q 631 724 697 724 z "},"₀":{"ha":497,"x_min":53,"x_max":444,"o":"m 249 -271 q 103 -198 154 -271 q 53 13 53 -125 q 103 223 53 150 q 249 296 154 296 q 394 223 343 296 q 444 13 444 150 q 394 -198 444 -125 q 249 -271 343 -271 m 249 -251 q 377 -183 332 -251 q 422 13 422 -114 q 377 208 422 139 q 249 276 332 276 q 120 208 165 276 q 75 13 75 139 q 120 -183 75 -114 q 249 -251 165 -251 z "},"₁":{"ha":269,"x_min":15,"x_max":189,"o":"m 189 289 l 189 -262 l 167 -262 l 167 168 q 169 258 167 197 q 15 154 125 197 l 15 172 q 104 219 57 186 q 171 289 151 251 l 189 289 z "},"₂":{"ha":457,"x_min":42,"x_max":414,"o":"m 51 -242 l 210 -107 q 326 14 283 -44 q 369 132 369 72 q 329 237 369 197 q 221 276 289 276 q 108 235 150 276 q 63 121 67 193 l 42 125 q 96 249 49 201 q 221 296 143 296 q 346 251 300 296 q 392 131 392 207 q 222 -124 392 19 l 82 -242 l 82 -243 l 118 -243 l 414 -243 l 414 -262 l 51 -262 l 51 -242 z "},"₃":{"ha":425,"x_min":19,"x_max":371,"o":"m 197 296 q 314 255 271 296 q 357 150 357 214 q 331 65 357 100 q 256 17 306 31 l 256 14 q 340 -28 308 8 q 371 -117 371 -65 q 322 -229 371 -187 q 197 -271 272 -271 q 81 -237 126 -271 q 19 -144 36 -204 l 38 -133 q 90 -220 50 -189 q 200 -251 131 -251 q 308 -216 267 -251 q 349 -118 349 -181 q 313 -27 349 -60 q 207 6 276 6 l 172 6 l 172 25 l 207 25 q 301 61 267 25 q 335 150 335 97 q 299 242 335 208 q 199 276 263 276 q 104 249 142 276 q 56 175 67 222 l 36 185 q 94 265 51 235 q 197 296 138 296 z "},"₄":{"ha":457,"x_min":21,"x_max":431,"o":"m 431 -96 l 318 -96 l 318 -262 l 296 -262 l 296 -96 l 21 -96 l 21 -76 l 288 289 l 318 289 l 318 -76 l 431 -76 l 431 -96 m 296 -76 l 296 208 l 296 267 l 294 267 l 250 204 l 44 -76 l 296 -76 z "},"₅":{"ha":457,"x_min":50,"x_max":411,"o":"m 239 78 q 363 29 315 78 q 411 -96 411 -19 q 363 -222 411 -174 q 233 -269 314 -269 q 113 -236 160 -269 q 50 -135 65 -203 l 69 -128 q 122 -219 81 -187 q 233 -250 164 -250 q 345 -207 301 -250 q 389 -96 389 -164 q 347 16 389 -26 q 238 58 306 58 q 144 42 179 58 q 85 -8 108 25 l 63 -8 l 90 289 l 389 289 l 389 269 l 108 269 l 89 58 l 83 19 l 85 19 q 239 78 132 78 z "},"₆":{"ha":469,"x_min":54,"x_max":422,"o":"m 249 -271 q 103 -198 153 -271 q 54 13 54 -125 q 110 222 54 149 q 258 296 167 296 q 410 192 371 296 l 392 185 q 342 251 376 226 q 257 276 308 276 q 118 195 163 276 q 74 -3 74 114 q 78 -72 74 -39 l 79 -72 q 133 33 85 -7 q 250 74 182 74 q 376 27 331 74 q 422 -99 422 -19 q 376 -224 422 -178 q 249 -271 331 -271 m 249 -251 q 360 -210 319 -251 q 400 -99 400 -169 q 359 13 400 -29 q 251 54 318 54 q 168 32 204 54 q 112 -25 132 10 q 92 -97 92 -60 q 137 -207 92 -162 q 249 -251 182 -251 z "},"₇":{"ha":408,"x_min":8,"x_max":394,"o":"m 394 289 l 394 269 q 176 -262 176 33 l 156 -262 q 210 19 156 -115 q 367 269 264 154 l 8 269 l 8 289 l 394 289 z "},"₈":{"ha":479,"x_min":50,"x_max":429,"o":"m 240 296 q 359 258 314 296 q 404 158 404 221 q 376 75 404 110 q 300 28 349 40 l 300 26 q 394 -26 360 13 q 429 -119 429 -65 q 376 -229 429 -187 q 240 -271 324 -271 q 103 -229 156 -271 q 50 -119 50 -187 q 86 -26 50 -65 q 181 26 122 14 l 181 28 q 103 75 132 40 q 75 158 75 110 q 119 258 75 221 q 240 296 164 296 m 240 276 q 137 243 176 276 q 97 157 97 210 q 137 70 97 104 q 240 36 176 36 q 343 70 304 36 q 382 157 382 104 q 343 243 382 210 q 240 276 304 276 m 240 -251 q 360 -214 314 -251 q 407 -118 407 -176 q 360 -21 407 -58 q 240 17 314 17 q 119 -21 167 17 q 72 -118 72 -58 q 119 -214 72 -176 q 240 -251 165 -251 z "},"₉":{"ha":486,"x_min":53,"x_max":432,"o":"m 232 296 q 381 221 329 296 q 432 13 432 146 q 378 -197 432 -122 q 233 -271 325 -271 q 117 -239 164 -271 q 56 -151 71 -207 l 75 -142 q 126 -222 86 -193 q 233 -251 165 -251 q 368 -173 324 -251 q 413 17 413 -94 q 403 118 413 63 l 401 118 q 378 31 403 68 q 313 -27 353 -7 q 232 -47 272 -47 q 101 0 149 -47 q 53 126 53 47 q 101 250 53 204 q 232 296 150 296 m 233 276 q 118 235 161 276 q 75 125 75 193 q 118 15 75 58 q 231 -28 161 -28 q 311 -6 275 -28 q 367 51 347 15 q 388 124 388 86 q 344 233 388 189 q 233 276 300 276 z "},"⁰":{"ha":497,"x_min":53,"x_max":444,"o":"m 249 454 q 103 527 154 454 q 53 738 53 600 q 103 948 53 875 q 249 1021 154 1021 q 394 948 343 1021 q 444 738 444 875 q 394 527 444 600 q 249 454 343 454 m 249 474 q 377 542 332 474 q 422 738 422 611 q 377 933 422 864 q 249 1001 332 1001 q 120 933 165 1001 q 75 738 75 864 q 120 542 75 611 q 249 474 165 474 z "},"¹":{"ha":269,"x_min":15,"x_max":189,"o":"m 189 1014 l 189 463 l 167 463 l 167 893 q 169 983 167 922 q 15 879 125 922 l 15 897 q 104 944 57 911 q 171 1014 151 976 l 189 1014 z "},"²":{"ha":457,"x_min":42,"x_max":414,"o":"m 51 483 l 210 618 q 326 739 283 681 q 369 857 369 797 q 329 962 369 922 q 221 1001 289 1001 q 108 960 150 1001 q 63 846 67 918 l 42 850 q 96 974 49 926 q 221 1021 143 1021 q 346 976 300 1021 q 392 856 392 932 q 222 601 392 744 l 82 483 l 82 482 l 118 482 l 414 482 l 414 463 l 51 463 l 51 483 z "},"³":{"ha":425,"x_min":19,"x_max":371,"o":"m 197 1021 q 314 980 271 1021 q 357 875 357 939 q 331 790 357 825 q 256 742 306 756 l 256 739 q 340 697 308 733 q 371 608 371 660 q 322 496 371 538 q 197 454 272 454 q 81 488 126 454 q 19 581 36 521 l 38 592 q 90 505 50 536 q 200 474 131 474 q 308 509 267 474 q 349 607 349 544 q 313 698 349 665 q 207 731 276 731 l 172 731 l 172 750 l 207 750 q 301 786 267 750 q 335 875 335 822 q 299 967 335 933 q 199 1001 263 1001 q 104 974 142 1001 q 56 900 67 947 l 36 910 q 94 990 51 960 q 197 1021 138 1021 z "},"⁴":{"ha":457,"x_min":21,"x_max":431,"o":"m 431 629 l 318 629 l 318 463 l 296 463 l 296 629 l 21 629 l 21 649 l 288 1014 l 318 1014 l 318 649 l 431 649 l 431 629 m 296 649 l 296 933 l 296 992 l 294 992 l 250 929 l 44 649 l 296 649 z "},"⁵":{"ha":457,"x_min":50,"x_max":411,"o":"m 239 803 q 363 754 315 803 q 411 629 411 706 q 363 503 411 551 q 233 456 314 456 q 113 489 160 456 q 50 590 65 522 l 69 597 q 122 506 81 538 q 233 475 164 475 q 345 518 301 475 q 389 629 389 561 q 347 741 389 699 q 238 783 306 783 q 144 767 179 783 q 85 717 108 750 l 63 717 l 90 1014 l 389 1014 l 389 994 l 108 994 l 89 783 l 83 744 l 85 744 q 239 803 132 803 z "},"⁶":{"ha":469,"x_min":54,"x_max":422,"o":"m 249 454 q 103 527 153 454 q 54 738 54 600 q 110 947 54 874 q 258 1021 167 1021 q 410 917 371 1021 l 392 910 q 342 976 376 951 q 257 1001 308 1001 q 118 920 163 1001 q 74 722 74 839 q 78 653 74 686 l 79 653 q 133 758 85 718 q 250 799 182 799 q 376 752 331 799 q 422 626 422 706 q 376 501 422 547 q 249 454 331 454 m 249 474 q 360 515 319 474 q 400 626 400 556 q 359 738 400 696 q 251 779 318 779 q 168 757 204 779 q 112 700 132 735 q 92 628 92 665 q 137 518 92 563 q 249 474 182 474 z "},"⁷":{"ha":408,"x_min":8,"x_max":394,"o":"m 394 1014 l 394 994 q 176 463 176 758 l 156 463 q 210 744 156 610 q 367 994 264 879 l 8 994 l 8 1014 l 394 1014 z "},"⁸":{"ha":479,"x_min":50,"x_max":429,"o":"m 240 1021 q 359 983 314 1021 q 404 883 404 946 q 376 800 404 835 q 300 753 349 765 l 300 751 q 394 699 360 738 q 429 606 429 660 q 376 496 429 538 q 240 454 324 454 q 103 496 156 454 q 50 606 50 538 q 86 699 50 660 q 181 751 122 739 l 181 753 q 103 800 132 765 q 75 883 75 835 q 119 983 75 946 q 240 1021 164 1021 m 240 1001 q 137 968 176 1001 q 97 882 97 935 q 137 795 97 829 q 240 761 176 761 q 343 795 304 761 q 382 882 382 829 q 343 968 382 935 q 240 1001 304 1001 m 240 474 q 360 511 314 474 q 407 607 407 549 q 360 704 407 667 q 240 742 314 742 q 119 704 167 742 q 72 607 72 667 q 119 511 72 549 q 240 474 165 474 z "},"⁹":{"ha":486,"x_min":53,"x_max":432,"o":"m 232 1021 q 381 946 329 1021 q 432 738 432 871 q 378 528 432 603 q 233 454 325 454 q 117 486 164 454 q 56 574 71 518 l 75 583 q 126 503 86 532 q 233 474 165 474 q 368 552 324 474 q 413 742 413 631 q 403 843 413 788 l 401 843 q 378 756 403 793 q 313 698 353 718 q 232 678 272 678 q 101 725 149 678 q 53 851 53 772 q 101 975 53 929 q 232 1021 150 1021 m 233 1001 q 118 960 161 1001 q 75 850 75 918 q 118 740 75 783 q 231 697 161 697 q 311 719 275 697 q 367 776 347 740 q 388 849 388 811 q 344 958 388 914 q 233 1001 300 1001 z "},"*":{"ha":708,"x_min":64,"x_max":644,"o":"m 431 626 l 540 475 l 522 463 l 413 613 l 354 699 l 296 613 l 186 463 l 168 475 l 278 626 l 340 708 l 240 738 l 64 796 l 71 817 l 247 760 l 346 725 l 343 828 l 343 1014 l 365 1014 l 365 828 l 363 725 l 460 760 l 638 817 l 644 796 l 467 738 l 368 708 l 431 626 z "},"\\":{"ha":485,"x_min":50,"x_max":436,"o":"m 74 1014 l 436 -97 l 413 -97 l 50 1014 l 74 1014 z "},"·":{"ha":267,"x_min":103,"x_max":164,"o":"m 133 531 q 156 522 147 531 q 164 500 164 514 q 156 478 164 486 q 133 469 147 469 q 111 478 119 469 q 103 500 103 486 q 111 522 103 514 q 133 531 119 531 z "},"•":{"ha":597,"x_min":215,"x_max":382,"o":"m 299 554 q 358 531 335 554 q 382 471 382 507 q 358 411 382 435 q 299 388 335 388 q 239 411 263 388 q 215 471 215 435 q 239 531 215 507 q 299 554 263 554 z "},":":{"ha":267,"x_min":103,"x_max":164,"o":"m 133 694 q 156 686 147 694 q 164 664 164 678 q 156 642 164 650 q 133 633 147 633 q 111 642 119 633 q 103 664 103 650 q 111 686 103 678 q 133 694 119 694 m 133 54 q 156 46 147 54 q 164 24 164 38 q 156 1 164 10 q 133 -7 147 -7 q 111 1 119 -7 q 103 24 103 10 q 111 46 103 38 q 133 54 119 54 z "},",":{"ha":233,"x_min":65,"x_max":164,"o":"m 118 54 q 152 37 140 54 q 164 -8 164 19 q 142 -89 164 -50 q 82 -149 121 -128 l 65 -136 q 124 -87 100 -122 q 147 -17 147 -51 q 142 10 147 -7 l 139 10 q 115 -7 132 -7 q 94 2 103 -7 q 86 24 86 11 q 95 45 86 36 q 118 54 104 54 z "},"…":{"ha":739,"x_min":94,"x_max":644,"o":"m 614 54 q 636 46 628 54 q 644 24 644 38 q 636 1 644 10 q 614 -7 628 -7 q 592 1 600 -7 q 583 24 583 10 q 592 46 583 38 q 614 54 600 54 m 369 54 q 392 46 383 54 q 400 24 400 38 q 392 1 400 10 q 369 -7 383 -7 q 347 1 356 -7 q 339 24 339 10 q 347 46 339 38 q 369 54 356 54 m 125 54 q 147 46 139 54 q 156 24 156 38 q 147 1 156 10 q 125 -7 139 -7 q 103 1 111 -7 q 94 24 94 10 q 103 46 94 38 q 125 54 111 54 z "},"!":{"ha":253,"x_min":96,"x_max":157,"o":"m 138 236 l 115 236 l 115 917 l 138 917 l 138 236 m 126 54 q 149 46 140 54 q 157 24 157 38 q 149 1 157 10 q 126 -7 140 -7 q 104 1 113 -7 q 96 24 96 10 q 104 46 96 38 q 126 54 113 54 z "},"¡":{"ha":242,"x_min":90,"x_max":151,"o":"m 121 640 q 99 649 107 640 q 90 671 90 657 q 99 693 90 685 q 121 701 107 701 q 143 693 135 701 q 151 671 151 685 q 143 649 151 657 q 121 640 135 640 m 110 458 l 132 458 l 132 -222 l 110 -222 l 110 458 z "},"#":{"ha":878,"x_min":60,"x_max":818,"o":"m 618 615 l 572 315 l 776 315 l 776 296 l 569 296 l 525 0 l 503 0 l 547 296 l 274 296 l 229 0 l 207 0 l 251 296 l 60 296 l 60 315 l 254 315 l 300 615 l 101 615 l 101 635 l 303 635 l 346 917 l 368 917 l 325 635 l 599 635 l 642 917 l 664 917 l 621 635 l 818 635 l 818 615 l 618 615 m 596 615 l 322 615 l 276 315 l 550 315 l 596 615 z "},".":{"ha":233,"x_min":86,"x_max":147,"o":"m 117 54 q 139 46 131 54 q 147 24 147 38 q 139 1 147 10 q 117 -7 131 -7 q 94 1 103 -7 q 86 24 86 10 q 94 46 86 38 q 117 54 103 54 z "},"?":{"ha":657,"x_min":42,"x_max":600,"o":"m 336 931 q 527 867 454 931 q 600 696 600 804 q 535 505 600 578 q 325 390 469 432 l 325 208 l 303 208 l 303 403 q 467 474 407 435 q 552 566 526 513 q 578 696 578 619 q 510 853 578 796 q 336 911 443 911 q 142 854 208 911 q 61 688 76 797 l 42 696 q 131 871 60 811 q 336 931 201 931 m 314 54 q 336 46 328 54 q 344 24 344 38 q 336 1 344 10 q 314 -7 328 -7 q 292 1 300 -7 q 283 24 283 10 q 292 46 283 38 q 314 54 300 54 z "},"¿":{"ha":651,"x_min":54,"x_max":613,"o":"m 340 633 q 318 642 326 633 q 310 664 310 650 q 318 686 310 678 q 340 694 326 694 q 363 686 354 694 q 371 664 371 678 q 363 642 371 650 q 340 633 354 633 m 318 -243 q 127 -180 200 -243 q 54 -8 54 -117 q 119 183 54 110 q 329 297 185 256 l 329 479 l 351 479 l 351 285 q 188 214 247 253 q 102 122 128 175 q 76 -8 76 68 q 144 -166 76 -108 q 318 -224 211 -224 q 512 -167 446 -224 q 593 0 578 -110 l 613 -8 q 524 -183 594 -124 q 318 -243 453 -243 z "},"\"":{"ha":335,"x_min":92,"x_max":243,"o":"m 243 724 l 219 724 l 219 944 l 243 944 l 243 724 m 115 724 l 92 724 l 92 944 l 115 944 l 115 724 z "},"'":{"ha":207,"x_min":92,"x_max":115,"o":"m 115 724 l 92 724 l 92 944 l 115 944 l 115 724 z "},";":{"ha":267,"x_min":81,"x_max":179,"o":"m 138 633 q 115 642 124 633 q 107 664 107 650 q 115 686 107 678 q 138 694 124 694 q 160 686 151 694 q 168 664 168 678 q 160 642 168 650 q 138 633 151 633 m 133 54 q 167 37 156 54 q 179 -8 179 19 q 158 -89 179 -50 q 97 -149 136 -128 l 81 -136 q 139 -87 115 -122 q 163 -17 163 -51 q 157 10 163 -7 l 154 10 q 131 -7 149 -7 q 110 2 118 -7 q 101 24 101 11 q 110 45 101 36 q 133 54 119 54 z "},"/":{"ha":485,"x_min":49,"x_max":435,"o":"m 72 -97 l 49 -97 l 411 1014 l 435 1014 l 72 -97 z "},"_":{"ha":693,"x_min":0,"x_max":693,"o":"m 693 -154 l 0 -154 l 0 -135 l 693 -135 l 693 -154 z "},"₍":{"ha":264,"x_min":103,"x_max":275,"o":"m 275 389 q 163 219 201 310 q 125 13 125 128 q 163 -194 125 -103 q 275 -364 201 -285 l 264 -376 q 145 -203 188 -301 q 103 13 103 -104 q 145 228 103 129 q 264 401 188 326 l 275 389 z "},"₎":{"ha":264,"x_min":-11,"x_max":161,"o":"m 0 401 q 119 228 76 326 q 161 13 161 129 q 119 -203 161 -104 q 0 -376 76 -301 l -11 -364 q 101 -194 63 -285 q 139 13 139 -103 q 101 219 139 128 q -11 389 63 310 l 0 401 z "},"{":{"ha":360,"x_min":11,"x_max":332,"o":"m 192 536 q 163 447 192 483 q 83 397 135 411 q 163 346 135 382 q 192 257 192 310 l 192 -81 q 229 -181 192 -144 q 332 -217 267 -217 l 332 -236 q 213 -194 256 -236 q 169 -81 169 -153 l 169 257 q 127 353 169 318 q 11 388 85 388 l 11 406 q 127 440 85 406 q 169 536 169 475 l 169 872 q 213 986 169 944 q 332 1028 256 1028 l 332 1008 q 229 972 267 1008 q 192 872 192 936 l 192 536 z "},"}":{"ha":360,"x_min":28,"x_max":349,"o":"m 190 536 q 233 440 190 475 q 349 406 275 406 l 349 388 q 233 353 275 388 q 190 257 190 318 l 190 -81 q 147 -194 190 -153 q 28 -236 104 -236 l 28 -217 q 131 -181 93 -217 q 168 -81 168 -144 l 168 257 q 197 346 168 310 q 276 397 225 382 q 197 447 225 411 q 168 536 168 483 l 168 872 q 131 972 168 936 q 28 1008 93 1008 l 28 1028 q 147 986 104 1028 q 190 872 190 944 l 190 536 z "},"[":{"ha":372,"x_min":106,"x_max":357,"o":"m 126 994 l 126 -214 l 357 -214 l 357 -233 l 106 -233 l 106 1014 l 357 1014 l 357 994 l 126 994 z "},"]":{"ha":372,"x_min":15,"x_max":267,"o":"m 267 -233 l 15 -233 l 15 -214 l 246 -214 l 246 994 l 15 994 l 15 1014 l 267 1014 l 267 -233 z "},"(":{"ha":351,"x_min":74,"x_max":339,"o":"m 339 1014 q 154 757 214 910 q 94 396 94 604 q 154 35 94 188 q 339 -222 214 -118 l 328 -236 q 135 28 197 -125 q 74 396 74 182 q 135 763 74 610 q 328 1028 197 917 l 339 1014 z "},")":{"ha":351,"x_min":13,"x_max":278,"o":"m 24 1028 q 216 763 154 917 q 278 396 278 610 q 216 28 278 182 q 24 -236 154 -125 l 13 -222 q 197 35 138 -118 q 257 396 257 188 q 197 757 257 604 q 13 1014 138 910 l 24 1028 z "},"⁽":{"ha":264,"x_min":103,"x_max":275,"o":"m 275 1114 q 163 944 201 1035 q 125 738 125 853 q 163 531 125 622 q 275 361 201 440 l 264 349 q 145 522 188 424 q 103 738 103 621 q 145 953 103 854 q 264 1126 188 1051 l 275 1114 z "},"⁾":{"ha":264,"x_min":-11,"x_max":161,"o":"m 0 1126 q 119 953 76 1051 q 161 738 161 854 q 119 522 161 621 q 0 349 76 424 l -11 361 q 101 531 63 440 q 139 738 139 622 q 101 944 139 853 q -11 1114 63 1035 l 0 1126 z "},"—":{"ha":1304,"x_min":94,"x_max":1210,"o":"m 1210 364 l 94 364 l 94 386 l 1210 386 l 1210 364 z "},"–":{"ha":846,"x_min":94,"x_max":751,"o":"m 751 364 l 94 364 l 94 386 l 751 386 l 751 364 z "},"-":{"ha":579,"x_min":94,"x_max":485,"o":"m 485 364 l 94 364 l 94 386 l 485 386 l 485 364 z "},"­":{"ha":579,"x_min":94,"x_max":485,"o":"m 485 364 l 94 364 l 94 386 l 485 386 l 485 364 z "},"«":{"ha":526,"x_min":64,"x_max":457,"o":"m 92 368 l 293 96 l 264 96 l 64 368 l 264 640 l 293 640 l 92 368 m 256 368 l 457 96 l 428 96 l 228 368 l 428 640 l 457 640 l 256 368 z "},"»":{"ha":521,"x_min":64,"x_max":457,"o":"m 93 640 l 293 368 l 93 96 l 64 96 l 265 368 l 64 640 l 93 640 m 257 640 l 457 368 l 257 96 l 228 96 l 429 368 l 228 640 l 257 640 z "},"‹":{"ha":363,"x_min":64,"x_max":293,"o":"m 92 368 l 293 96 l 264 96 l 64 368 l 264 640 l 293 640 l 92 368 z "},"›":{"ha":363,"x_min":69,"x_max":299,"o":"m 99 640 l 299 368 l 99 96 l 69 96 l 271 368 l 69 640 l 99 640 z "},"„":{"ha":379,"x_min":65,"x_max":300,"o":"m 118 54 q 152 37 140 54 q 164 -8 164 19 q 142 -89 164 -50 q 82 -149 121 -128 l 65 -136 q 124 -87 100 -122 q 147 -17 147 -51 q 142 10 147 -7 l 139 10 q 115 -7 132 -7 q 94 2 103 -7 q 86 24 86 11 q 95 45 86 36 q 118 54 104 54 m 254 54 q 288 37 276 54 q 300 -8 300 19 q 278 -89 300 -50 q 218 -149 257 -128 l 201 -136 q 260 -87 236 -122 q 283 -17 283 -51 q 278 10 283 -7 l 275 10 q 251 -7 268 -7 q 231 2 239 -7 q 222 24 222 11 q 231 45 222 36 q 254 54 240 54 z "},"“":{"ha":376,"x_min":75,"x_max":310,"o":"m 121 756 q 87 773 99 756 q 75 818 75 790 q 97 899 75 860 q 157 958 118 938 l 174 946 q 115 897 139 932 q 92 826 92 861 q 97 800 92 817 l 100 800 q 124 817 107 817 q 144 808 136 817 q 153 786 153 799 q 144 765 153 774 q 121 756 135 756 m 257 756 q 223 773 235 756 q 211 818 211 790 q 233 899 211 860 q 293 958 254 938 l 310 946 q 251 897 275 932 q 228 826 228 861 q 233 800 228 817 l 236 800 q 260 817 243 817 q 281 808 272 817 q 289 786 289 799 q 280 765 289 774 q 257 756 271 756 z "},"”":{"ha":375,"x_min":74,"x_max":308,"o":"m 126 956 q 160 938 149 956 q 172 893 172 921 q 151 813 172 851 q 90 753 129 774 l 74 765 q 132 815 108 779 q 156 885 156 850 q 150 911 156 894 l 147 911 q 124 894 140 894 q 103 903 111 894 q 94 925 94 913 q 103 947 94 938 q 126 956 113 956 m 263 956 q 297 938 285 956 q 308 893 308 921 q 287 813 308 851 q 226 753 265 774 l 210 765 q 268 815 244 779 q 292 885 292 850 q 286 911 292 894 l 283 911 q 260 894 276 894 q 239 903 247 894 q 231 925 231 913 q 240 947 231 938 q 263 956 249 956 z "},"‘":{"ha":240,"x_min":75,"x_max":174,"o":"m 121 756 q 87 773 99 756 q 75 818 75 790 q 97 899 75 860 q 157 958 118 938 l 174 946 q 115 897 139 932 q 92 826 92 861 q 97 800 92 817 l 100 800 q 124 817 107 817 q 144 808 136 817 q 153 786 153 799 q 144 765 153 774 q 121 756 135 756 z "},"’":{"ha":239,"x_min":74,"x_max":172,"o":"m 126 956 q 160 938 149 956 q 172 893 172 921 q 151 813 172 851 q 90 753 129 774 l 74 765 q 132 815 108 779 q 156 885 156 850 q 150 911 156 894 l 147 911 q 124 894 140 894 q 103 903 111 894 q 94 925 94 913 q 103 947 94 938 q 126 956 113 956 z "},"‚":{"ha":243,"x_min":65,"x_max":164,"o":"m 118 54 q 152 37 140 54 q 164 -8 164 19 q 142 -89 164 -50 q 82 -149 121 -128 l 65 -136 q 124 -87 100 -122 q 147 -17 147 -51 q 142 10 147 -7 l 139 10 q 115 -7 132 -7 q 94 2 103 -7 q 86 24 86 11 q 95 45 86 36 q 118 54 104 54 z "}," ":{"ha":390,"x_min":0,"x_max":0,"o":""},"€":{"ha":900,"x_min":49,"x_max":829,"o":"m 829 235 q 716 51 799 115 q 531 -14 633 -14 q 292 80 385 -14 q 175 344 199 174 l 49 344 l 49 365 l 174 365 q 168 458 168 404 q 174 553 168 513 l 49 553 l 49 574 l 175 574 q 291 838 199 744 q 529 931 383 931 q 712 881 638 931 q 818 733 786 831 l 801 719 q 529 911 736 911 q 308 823 393 911 q 199 574 222 735 l 604 574 l 590 553 l 196 553 q 190 458 190 513 q 196 365 190 404 l 549 365 l 535 344 l 199 344 q 308 94 221 183 q 531 6 394 6 q 706 67 629 6 q 810 244 782 129 l 829 235 z "},"¢":{"ha":746,"x_min":78,"x_max":676,"o":"m 676 190 q 580 42 658 97 q 394 -14 501 -14 l 394 -139 l 375 -139 l 375 -14 q 156 88 233 -8 q 78 347 78 183 q 156 606 78 510 q 375 708 235 701 l 375 833 l 394 833 l 394 708 l 397 708 q 574 658 501 708 q 671 518 646 608 l 651 508 q 563 642 629 594 q 397 689 496 689 l 394 689 l 394 6 q 568 58 493 6 q 657 197 643 111 l 676 190 m 100 347 q 172 101 100 192 q 375 6 243 11 l 375 689 q 172 590 244 681 q 100 347 100 500 z "},"¤":{"ha":836,"x_min":86,"x_max":750,"o":"m 663 463 q 606 286 663 356 l 750 142 l 735 126 l 590 271 q 418 206 525 206 q 246 269 314 206 l 103 126 l 86 143 l 229 286 q 172 463 172 356 q 226 633 172 567 l 86 774 l 103 790 l 242 650 q 418 717 308 717 q 593 650 526 717 l 735 790 l 750 775 l 608 632 q 663 463 663 565 m 418 225 q 581 289 521 225 q 640 463 640 353 q 580 633 640 569 q 418 697 519 697 q 255 633 315 697 q 194 463 194 569 q 255 289 194 353 q 418 225 315 225 z "},"$":{"ha":806,"x_min":79,"x_max":726,"o":"m 404 0 q 192 66 278 4 q 79 238 106 128 l 100 249 q 203 83 121 143 q 404 19 285 24 l 404 442 q 242 484 303 463 q 140 551 182 506 q 99 676 99 597 q 135 795 99 740 q 242 883 172 850 q 404 917 311 917 l 404 1056 l 424 1056 l 424 917 q 714 711 657 908 l 696 697 q 424 897 646 889 l 424 461 q 584 419 524 440 q 685 353 644 399 q 726 229 726 308 q 689 110 726 163 q 583 29 651 58 q 424 0 515 0 l 424 -139 l 404 -139 l 404 0 m 404 897 q 255 868 319 897 q 156 789 190 839 q 121 676 121 739 q 159 565 121 606 q 254 504 197 524 q 404 465 311 485 l 404 897 m 424 19 q 624 76 544 21 q 704 229 704 132 q 667 339 704 299 q 573 399 629 379 q 424 439 517 419 l 424 19 z "},"ƒ":{"ha":554,"x_min":-72,"x_max":567,"o":"m 492 1001 q 380 958 421 1001 q 325 825 339 914 l 283 556 l 518 556 l 518 536 l 281 536 l 200 19 q 15 -178 168 -178 q -31 -173 -12 -178 q -72 -154 -50 -168 l -64 -139 q 15 -158 -35 -158 q 176 19 149 -158 l 257 536 l 38 536 l 38 556 l 260 556 l 301 824 q 360 973 317 925 q 481 1021 404 1021 q 527 1017 508 1021 q 567 1003 546 1013 l 564 983 q 492 1001 529 1001 z "},"£":{"ha":796,"x_min":43,"x_max":746,"o":"m 746 160 q 698 29 746 72 q 567 -14 650 -14 q 463 7 504 -14 q 369 71 422 28 q 285 8 336 31 q 175 -14 233 -14 q 79 11 115 -14 q 43 78 43 36 q 81 147 43 121 q 185 174 119 174 q 282 155 242 174 q 367 100 322 136 q 401 214 401 150 q 383 313 401 268 q 315 421 364 358 l 131 421 l 131 440 l 300 440 q 221 565 243 514 q 199 678 199 617 q 272 861 199 792 q 465 931 346 931 q 631 876 567 931 q 706 729 696 821 l 685 721 q 616 859 676 807 q 465 911 556 911 q 287 848 353 911 q 221 678 221 785 q 243 572 221 622 q 322 447 265 522 l 328 440 l 621 440 l 621 421 l 343 421 q 406 314 388 360 q 424 217 424 268 q 382 86 424 143 q 470 26 431 46 q 567 6 510 6 q 685 45 644 6 q 726 160 725 85 l 746 160 m 175 6 q 277 26 231 6 q 354 83 324 47 q 276 136 314 118 q 186 154 238 154 q 98 133 131 154 q 65 78 65 113 q 95 25 65 44 q 175 6 125 6 z "},"₺":{"ha":796,"x_min":61,"x_max":747,"o":"m 747 357 q 658 94 747 189 q 413 0 569 0 l 224 0 l 224 389 l 61 342 l 61 363 l 224 410 l 224 571 l 61 522 l 61 543 l 224 592 l 224 917 l 246 917 l 246 599 l 561 692 l 561 671 l 246 578 l 246 417 l 561 510 l 561 489 l 246 396 l 246 19 l 400 19 q 640 109 553 19 q 726 357 726 199 l 747 357 z "},"₽":{"ha":815,"x_min":38,"x_max":775,"o":"m 201 404 l 201 267 l 528 267 l 528 247 l 201 247 l 201 0 l 179 0 l 179 247 l 38 247 l 38 267 l 179 267 l 179 404 l 38 404 l 38 424 l 179 424 l 179 917 l 463 917 q 692 849 610 917 q 775 660 775 781 q 692 472 775 539 q 463 404 610 404 l 201 404 m 201 424 l 463 424 q 676 486 599 424 q 753 660 753 549 q 676 834 753 771 q 463 897 599 897 l 201 897 l 201 424 z "},"¥":{"ha":789,"x_min":61,"x_max":728,"o":"m 693 375 l 693 356 l 406 356 l 406 204 l 693 204 l 693 185 l 406 185 l 406 0 l 383 0 l 383 185 l 97 185 l 97 204 l 383 204 l 383 356 l 97 356 l 97 375 l 375 375 l 61 917 l 88 917 l 374 413 l 393 379 l 396 379 l 415 413 l 701 917 l 728 917 l 414 375 l 693 375 z "},"≈":{"ha":839,"x_min":125,"x_max":714,"o":"m 272 618 q 338 608 307 618 q 424 572 369 597 q 503 538 469 550 q 571 526 538 526 q 714 601 643 526 l 714 575 q 569 507 644 507 q 505 519 538 507 q 425 553 472 531 q 341 588 375 576 q 272 600 307 600 q 196 582 229 600 q 125 524 163 564 l 125 550 q 197 603 164 588 q 272 618 231 618 m 272 360 q 340 348 307 360 q 424 313 372 336 q 506 278 475 289 q 571 267 538 267 q 714 343 642 267 l 714 317 q 569 249 644 249 q 506 260 538 249 q 425 293 475 271 q 341 328 375 317 q 272 340 307 340 q 196 322 229 340 q 125 265 163 304 l 125 292 q 197 344 164 329 q 272 360 231 360 z "},"~":{"ha":665,"x_min":60,"x_max":606,"o":"m 606 549 q 474 418 588 418 q 399 431 431 418 q 325 471 367 444 q 256 508 283 496 q 192 521 228 521 q 117 494 143 521 q 82 410 92 467 l 60 410 q 192 540 78 540 q 267 527 235 540 q 340 488 299 514 q 410 450 382 463 q 474 438 438 438 q 548 465 522 438 q 583 549 574 492 l 606 549 z "},"÷":{"ha":839,"x_min":107,"x_max":732,"o":"m 419 728 q 442 719 433 728 q 450 697 450 711 q 442 675 450 683 q 419 667 433 667 q 397 675 406 667 q 389 697 389 683 q 397 719 389 711 q 419 728 406 728 m 732 429 l 107 429 l 107 449 l 732 449 l 732 429 m 419 214 q 442 206 433 214 q 450 183 450 197 q 442 161 450 169 q 419 153 433 153 q 397 161 406 153 q 389 183 389 169 q 397 206 389 197 q 419 214 406 214 z "},"=":{"ha":839,"x_min":121,"x_max":718,"o":"m 718 567 l 121 567 l 121 586 l 718 586 l 718 567 m 718 283 l 121 283 l 121 303 l 718 303 l 718 283 z "},"₌":{"ha":542,"x_min":88,"x_max":454,"o":"m 88 101 l 454 101 l 454 82 l 88 82 l 88 101 m 88 -51 l 454 -51 l 454 -71 l 88 -71 l 88 -51 z "},"⁼":{"ha":542,"x_min":88,"x_max":454,"o":"m 88 826 l 454 826 l 454 807 l 88 807 l 88 826 m 88 674 l 454 674 l 454 654 l 88 654 l 88 674 z "},">":{"ha":839,"x_min":99,"x_max":713,"o":"m 713 429 l 713 403 l 99 81 l 99 106 l 693 417 l 99 726 l 99 751 l 713 429 z "},"≥":{"ha":839,"x_min":110,"x_max":729,"o":"m 729 529 l 729 503 l 110 157 l 110 182 l 710 515 l 110 836 l 110 861 l 729 529 m 110 19 l 729 19 l 729 0 l 110 0 l 110 19 z "},"∞":{"ha":1203,"x_min":83,"x_max":1119,"o":"m 918 688 q 1019 656 974 688 q 1092 564 1065 625 q 1119 419 1119 503 q 1092 276 1119 336 q 1019 184 1065 215 q 918 153 974 153 q 827 165 858 153 q 753 224 796 178 q 600 403 710 269 q 451 225 493 271 q 377 166 408 179 q 286 153 346 153 q 184 184 231 153 q 110 276 138 215 q 83 419 83 336 q 110 564 83 503 q 184 656 138 625 q 286 688 231 688 q 376 675 346 688 q 450 617 407 663 q 600 440 493 571 l 601 439 q 749 612 704 565 q 826 673 793 658 q 918 688 860 688 m 290 172 q 366 184 339 172 q 438 244 393 196 q 586 419 482 292 q 436 597 479 550 q 366 656 393 643 q 290 668 339 668 q 198 637 240 668 q 131 549 156 606 q 106 419 106 493 q 131 290 106 347 q 198 203 156 233 q 290 172 240 172 m 917 172 q 1007 203 965 172 q 1073 291 1049 235 q 1097 419 1097 347 q 1072 549 1097 493 q 1005 637 1047 606 q 914 668 963 668 q 837 652 869 668 q 756 586 804 636 q 615 422 707 536 q 766 244 722 290 q 838 185 810 197 q 917 172 867 172 z "},"∫":{"ha":538,"x_min":13,"x_max":526,"o":"m 436 1053 q 526 1029 492 1053 l 519 1011 q 436 1033 490 1033 q 323 992 363 1033 q 283 871 283 951 l 283 4 q 110 -178 283 -178 q 13 -150 53 -178 l 21 -133 q 104 -158 61 -158 q 222 -119 182 -158 q 261 4 261 -79 l 261 871 q 307 1007 261 961 q 436 1053 353 1053 z "},"<":{"ha":839,"x_min":126,"x_max":740,"o":"m 740 726 l 146 417 l 740 106 l 740 81 l 126 403 l 126 429 l 740 751 l 740 726 z "},"≤":{"ha":839,"x_min":110,"x_max":729,"o":"m 729 836 l 129 515 l 729 182 l 729 157 l 110 503 l 110 529 l 729 861 l 729 836 m 110 19 l 729 19 l 729 0 l 110 0 l 110 19 z "},"¬":{"ha":839,"x_min":107,"x_max":732,"o":"m 732 449 l 732 244 l 710 244 l 710 429 l 107 429 l 107 449 l 732 449 z "},"−":{"ha":839,"x_min":107,"x_max":732,"o":"m 732 429 l 107 429 l 107 449 l 732 449 l 732 429 z "},"₋":{"ha":458,"x_min":56,"x_max":403,"o":"m 56 25 l 403 25 l 403 6 l 56 6 l 56 25 z "},"⁻":{"ha":458,"x_min":56,"x_max":403,"o":"m 56 750 l 403 750 l 403 731 l 56 731 l 56 750 z "},"×":{"ha":839,"x_min":172,"x_max":667,"o":"m 438 433 l 667 204 l 649 186 l 419 415 l 190 186 l 172 204 l 401 433 l 172 663 l 190 681 l 419 451 l 649 681 l 667 663 l 438 433 z "},"≠":{"ha":839,"x_min":121,"x_max":718,"o":"m 497 567 l 371 303 l 718 303 l 718 283 l 363 283 l 276 103 l 251 103 l 338 283 l 121 283 l 121 303 l 347 303 l 474 567 l 121 567 l 121 586 l 482 586 l 565 760 l 589 760 l 507 586 l 718 586 l 718 567 l 497 567 z "},"∂":{"ha":768,"x_min":56,"x_max":679,"o":"m 339 931 q 596 815 513 931 q 679 458 679 700 q 594 108 679 231 q 353 -14 510 -14 q 199 24 267 -14 q 93 129 131 61 q 56 283 56 197 q 92 435 56 369 q 195 538 129 501 q 346 575 261 575 q 538 526 458 575 q 654 388 618 478 q 657 458 657 432 q 579 801 657 690 q 339 911 501 911 q 143 818 206 911 l 126 833 q 339 931 204 931 m 351 6 q 557 94 481 6 q 651 351 633 183 q 539 503 619 451 q 344 556 458 556 q 206 521 267 556 q 112 424 146 486 q 78 285 78 363 q 113 140 78 204 q 210 41 147 76 q 351 6 272 6 z "},"%":{"ha":1049,"x_min":54,"x_max":994,"o":"m 247 917 q 391 849 343 917 q 439 683 439 781 q 391 520 439 586 q 247 454 343 454 q 103 520 151 454 q 54 683 54 586 q 103 849 54 781 q 247 917 151 917 m 821 917 l 847 917 l 226 0 l 200 0 l 821 917 m 247 897 q 119 835 163 897 q 76 683 76 774 q 119 533 76 593 q 247 474 163 474 q 374 533 332 474 q 417 683 417 593 q 374 835 417 774 q 247 897 331 897 m 803 463 q 947 395 899 463 q 994 231 994 328 q 947 67 994 133 q 803 0 899 0 q 658 67 707 0 q 608 231 608 133 q 657 395 608 328 q 803 463 706 463 m 803 443 q 674 382 718 443 q 631 231 631 321 q 674 80 631 140 q 803 19 718 19 q 929 80 886 19 q 972 231 972 140 q 929 382 972 321 q 803 443 886 443 z "},"‰":{"ha":1540,"x_min":54,"x_max":1486,"o":"m 247 917 q 391 849 343 917 q 439 683 439 781 q 391 520 439 586 q 247 454 343 454 q 103 520 151 454 q 54 683 54 586 q 103 849 54 781 q 247 917 151 917 m 821 917 l 847 917 l 226 0 l 200 0 l 821 917 m 247 897 q 119 835 163 897 q 76 683 76 774 q 119 533 76 593 q 247 474 163 474 q 374 533 332 474 q 417 683 417 593 q 374 835 417 774 q 247 897 331 897 m 803 463 q 947 395 899 463 q 994 231 994 328 q 947 67 994 133 q 803 0 899 0 q 658 67 707 0 q 608 231 608 133 q 657 395 608 328 q 803 463 706 463 m 1294 463 q 1438 395 1390 463 q 1486 231 1486 328 q 1438 67 1486 133 q 1294 0 1390 0 q 1149 67 1199 0 q 1100 231 1100 133 q 1149 395 1100 328 q 1294 463 1197 463 m 803 443 q 674 382 718 443 q 631 231 631 321 q 674 80 631 140 q 803 19 718 19 q 929 80 886 19 q 972 231 972 140 q 929 382 972 321 q 803 443 886 443 m 1294 443 q 1166 382 1210 443 q 1122 231 1122 321 q 1166 80 1122 140 q 1294 19 1210 19 q 1421 80 1378 19 q 1464 231 1464 140 q 1421 382 1464 321 q 1294 443 1378 443 z "},"+":{"ha":839,"x_min":97,"x_max":742,"o":"m 742 429 l 431 429 l 431 110 l 408 110 l 408 429 l 97 429 l 97 449 l 408 449 l 408 757 l 431 757 l 431 449 l 742 449 l 742 429 z "},"₊":{"ha":458,"x_min":49,"x_max":410,"o":"m 410 6 l 240 6 l 240 -165 l 218 -165 l 218 6 l 49 6 l 49 25 l 218 25 l 218 196 l 240 196 l 240 25 l 410 25 l 410 6 z "},"±":{"ha":839,"x_min":107,"x_max":732,"o":"m 732 519 l 732 500 l 431 500 l 431 147 l 410 147 l 410 500 l 107 500 l 107 519 l 410 519 l 410 864 l 431 864 l 431 519 l 732 519 m 107 19 l 732 19 l 732 0 l 107 0 l 107 19 z "},"⁺":{"ha":458,"x_min":49,"x_max":410,"o":"m 410 731 l 240 731 l 240 560 l 218 560 l 218 731 l 49 731 l 49 750 l 218 750 l 218 921 l 240 921 l 240 750 l 410 750 l 410 731 z "},"∏":{"ha":867,"x_min":108,"x_max":758,"o":"m 758 -178 l 736 -178 l 736 897 l 131 897 l 131 -178 l 108 -178 l 108 917 l 758 917 l 758 -178 z "},"√":{"ha":829,"x_min":26,"x_max":819,"o":"m 819 1136 l 379 0 l 354 0 l 169 468 l 26 468 l 26 488 l 186 488 l 350 72 l 367 21 l 383 69 l 796 1136 l 819 1136 z "},"∑":{"ha":792,"x_min":43,"x_max":732,"o":"m 732 897 l 72 897 l 553 385 l 553 382 l 69 -158 l 732 -158 l 732 -178 l 43 -178 l 43 -158 l 525 383 l 43 897 l 43 917 l 732 917 l 732 897 z "},"µ":{"ha":761,"x_min":103,"x_max":658,"o":"m 658 694 l 658 0 l 636 0 l 636 185 q 533 42 611 97 q 346 -14 454 -14 q 210 24 268 -14 q 125 131 151 61 l 125 -292 l 103 -292 l 103 694 l 125 694 l 125 235 q 187 66 125 126 q 350 6 249 6 q 496 43 431 6 q 599 142 561 81 q 636 276 636 204 l 636 694 l 658 694 z "},"Ω":{"ha":1007,"x_min":85,"x_max":922,"o":"m 922 19 l 922 0 l 599 0 l 599 19 q 818 184 738 69 q 899 472 899 299 q 850 703 899 604 q 712 857 801 803 q 504 911 622 911 q 295 857 385 911 q 157 703 206 803 q 108 472 108 604 q 189 184 108 299 q 408 19 269 69 l 408 0 l 85 0 l 85 19 l 363 19 q 160 192 233 78 q 86 472 86 307 q 138 714 86 610 q 283 874 189 818 q 504 931 378 931 q 724 874 629 931 q 869 714 818 818 q 921 472 921 610 q 847 192 921 307 q 643 19 774 78 l 922 19 z "},"∆":{"ha":840,"x_min":39,"x_max":801,"o":"m 801 19 l 801 0 l 39 0 l 39 19 l 406 917 l 438 917 l 801 19 m 64 19 l 776 19 l 421 900 l 64 19 z "},"∕":{"ha":281,"x_min":-196,"x_max":476,"o":"m 450 917 l 476 917 l -169 0 l -196 0 l 450 917 z "},"∙":{"ha":267,"x_min":103,"x_max":164,"o":"m 133 517 q 156 508 147 517 q 164 486 164 500 q 156 464 164 472 q 133 456 147 456 q 111 464 119 456 q 103 486 103 472 q 111 508 103 500 q 133 517 119 517 z "},"↑":{"ha":1042,"x_min":86,"x_max":953,"o":"m 521 929 q 722 685 622 788 q 953 488 821 583 l 939 465 q 699 677 807 567 q 528 888 592 788 l 531 743 l 531 0 l 508 0 l 508 743 l 511 888 q 340 677 447 788 q 100 465 232 567 l 86 488 q 317 686 217 583 q 518 929 417 789 l 521 929 z "},"↗":{"ha":1042,"x_min":210,"x_max":847,"o":"m 847 761 q 818 375 818 561 q 826 146 818 267 l 800 144 q 794 356 794 240 q 824 729 794 585 l 739 640 q 693 594 739 640 l 226 128 l 210 144 l 676 611 l 810 742 q 438 713 665 713 q 226 718 322 713 l 228 744 q 457 736 349 736 q 843 765 644 736 l 847 761 z "},"→":{"ha":1042,"x_min":82,"x_max":1011,"o":"m 569 893 q 768 663 665 763 q 1011 461 871 563 l 1011 458 q 767 258 869 357 q 569 26 665 158 l 547 40 q 759 280 649 172 q 969 451 869 388 l 825 449 l 82 449 l 82 471 l 825 471 l 969 468 q 759 640 869 532 q 547 879 649 747 l 569 893 z "},"↘":{"ha":1042,"x_min":188,"x_max":825,"o":"m 804 771 q 796 542 796 650 q 825 156 796 356 l 821 151 q 435 181 622 181 q 206 172 326 181 l 204 199 q 415 204 300 204 q 788 175 643 204 l 654 306 l 188 772 l 204 789 l 671 322 q 717 276 717 276 l 801 188 q 772 561 772 332 q 778 772 772 676 l 804 771 z "},"↓":{"ha":1042,"x_min":89,"x_max":956,"o":"m 956 429 q 725 231 825 333 q 524 -12 625 128 l 521 -12 q 320 231 419 129 q 89 429 221 333 l 103 451 q 342 240 235 350 q 514 29 450 129 l 511 174 l 511 917 l 533 917 l 533 174 l 531 29 q 702 240 594 129 q 942 451 810 350 l 956 429 z "},"↙":{"ha":1042,"x_min":217,"x_max":854,"o":"m 254 175 q 626 204 399 204 q 838 199 742 204 l 836 172 q 607 181 715 181 q 221 151 419 181 l 217 156 q 246 542 246 356 q 238 771 246 650 l 264 772 q 269 561 269 676 q 240 188 269 332 l 325 276 q 371 322 325 276 l 838 789 l 854 772 l 388 306 l 254 175 z "},"←":{"ha":1042,"x_min":31,"x_max":960,"o":"m 217 449 l 72 451 q 283 280 172 388 q 494 40 393 172 l 472 26 q 274 258 376 158 q 31 458 172 357 l 31 461 q 274 663 171 563 q 472 893 376 763 l 494 879 q 283 640 393 747 q 72 468 172 532 l 217 471 l 960 471 l 960 449 l 217 449 z "},"↖":{"ha":1042,"x_min":194,"x_max":832,"o":"m 832 144 l 815 128 l 349 594 q 303 640 303 640 l 218 729 q 247 356 247 585 q 242 144 247 240 l 215 146 q 224 375 224 267 q 194 761 224 561 l 199 765 q 585 736 397 736 q 814 744 693 736 l 815 718 q 604 713 719 713 q 232 742 376 713 l 365 611 l 832 144 z "},"↔":{"ha":1306,"x_min":31,"x_max":1275,"o":"m 835 918 q 1033 687 932 786 q 1275 486 1135 588 l 1275 483 q 1033 282 1135 382 q 835 51 932 182 l 813 65 q 1022 303 913 196 q 1232 474 1132 410 l 1090 474 l 215 474 l 74 474 q 283 303 174 410 q 493 65 393 196 l 471 51 q 272 282 374 182 q 31 483 171 382 l 31 486 q 272 687 171 588 q 471 918 374 786 l 493 904 q 283 667 393 774 q 74 496 174 560 l 215 496 l 1090 496 l 1232 496 q 1022 667 1132 560 q 813 904 913 774 l 835 918 z "},"↕":{"ha":1042,"x_min":86,"x_max":953,"o":"m 531 -121 q 701 89 594 -21 q 939 299 808 199 l 953 276 q 722 78 821 179 q 521 -164 622 -24 l 518 -164 q 317 78 417 -24 q 86 276 217 179 l 100 299 q 338 89 231 199 q 508 -121 444 -21 l 508 21 l 508 896 l 508 1038 q 338 828 444 938 q 100 618 231 718 l 86 640 q 317 839 217 738 q 518 1081 417 940 l 521 1081 q 722 839 622 940 q 953 640 821 738 l 939 618 q 701 828 808 718 q 531 1038 594 938 l 531 896 l 531 21 l 531 -121 z "},"●":{"ha":833,"x_min":118,"x_max":715,"o":"m 417 49 q 264 88 332 49 q 157 194 196 126 q 118 347 118 263 q 157 500 118 432 q 264 607 196 568 q 417 646 332 646 q 569 607 501 646 q 676 500 638 568 q 715 347 715 432 q 676 194 715 263 q 569 88 638 126 q 417 49 501 49 z "},"○":{"ha":833,"x_min":121,"x_max":713,"o":"m 417 49 q 266 88 333 49 q 160 194 199 126 q 121 347 121 263 q 160 500 121 432 q 266 607 199 568 q 417 646 333 646 q 567 607 500 646 q 674 500 635 568 q 713 347 713 432 q 674 194 713 263 q 567 88 635 126 q 417 49 500 49 m 417 68 q 556 104 493 68 q 654 204 618 140 q 690 347 690 268 q 654 490 690 426 q 556 590 618 554 q 417 626 493 626 q 278 590 340 626 q 179 490 215 554 q 143 347 143 426 q 179 204 143 268 q 278 104 215 140 q 417 68 340 68 z "},"◆":{"ha":833,"x_min":60,"x_max":774,"o":"m 60 349 l 417 706 l 774 349 l 417 -8 l 60 349 z "},"◇":{"ha":833,"x_min":60,"x_max":774,"o":"m 60 349 l 417 706 l 774 349 l 417 -8 l 60 349 m 735 349 l 417 667 l 99 349 l 417 31 l 735 349 z "},"◊":{"ha":658,"x_min":57,"x_max":603,"o":"m 603 458 l 344 0 l 313 0 l 57 458 l 313 917 l 344 917 l 603 458 m 578 458 l 329 900 l 82 458 l 329 17 l 578 458 z "},"▪":{"ha":833,"x_min":132,"x_max":701,"o":"m 701 632 l 701 63 l 132 63 l 132 632 l 701 632 z "},"▫":{"ha":833,"x_min":132,"x_max":701,"o":"m 132 632 l 701 632 l 701 63 l 132 63 l 132 632 m 679 83 l 679 611 l 154 611 l 154 83 l 679 83 z "},"❛":{"ha":935,"x_min":68,"x_max":885,"o":"m 807 890 q 675 896 744 896 q 342 832 464 896 q 172 679 221 768 q 101 481 122 590 l 113 474 q 504 656 236 656 q 698 619 611 656 q 835 508 785 582 q 885 328 885 435 q 784 72 885 158 q 486 -14 683 -14 q 249 38 342 -14 q 112 178 156 90 q 68 375 68 265 q 196 764 68 606 q 671 922 324 922 q 790 917 704 922 l 807 890 z "},"❜":{"ha":935,"x_min":50,"x_max":867,"o":"m 128 -154 q 260 -160 190 -160 q 592 -96 471 -160 q 763 57 714 -32 q 833 256 813 146 l 822 263 q 431 81 699 81 q 237 117 324 81 q 100 228 150 154 q 50 408 50 301 q 151 664 50 578 q 449 750 251 750 q 686 698 593 750 q 823 558 779 646 q 867 361 867 471 q 739 -28 867 131 q 264 -186 611 -186 q 144 -181 231 -186 l 128 -154 z "},"❝":{"ha":1689,"x_min":68,"x_max":1639,"o":"m 1258 656 q 1452 619 1365 656 q 1589 508 1539 582 q 1639 328 1639 435 q 1538 72 1639 158 q 1240 -14 1438 -14 q 1001 39 1094 -14 q 863 185 907 92 q 486 -14 788 -14 q 249 38 342 -14 q 112 178 156 90 q 68 375 68 265 q 196 764 68 606 q 671 922 324 922 q 790 917 704 922 l 807 890 q 675 896 744 896 q 342 832 464 896 q 172 679 221 768 q 101 481 122 590 l 113 474 q 504 656 236 656 q 699 619 613 656 q 833 511 785 582 q 1425 922 903 922 q 1544 917 1458 922 l 1561 890 q 1429 896 1499 896 q 1097 832 1218 896 q 926 679 975 768 q 856 481 876 590 l 867 474 q 1258 656 990 656 z "},"❞":{"ha":1689,"x_min":50,"x_max":1621,"o":"m 1203 750 q 1440 698 1347 750 q 1577 558 1533 646 q 1621 361 1621 471 q 1493 -28 1621 131 q 1018 -186 1365 -186 q 899 -181 985 -186 l 882 -154 q 1014 -160 944 -160 q 1347 -96 1225 -160 q 1517 57 1468 -32 q 1588 256 1567 146 l 1576 263 q 1185 81 1453 81 q 990 117 1076 81 q 856 225 904 154 q 264 -186 786 -186 q 144 -181 231 -186 l 128 -154 q 260 -160 190 -160 q 592 -96 471 -160 q 763 57 714 -32 q 833 256 813 146 l 822 263 q 431 81 699 81 q 237 117 324 81 q 100 228 150 154 q 50 408 50 301 q 151 664 50 578 q 449 750 251 750 q 688 697 594 750 q 826 551 782 644 q 1203 750 901 750 z "},"❡":{"ha":717,"x_min":42,"x_max":604,"o":"m 604 -14 q 538 -229 604 -160 q 335 -299 471 -299 q 184 -254 233 -299 q 135 -139 135 -210 q 140 -87 135 -110 l 161 -82 q 154 -133 154 -104 q 197 -237 154 -196 q 306 -278 239 -278 q 407 -237 372 -278 q 442 -118 442 -196 l 442 353 l 367 353 q 197 388 271 353 q 83 488 124 424 q 42 635 42 551 q 81 782 42 718 q 193 881 121 846 q 360 917 265 917 l 604 917 l 604 -14 m 442 372 l 442 897 l 367 897 q 209 865 278 897 q 102 772 140 832 q 64 635 64 713 q 102 497 64 557 q 209 405 140 438 q 367 372 278 372 l 442 372 m 464 897 l 464 -118 q 442 -221 464 -178 q 376 -281 421 -264 l 376 -282 q 535 -199 489 -265 q 582 -17 582 -133 l 582 897 l 464 897 z "},"|":{"ha":232,"x_min":106,"x_max":126,"o":"m 126 -233 l 106 -233 l 106 1014 l 126 1014 l 126 -233 z "},"¦":{"ha":251,"x_min":115,"x_max":136,"o":"m 136 506 l 115 506 l 115 1014 l 136 1014 l 136 506 m 136 -233 l 115 -233 l 115 275 l 136 275 l 136 -233 z "},"@":{"ha":1311,"x_min":75,"x_max":1229,"o":"m 661 931 q 988 849 860 931 q 1172 633 1115 767 q 1229 340 1229 500 q 1183 80 1229 174 q 1057 -14 1138 -14 q 953 36 985 -14 q 921 194 921 86 q 825 41 894 96 q 654 -14 756 -14 q 492 28 561 -14 q 384 147 422 69 q 346 326 346 224 q 384 502 346 426 q 492 619 422 578 q 654 660 561 660 q 825 606 756 660 q 921 458 894 553 l 921 633 l 940 633 l 940 183 q 971 52 940 99 q 1061 6 1001 6 q 1168 94 1129 6 q 1207 340 1207 183 q 1153 624 1207 496 q 976 832 1099 753 q 661 911 854 911 q 364 840 492 911 q 167 635 236 768 q 97 325 97 503 q 170 19 97 149 q 375 -178 243 -110 q 681 -246 507 -246 q 860 -217 769 -246 q 1007 -135 951 -187 l 1021 -153 q 867 -235 960 -204 q 681 -265 774 -265 q 363 -195 500 -265 q 150 8 225 -125 q 75 325 75 142 q 147 645 75 508 q 352 856 219 782 q 661 931 485 931 m 654 640 q 503 601 568 640 q 403 492 439 563 q 368 326 368 421 q 403 158 368 231 q 503 45 439 85 q 654 6 568 6 q 795 45 735 6 q 888 153 856 85 q 921 307 921 222 l 921 349 q 888 497 921 431 q 795 602 856 564 q 654 640 735 640 z "},"&":{"ha":794,"x_min":63,"x_max":804,"o":"m 614 135 q 719 32 678 60 q 804 4 761 4 l 803 -14 q 710 15 754 -14 q 601 118 665 44 q 325 -14 501 -14 q 137 42 211 -14 q 63 193 63 97 q 92 312 63 261 q 173 403 122 363 q 310 493 224 443 q 211 640 236 592 q 186 740 186 688 q 239 875 186 825 q 381 925 292 925 q 516 881 465 925 q 567 761 567 836 q 519 624 567 685 q 349 492 472 564 q 340 486 343 489 l 403 403 l 439 356 q 599 151 550 210 q 666 310 644 218 q 688 508 688 401 l 708 508 q 685 304 708 401 q 614 135 663 207 m 208 740 q 217 678 208 706 q 250 613 226 650 q 326 504 274 575 l 335 508 q 499 634 454 578 q 544 761 544 690 q 500 866 544 826 q 381 906 456 906 q 256 860 303 906 q 208 740 208 815 m 321 6 q 588 135 494 6 q 426 340 517 219 q 322 476 389 390 q 190 391 239 428 q 113 306 142 354 q 85 193 85 258 q 152 56 85 107 q 321 6 219 6 z "},"¶":{"ha":717,"x_min":42,"x_max":604,"o":"m 604 -139 l 582 -139 l 582 897 l 389 897 l 389 -139 l 367 -139 l 367 353 q 196 388 269 353 q 82 488 122 424 q 42 635 42 551 q 81 782 42 718 q 193 881 121 846 q 360 917 265 917 l 604 917 l 604 -139 m 367 897 q 208 865 276 897 q 101 772 139 832 q 64 635 64 713 q 101 497 64 557 q 208 405 139 438 q 367 372 276 372 l 367 897 z "},"©":{"ha":1106,"x_min":78,"x_max":1028,"o":"m 553 931 q 801 872 693 931 q 969 706 910 813 q 1028 458 1028 599 q 969 211 1028 318 q 801 45 910 104 q 553 -14 693 -14 q 304 45 413 -14 q 137 211 196 104 q 78 458 78 318 q 137 706 78 599 q 304 872 196 813 q 553 931 413 931 m 553 911 q 317 854 419 911 q 157 694 214 797 q 100 458 100 592 q 157 222 100 325 q 317 63 214 119 q 553 6 419 6 q 789 63 686 6 q 949 222 892 119 q 1006 458 1006 325 q 949 694 1006 592 q 789 854 892 797 q 553 911 686 911 m 569 713 q 701 677 649 713 q 776 574 754 642 l 757 564 q 568 693 718 693 q 400 630 461 693 q 339 456 339 567 q 400 281 339 344 q 568 218 461 218 q 694 257 642 218 q 763 360 747 296 l 783 351 q 706 240 765 282 q 569 199 647 199 q 383 267 450 199 q 317 456 317 335 q 383 644 317 576 q 569 713 450 713 z "},"®":{"ha":1106,"x_min":78,"x_max":1028,"o":"m 553 931 q 801 872 693 931 q 969 706 910 813 q 1028 458 1028 599 q 969 211 1028 318 q 801 45 910 104 q 553 -14 693 -14 q 304 45 413 -14 q 137 211 196 104 q 78 458 78 318 q 137 706 78 599 q 304 872 196 813 q 553 931 413 931 m 553 6 q 789 63 686 6 q 949 222 892 119 q 1006 458 1006 325 q 949 694 1006 592 q 789 854 892 797 q 553 911 686 911 q 317 854 419 911 q 157 694 214 797 q 100 458 100 592 q 157 222 100 325 q 317 63 214 119 q 553 6 419 6 m 764 572 q 622 433 764 444 l 772 199 l 747 199 l 597 432 l 406 432 l 406 199 l 383 199 l 383 713 l 599 713 q 764 572 764 713 m 406 450 l 599 450 q 743 572 743 453 q 599 693 743 693 l 406 693 l 406 450 z "},"§":{"ha":744,"x_min":68,"x_max":699,"o":"m 699 369 q 648 260 699 304 q 515 199 597 215 q 603 135 576 174 q 629 40 629 97 q 600 -57 629 -12 q 514 -127 571 -101 q 378 -153 457 -153 q 221 -124 283 -153 q 135 -35 158 -94 l 153 -22 q 378 -133 190 -133 q 546 -85 485 -133 q 607 39 607 -37 q 547 158 607 117 q 339 222 488 200 q 178 261 238 238 q 94 320 119 285 q 68 408 68 356 q 118 517 68 474 q 249 579 168 561 q 164 642 190 604 q 138 738 138 681 q 167 835 138 790 q 253 905 196 879 q 389 931 310 931 q 546 901 483 931 q 632 813 608 872 l 614 800 q 389 911 576 911 q 221 863 282 911 q 160 739 160 815 q 219 619 160 661 q 428 556 279 578 q 588 517 529 540 q 673 458 647 493 q 699 369 699 422 m 489 208 q 622 264 568 224 q 676 369 676 304 q 621 476 676 439 q 424 535 565 513 q 275 568 333 547 q 144 513 197 553 q 90 408 90 472 q 114 331 90 363 q 192 279 138 300 q 343 243 247 258 q 489 208 432 229 z "},"™":{"ha":1049,"x_min":43,"x_max":938,"o":"m 419 897 l 243 897 l 243 458 l 221 458 l 221 897 l 43 897 l 43 917 l 419 917 l 419 897 m 938 917 l 938 458 l 915 458 l 915 832 l 919 879 l 918 879 l 907 846 l 732 458 l 708 458 l 535 846 l 524 879 l 522 879 l 525 832 l 525 458 l 503 458 l 503 917 l 526 917 l 713 494 l 721 475 l 728 494 l 915 917 l 938 917 z "},"°":{"ha":514,"x_min":71,"x_max":443,"o":"m 257 556 q 122 608 174 556 q 71 743 71 660 q 122 878 71 826 q 257 931 174 931 q 392 878 340 931 q 443 743 443 826 q 392 608 443 660 q 257 556 340 556 m 257 575 q 376 622 332 575 q 421 743 421 668 q 376 865 421 818 q 257 911 332 911 q 138 865 182 911 q 93 743 93 818 q 138 622 93 668 q 257 575 182 575 z "},"℮":{"ha":1085,"x_min":78,"x_max":1021,"o":"m 550 931 q 803 873 697 931 q 965 706 910 815 q 1021 443 1021 596 l 221 443 l 221 157 q 372 56 281 90 q 579 21 463 21 q 808 77 703 21 q 976 233 913 133 l 976 182 q 813 35 915 83 q 578 -14 711 -14 q 310 44 422 -14 q 138 209 197 103 q 78 458 78 315 q 136 707 78 600 q 301 872 194 814 q 550 931 408 931 m 549 896 q 360 863 443 896 q 221 768 276 831 l 221 478 l 879 478 l 879 751 q 740 859 824 822 q 549 896 656 896 z "},"ℓ":{"ha":450,"x_min":54,"x_max":399,"o":"m 399 11 q 301 -14 365 -14 q 192 24 226 -14 q 158 144 158 61 l 158 356 q 54 297 110 322 l 54 321 q 158 379 110 343 l 158 781 q 272 931 158 931 q 385 788 385 931 q 331 558 385 667 q 181 372 276 449 l 181 144 q 210 40 181 72 q 307 8 240 8 q 397 33 364 8 l 399 11 m 181 396 q 315 568 267 465 q 363 788 363 671 q 272 911 363 911 q 181 781 181 911 l 181 396 z "},"^":{"ha":740,"x_min":51,"x_max":689,"o":"m 663 493 l 371 992 l 78 493 l 51 493 l 357 1014 l 383 1014 l 689 493 l 663 493 z "},"†":{"ha":707,"x_min":68,"x_max":639,"o":"m 639 608 l 365 608 l 365 -139 l 343 -139 l 343 608 l 68 608 l 68 626 l 343 626 l 343 917 l 365 917 l 365 626 l 639 626 l 639 608 z "},"‡":{"ha":707,"x_min":68,"x_max":639,"o":"m 365 608 l 365 169 l 639 169 l 639 151 l 365 151 l 365 -139 l 343 -139 l 343 151 l 68 151 l 68 169 l 343 169 l 343 608 l 68 608 l 68 626 l 343 626 l 343 917 l 365 917 l 365 626 l 639 626 l 639 608 l 365 608 z "},"":{"ha":1569,"x_min":32,"x_max":1524,"o":"m 1514 418 l 1439 390 l 1504 357 l 1431 329 l 1489 289 l 1404 275 l 1457 228 l 1365 224 l 1414 179 l 1329 174 q 1290 153 1310 161 l 1290 40 q 1250 0 1290 0 l 1186 0 q 1146 32 1146 0 q 1186 67 1146 67 l 1201 67 l 1201 121 q 1110 107 1163 111 l 1110 40 q 1069 0 1110 0 l 1006 0 q 965 32 965 0 q 1006 67 965 67 l 1021 67 l 1021 104 l 707 104 l 707 40 q 667 0 707 0 l 603 0 q 561 32 561 0 q 572 58 561 49 q 603 67 583 67 l 619 67 l 619 104 l 497 104 l 497 40 q 456 0 497 0 l 394 0 q 351 32 351 0 q 394 67 351 67 l 408 67 l 408 118 q 217 156 308 122 q 74 244 125 190 q 44 258 56 246 q 32 288 32 269 q 44 318 32 306 q 75 331 57 331 l 79 331 q 182 440 136 365 q 228 581 228 515 l 219 663 l 275 638 l 265 718 l 322 686 l 322 765 l 382 721 l 382 799 l 442 760 l 446 840 l 504 792 l 514 874 l 572 821 l 581 897 l 642 846 l 663 925 l 713 867 l 731 940 l 783 881 l 807 953 l 851 889 l 885 958 l 929 896 l 972 972 l 1010 890 l 1063 958 l 1090 878 l 1150 951 l 1164 863 l 1243 926 l 1232 836 l 1321 883 l 1290 800 l 1378 822 l 1342 757 l 1431 763 l 1381 707 l 1478 707 l 1411 639 l 1510 639 l 1440 585 l 1518 567 l 1443 521 l 1524 494 l 1446 460 l 1514 418 m 464 356 q 517 385 497 363 q 536 439 536 408 q 513 499 536 476 q 456 522 489 522 q 392 496 418 522 l 403 474 q 454 496 426 496 q 500 464 488 496 q 506 436 506 451 q 451 374 506 390 l 464 356 m 294 344 q 345 364 326 344 q 365 418 364 383 l 340 418 q 328 388 340 399 q 294 376 315 376 q 260 388 272 376 q 247 418 247 399 l 222 418 q 242 365 222 385 q 294 344 263 344 z "},"̦":{"ha":0,"x_min":-453,"x_max":-358,"o":"m -435 -318 l -453 -318 l -383 -94 l -358 -94 l -435 -318 z "},"ˉ":{"ha":764,"x_min":182,"x_max":582,"o":"m 582 840 l 182 840 l 182 860 l 582 860 l 582 840 z "},"´":{"ha":764,"x_min":410,"x_max":553,"o":"m 553 1014 l 431 810 l 410 810 l 528 1014 l 553 1014 z "},"˘":{"ha":764,"x_min":186,"x_max":522,"o":"m 522 975 q 478 851 522 896 q 354 807 433 807 q 231 851 275 807 q 186 975 186 896 l 206 975 q 246 867 206 907 q 354 826 286 826 q 463 867 422 826 q 503 975 503 907 l 522 975 z "},"ˇ":{"ha":764,"x_min":185,"x_max":510,"o":"m 360 810 l 335 810 l 185 1007 l 208 1007 l 347 828 l 486 1007 l 510 1007 l 360 810 z "},"¸":{"ha":764,"x_min":275,"x_max":528,"o":"m 381 4 q 495 -74 463 -35 q 528 -164 528 -112 q 494 -248 528 -215 q 406 -281 460 -281 q 330 -267 361 -281 q 275 -222 299 -254 l 286 -206 q 340 -250 311 -237 q 406 -262 368 -262 q 478 -235 450 -262 q 507 -165 507 -208 q 474 -82 507 -119 q 351 4 442 -44 l 381 4 z "},"ˆ":{"ha":764,"x_min":219,"x_max":544,"o":"m 521 810 l 382 989 l 243 810 l 219 810 l 369 1007 l 394 1007 l 544 810 l 521 810 z "},"¨":{"ha":764,"x_min":224,"x_max":540,"o":"m 254 892 q 276 883 268 892 q 285 861 285 875 q 276 839 285 847 q 254 831 268 831 q 232 839 240 831 q 224 861 224 847 q 232 883 224 875 q 254 892 240 892 m 510 892 q 532 883 524 892 q 540 861 540 875 q 532 839 540 847 q 510 831 524 831 q 488 839 496 831 q 479 861 479 847 q 488 883 479 875 q 510 892 496 892 z "},"˙":{"ha":764,"x_min":351,"x_max":413,"o":"m 382 892 q 404 883 396 892 q 413 861 413 875 q 404 839 413 847 q 382 831 396 831 q 360 839 368 831 q 351 861 351 847 q 360 883 351 875 q 382 892 368 892 z "},"`":{"ha":764,"x_min":211,"x_max":354,"o":"m 354 810 l 333 810 l 211 1014 l 236 1014 l 354 810 z "},"˝":{"ha":764,"x_min":229,"x_max":554,"o":"m 250 810 l 229 810 l 347 1014 l 372 1014 l 250 810 m 432 810 l 411 810 l 529 1014 l 554 1014 l 432 810 z "},"¯":{"ha":764,"x_min":182,"x_max":582,"o":"m 582 840 l 182 840 l 182 860 l 582 860 l 582 840 z "},"˛":{"ha":764,"x_min":263,"x_max":492,"o":"m 479 11 q 326 -78 369 -36 q 283 -172 283 -119 q 312 -238 283 -215 q 385 -261 340 -261 q 483 -233 449 -261 l 492 -251 q 448 -273 472 -265 q 385 -281 424 -281 q 297 -252 332 -281 q 263 -172 263 -224 q 304 -73 263 -117 q 447 11 346 -29 l 479 11 z "},"˚":{"ha":764,"x_min":235,"x_max":463,"o":"m 349 1021 q 430 989 397 1021 q 463 910 463 957 q 430 831 463 863 q 349 799 397 799 q 267 831 300 799 q 235 910 235 863 q 267 989 235 957 q 349 1021 300 1021 m 349 1001 q 283 975 310 1001 q 257 910 257 949 q 283 844 257 871 q 349 818 310 818 q 414 844 388 818 q 440 910 440 871 q 414 975 440 949 q 349 1001 388 1001 z "},"˜":{"ha":764,"x_min":131,"x_max":569,"o":"m 569 949 q 531 860 558 888 q 451 832 503 832 q 391 844 414 832 q 342 882 368 857 q 297 917 317 906 q 247 928 278 928 q 183 905 203 928 q 151 831 163 882 l 131 831 q 169 919 142 892 q 249 947 197 947 q 309 935 286 947 q 358 897 332 922 q 401 863 381 875 q 451 851 421 851 q 517 874 496 851 q 549 949 538 897 l 569 949 z "}}}
